<?xml version="1.0"?>
<svg xmlns:rdf="http://www.w3.org/1999/02/22-rdf-syntax-ns#" xmlns="http://www.w3.org/2000/svg" xmlns:cc="http://creativecommons.org/ns#" xmlns:xlink="http://www.w3.org/1999/xlink" xmlns:dc="http://purl.org/dc/elements/1.1/" xmlns:svg="http://www.w3.org/2000/svg" id="Clock" onload="play(evt)" viewBox="0 0 460.88 706.25" version="1.1">
  <title id="titre">Javascript Phone Tictactoe Game</title>
  <script id="scriptogamie" type="text/ecmascript">var svgdoc, gameBoard, useCadre;
      var infoobj, sp1score, sp2score;
      var Gamer1, Gamer2;
      var sp1 = 0,sp2 = 0,t = 0;
      var count = 0, beg = 1;
      var tableau = [[0,0,0],[0,0,0],[0,0,0]];
      var ns = "http://www.w3.org/1999/xlink";
      var attr = "href";
      function play( evt ) {
        tictactoe.init( evt );
	clock.init( evt );
      }
      var tictactoe = {
      init: function( evt ) {
        svgdoc = evt.target.ownerDocument;
        gameBoard = svgdoc.getElementById("gameBoard");
        infoobj = svgdoc.getElementById("info");
        sp1score = svgdoc.getElementById("sp1");
        sp2score = svgdoc.getElementById("sp2");
        useCadre = gameBoard.getElementsByTagName("use");
        tictactoe.newGame();
      },
      listener: function( evt ) {
        var g1yt = "Gamer 1 : your turn";
        var g2yt = "Gamer 2 : your turn";
        var g1yw = "Gamer 1, you win!";
        var g2yw = "Gamer 2, you win!";
        var gnw = "No winner!";
        var obj,chpid,i,j;
        obj = evt.currentTarget;
        chpid = obj.getAttribute("id");
        i = chpid.charAt(1)-1;
        j = chpid.charAt(2)-1;
        count++;
        if(Gamer1 &amp;&amp; obj.getAttributeNS(ns,attr)=="#zrect" &amp;&amp; t==0) {
          tableau[i][j]+=1;
          obj.setAttributeNS(ns,attr,"#s1");
          if(tictactoe.Verif() == 1) {
            sp1++;
            infoobj.firstChild.nodeValue = g1yw;
            sp1score.firstChild.nodeValue = sp1;
            tictactoe.hasNoClic();
          } else {
            Gamer1 = false; Gamer2 = true;
            infoobj.style.setProperty("fill","#55d400","");
            infoobj.firstChild.nodeValue = g2yt;
          }
        }
        else if(Gamer2 &amp;&amp; obj.getAttributeNS(ns,attr)=="#zrect" &amp;&amp; t==0) {
          tableau[i][j]+=10;
          obj.setAttributeNS(ns,attr,"#s2");
          if(tictactoe.Verif()==2) {
            sp2++;
            infoobj.firstChild.nodeValue = g2yw;
            sp2score.firstChild.nodeValue = sp2;
            tictactoe.hasNoClic();
          } else {
            Gamer1 = true; Gamer2 = false;
            infoobj.style.setProperty("fill","#ff6600","");
            infoobj.firstChild.nodeValue = g1yt;
          }
        }
        if(t==0 &amp;&amp; count==9) // equality
        {
          infoobj.style.setProperty("fill","#ddd","");
          infoobj.firstChild.nodeValue=gnw;
          tictactoe.hasNoClic();
        }
      },
      Verif: function () {
        var rsd=new Array(8),i;
        rsd[0]=tableau[0][0]+tableau[0][1]+tableau[0][2];
        rsd[1]=tableau[1][0]+tableau[1][1]+tableau[1][2];
        rsd[2]=tableau[2][0]+tableau[2][1]+tableau[2][2];
        rsd[3]=tableau[0][0]+tableau[1][0]+tableau[2][0];
        rsd[4]=tableau[0][1]+tableau[1][1]+tableau[2][1];
        rsd[5]=tableau[0][2]+tableau[1][2]+tableau[2][2];
        rsd[6]=tableau[0][0]+tableau[1][1]+tableau[2][2];
        rsd[7]=tableau[0][2]+tableau[1][1]+tableau[2][0];     
        for(i=0;i&lt;8;i++)
        {
	  switch (rsd[i]) {
	     case  3: t=1; break; 
             case 30: t=2; break;
          }
        }
        return t;
      },
      newGame: function()
      {
        t=0;
        count=0;
        tableau=[[0,0,0],[0,0,0],[0,0,0]];
        for (var i=0;i&lt;useCadre.length;i++)
          useCadre.item(i).setAttributeNS(ns,attr,"#zrect");
        infoobj.firstChild.nodeValue="Gamer "+beg+" : your turn";
        tictactoe.hasClic();
        switch (beg) {
           case 1: 
             beg = 2; Gamer1 = true; Gamer2 = false;
             infoobj.style.setProperty("fill","#ff6600","");
             break;
           case 2:
             beg = 1; Gamer1 = false; Gamer2 = true;
             infoobj.style.setProperty("fill","#55d400","");
        }
      },
     hasClic: function() {
        for (var i=0;i&lt;useCadre.length;i++)
          useCadre.item(i).addEventListener("click",tictactoe.listener,false);
      },
     hasNoClic: function() {
        for (var i=0;i&lt;useCadre.length;i++)
          useCadre.item(i).removeEventListener("click",tictactoe.listener,false);
      },
    }
     var clock = {
      coeur: 400,
      textHeure: "",
      init: function( rev ) {
        var encours = new Date().getTime();
        var tempo = this.coeur - (encours % this.coeur);
        setTimeout( function() { clock.start() }, tempo );
    },
    start: function() {
        this.tictac();
        setInterval( function() { clock.tictac() }, this.coeur );
    },
    tictac: function() {
        var tpscour = new Date();
	var temps = tpscour.toTimeString().substring(0,8);
	clock.majText("tspanheure", temps);
    },
    majText: function(id, libelle) {
        var elt = document.getElementById(id);
        var groupe = elt.parentNode;
        var nouveau = elt.cloneNode(true);
        if (nouveau.firstChild == null) {
          nouveau.appendChild(document.createTextNode(libelle));
        } else {
          nouveau.replaceChild(document.createTextNode(libelle), nouveau.firstChild);
        }
        groupe.replaceChild(nouveau, elt);
    },
};</script>
  <defs id="defs3101">
    <linearGradient id="linearGradient3711" y2="624.44" xlink:href="#linearGradient3806" gradientUnits="userSpaceOnUse" x2="375.17" gradientTransform="matrix(3.2772 0 0 3.2772 -979.03 -1368.2)" y1="410.48" x1="350.46"/>
    <linearGradient id="linearGradient3806">
      <stop id="stop3808" stop-color="#eee" offset="0"/>
      <stop id="stop3810" stop-color="#eee" stop-opacity="0" offset="1"/>
    </linearGradient>
    <linearGradient id="linearGradient3635-3-6">
      <stop id="stop3637-0-2" stop-color="#0176c6" offset="0"/>
      <stop id="stop3639-35-9" stop-color="#8fd1fe" offset="1"/>
    </linearGradient>
    <linearGradient id="linearGradient4013" y2="665.8" gradientUnits="userSpaceOnUse" x2="62.494" gradientTransform="matrix(.78433 0 0 .66921 202.06 -296.55)" y1="665.8" x1="28.994">
      <stop id="stop5207" stop-color="#2b1100" offset="0"/>
      <stop id="stop5209" stop-color="#ff7f2a" offset="1"/>
    </linearGradient>
    <linearGradient id="linearGradient3858" y2="479.06" xlink:href="#linearGradient3806" gradientUnits="userSpaceOnUse" x2="345.75" gradientTransform="matrix(3.2772 0 0 3.2772 -960.24 -1420.6)" y1="475.06" x1="345.65"/>
    <linearGradient id="linearGradient3865" y2="482.87" gradientUnits="userSpaceOnUse" x2="343.45" gradientTransform="matrix(3.2772 0 0 3.2772 -960.24 -1420.6)" y1="473.98" x1="343.15">
      <stop id="stop3953" offset="0"/>
      <stop id="stop3955" stop-color="#333" offset="1"/>
    </linearGradient>
    <filter id="filter6058-8-0" width="1.0127" y="-.11525" x="-.0063295" height="1.2305" color-interpolation-filters="sRGB">
      <feGaussianBlur id="feGaussianBlur6060-3-2" stdDeviation="0.879375"/>
    </filter>
    <linearGradient id="linearGradient6171-5-0" y2="76.362" gradientUnits="userSpaceOnUse" x2="-14.929" gradientTransform="matrix(.94016 0 0 -.94016 66.09 333.43)" y1="122.76" x1="-14.929">
      <stop id="stop6002-9-8" stop-color="#262a2d" offset="0"/>
      <stop id="stop6004-8-6" stop-color="#606567" offset=".060119"/>
      <stop id="stop6006-1-1" stop-color="#262a2d" offset=".14895"/>
      <stop id="stop6008-1-2" stop-color="#262a2d" offset="1"/>
    </linearGradient>
    <linearGradient id="linearGradient6174-5-6" y2="108.11" gradientUnits="userSpaceOnUse" x2="-16.021" gradientTransform="matrix(.94016 0 0 .94016 66.09 71.006)" y1="76.362" x1="-16.021">
      <stop id="stop5902-6-25-2" stop-color="#262a2d" offset="0"/>
      <stop id="stop5908-3-6-4" stop-color="#606567" offset=".12389"/>
      <stop id="stop5910-6-2-1" stop-color="#262a2d" offset=".2677"/>
      <stop id="stop5904-5-0-0" stop-color="#262a2d" offset="1"/>
    </linearGradient>
    <linearGradient id="linearGradient6177-1-1" y2="108.11" gradientUnits="userSpaceOnUse" x2="-16.021" gradientTransform="matrix(.94016 0 0 .94016 66.09 18.357)" y1="76.362" x1="-16.021">
      <stop id="stop5902-8-1" stop-color="#262a2d" offset="0"/>
      <stop id="stop5908-8-5" stop-color="#606567" offset=".12389"/>
      <stop id="stop5910-3-9" stop-color="#262a2d" offset=".2677"/>
      <stop id="stop5904-1-1" stop-color="#262a2d" offset="1"/>
    </linearGradient>
    <linearGradient id="linearGradient6180-3-1" y2="3.5665" gradientUnits="userSpaceOnUse" x2="242.04" gradientTransform="matrix(.94016 0 0 .94016 122.5 18.086)" y1="3.5665" x1="178.98">
      <stop id="stop5833-0-9" stop-color="#0b1417" offset="0"/>
      <stop id="stop5839-9-4" stop-color="#575d60" offset=".25526"/>
      <stop id="stop5841-0-9" stop-color="#575d60" offset=".69822"/>
      <stop id="stop5835-9-8" stop-color="#0b1417" offset="1"/>
    </linearGradient>
    <linearGradient id="linearGradient6184-3-1" y2="80.083" gradientUnits="userSpaceOnUse" x2="283.67" gradientTransform="matrix(.94016 0 0 .94016 -46.634 18.086)" y1="67.457" x1="283.67">
      <stop id="stop5796-8-1" stop-color="#151515" offset="0"/>
      <stop id="stop5798-1-7" stop-color="#151515" stop-opacity="0" offset="1"/>
    </linearGradient>
    <linearGradient id="linearGradient6187-9-3" y2="66.52" gradientUnits="userSpaceOnUse" x2="192.65" gradientTransform="matrix(.94016 0 0 .83236 47.382 26.072)" y1="80.14" x1="192.65">
      <stop id="stop5820-5-9" stop-color="#9c9c9c" offset="0"/>
      <stop id="stop5822-0-5" stop-color="#242424" stop-opacity=".68908" offset=".20755"/>
      <stop id="stop5824-8-0" stop-color="#242424" stop-opacity=".57983" offset=".61491"/>
      <stop id="stop5826-0-7" stop-color="#242424" offset="1"/>
    </linearGradient>
    <linearGradient id="linearGradient6154-7-3" y2="695.1" gradientUnits="userSpaceOnUse" x2="194.49" y1="625.3" x1="194.49">
      <stop id="stop5733-8-1" stop-color="#151515" offset="0"/>
      <stop id="stop5735-3-0" stop-color="#151515" offset=".60526"/>
      <stop id="stop5731-9-2" stop-color="#525252" offset=".81579"/>
      <stop id="stop5668-3-6" stop-color="#919192" offset="1"/>
    </linearGradient>
    <filter id="filter5644-9-4" color-interpolation-filters="sRGB">
      <feGaussianBlur id="feGaussianBlur5646-1-6" stdDeviation="2.6891406"/>
    </filter>
    <linearGradient id="linearGradient16026" y2="587.54" gradientUnits="userSpaceOnUse" x2="93.576" gradientTransform="matrix(.94016 0 0 .94016 47.287 18.086)" y1="148.94" x1="245.63">
      <stop id="stop16022" stop-color="#282c32" offset="0"/>
      <stop id="stop16024" offset="1"/>
    </linearGradient>
    <linearGradient id="linearGradient6206-6-6" y2="547.34" gradientUnits="userSpaceOnUse" x2="607.12" gradientTransform="matrix(.94016 0 0 .94016 -385.19 18.086)" y1="72.233" x1="766.23">
      <stop id="stop5652-1-5" stop-color="#2b2f36" offset="0"/>
      <stop id="stop5654-7-8" offset="1"/>
    </linearGradient>
    <filter id="filter6253-8-2" width="1.0372" y="-.5526" x="-.018606" height="2.1052" color-interpolation-filters="sRGB">
      <feGaussianBlur id="feGaussianBlur6255-8-4" stdDeviation="2.6581442"/>
    </filter>
    <linearGradient id="linearGradient50524" y2="428.59" xlink:href="#linearGradient3635-3-6" gradientUnits="userSpaceOnUse" x2="298.5" gradientTransform="matrix(.72984 0 0 .72984 12.412 -74.648)" y1="626.56" x1="298.5"/>
    <linearGradient id="linearGradient50527" y2="755.42" gradientUnits="userSpaceOnUse" x2="438.45" gradientTransform="matrix(.28953 0 0 .28953 225.91 278.41)" y1="719.01" x1="400.02">
      <stop id="stop3653-7-5" stop-color="#eee" offset="0"/>
      <stop id="stop3655-1-9" stop-color="#cccccf" offset="1"/>
    </linearGradient>
    <linearGradient id="linearGradient50530" y2="872.93" xlink:href="#linearGradient3635-3-6" gradientUnits="userSpaceOnUse" x2="392.03" gradientTransform="matrix(.28953 0 0 .28953 220.69 283.62)" y1="709.36" x1="399.43"/>
    <linearGradient id="linearGradient50533" y2="802.34" gradientUnits="userSpaceOnUse" x2="298.5" gradientTransform="matrix(.72984 0 0 .72984 12.412 -74.648)" y1="615.47" x1="298.5">
      <stop id="stop3647-6-5" stop-color="#016cb3" offset="0"/>
      <stop id="stop3649-1-9" stop-color="#8fd1fe" offset="1"/>
    </linearGradient>
    <linearGradient id="linearGradient55231" y2="140.5" spreadMethod="reflect" gradientUnits="userSpaceOnUse" x2="113.25" gradientTransform="translate(50,20)" y1="107.69" x1="93.882">
      <stop id="stop55227" stop-color="#fff" offset="0"/>
      <stop id="stop55235" stop-color="#333" offset=".51497"/>
      <stop id="stop55233" stop-color="#f2f2f2" offset=".69529"/>
      <stop id="stop55229" stop-color="#fff" stop-opacity="0" offset="1"/>
    </linearGradient>
  </defs>
  <text id="textdate" opacity="0" style="word-spacing:0;letter-spacing:0;enable-background:new" font-weight="bold" xml:space="preserve" transform="scale(2.2822 .43818)" line-height="125%" font-size="113.44px" y="1333.6373" x="36.916084" font-family="Arial Black">
    <tspan id="tspandate" y="1333.6373" x="36.916084"> A</tspan>
  </text>
  <rect id="rect6243" style="color:#000000" transform="matrix(.84555 0 0 .40425 65.719 407.78)" rx="108.2" ry="5.7723" height="11.545" filter="url(#filter6253-8-2)" width="342.87" y="720.39" x="23.391" fill="#a9a9a9"/>
  <path id="rect3405-2-7" d="m114.45 22.111c-34.85 0-62.903 28.053-62.903 62.903v554.55c0 34.85 28.053 62.903 62.903 62.903h45.95c1.7074-0.82501 3.8763-1.3221 6.2286-1.3221h125.75c2.3524 0 4.4918 0.49709 6.1992 1.3221h47.919c34.85 0 62.903-28.053 62.903-62.903v-554.55c0-34.85-28.053-62.903-62.903-62.903h-202.11c-4.2917 1.1545-9.251 1.8216-14.543 1.8216-5.2922 0-10.251-0.66707-14.543-1.8216h-0.85207z" style="color:#000000" fill="#e6e6e6"/>
  <rect id="rect3405-2-9-1-8-3-4-4" style="color:#000000" rx="42.93" ry="42.93" height="645.87" width="318.57" y="39.357" x="71.182" fill="url(#linearGradient6206-6-6)"/>
  <path id="rect3405-2-9-1-7" style="color:#000000" d="m113.74 24.843c-32.656 0-58.966 26.31-58.966 58.966v556.99c0 32.656 26.31 58.936 58.966 58.936h233.45c32.656 0 58.936-26.281 58.936-58.936v-556.99c0-32.656-26.281-58.966-58.936-58.966h-233.45zm3.0555 8.8434h227.34c31.8 0 57.409 25.609 57.409 57.409v542.39c0 31.8-25.609 57.409-57.409 57.409h-227.34c-31.8 0-57.409-25.609-57.409-57.409v-542.39c0-31.8 25.609-57.409 57.409-57.409z"/>
  <path id="rect3405-3" style="color:#000000" d="m116.3 24.344c-34.293 0-61.904 28.053-61.904 62.903v1.8803c0-34.85 27.611-62.903 61.904-62.903h228.34c34.293 0 61.904 28.053 61.904 62.903v-1.8803c0-34.85-27.611-62.903-61.904-62.903h-228.34z"/>
  <path id="rect3405-2-9-1-8" d="m113.69 35.038c-26.548 0-47.919 21.4-47.919 47.948v558.63c0 26.548 21.371 47.919 47.919 47.919h233.57c26.548 0 47.919-21.371 47.919-47.919v-558.63c0-26.548-21.371-47.948-47.919-47.948h-233.57zm0.44075 4.3189h232.69c23.783 0 42.924 19.141 42.924 42.924v560.01c0 23.783-19.141 42.924-42.924 42.924h-232.69c-23.783 0-42.954-19.141-42.954-42.924v-560.01c0-23.783 19.17-42.924 42.954-42.924z" style="color:#000000" fill="#e7ebee"/>
  <path id="rect3405-3-1" d="m116.3 26.224c-16.514 0-31.465 6.5203-42.542 17.158 10.478-6.7616 23.2-10.724 36.96-10.724h239.48c13.796 0 26.554 3.9879 37.048 10.782-11.09-10.671-26.06-17.216-42.61-17.216h-228.34z" style="color:#000000" fill="#f5f8fb"/>
  <path id="rect3405-3-1-0" d="m110.72 32.658c-17.493 0-33.305 6.4019-44.952 16.835-6.9021 9.654-10.988 21.492-10.988 34.316v64.078l1.7628-8.4908v-44.57c0-33.042 27.265-59.642 61.14-59.642h225.58c33.875 0 61.14 26.599 61.14 59.642v44.57l1.7334 8.344v-63.931c0-12.741-3.9909-24.52-10.812-34.14-11.66-10.528-27.54-17.011-45.12-17.011h-239.48z" style="color:#000000" fill="#2a2e34"/>
  <rect id="rect17587-8" height="451.28" width="300.85" y="138.65" x="80.192" fill="url(#linearGradient16026)"/>
  <path id="rect3405-3-0" d="m54.396 637.8v1.8803c0 34.85 27.611 62.903 61.904 62.903h43.864c1.7421-0.89501 4.0028-1.4396 6.4636-1.4396h125.75c2.461 0 4.6922 0.54461 6.4343 1.4396h45.833c34.293 0 61.904-28.053 61.904-62.903v-1.8803c0 34.85-27.611 62.903-61.904 62.903h-228.34c-34.293 0-61.904-28.053-61.904-62.903z" style="color:#000000" fill="#2e3336"/>
  <path id="rect3405-3-1-2" d="m116.3 700.7c-16.514 0-31.465-6.5203-42.542-17.158 10.478 6.7616 23.2 10.724 36.96 10.724h239.48c13.796 0 26.554-3.9879 37.048-10.782-11.083 10.672-26.058 17.217-42.601 17.217h-228.34z" style="color:#000000" fill="#dee1e4"/>
  <path id="rect3405-3-1-0-2" d="m110.72 694.27c-17.493 0-33.305-6.4019-44.952-16.835-6.9021-9.654-10.988-21.492-10.988-34.316v-64.078l1.7628 8.4908v44.57c0 33.042 27.265 59.642 61.14 59.642h225.58c33.875 0 61.14-26.599 61.14-59.642v-44.57l1.7334-8.344v63.931c0 12.741-3.9909 24.52-10.812 34.14-11.663 10.529-27.547 17.011-45.128 17.011h-239.48z" style="color:#000000" fill="#1e2325"/>
  <path id="rect3405-2-9-1-7-6" style="color:#000000" d="m226.15 11.714c-13.93 0.38744-26.668 5.3597-36.781 13.469-4.073 2.5435-7.3129 5.9385-9.875 10-8.2315 10.466-15.156 23.656-15.156 38.062v581.69c0 14.406 6.9248 27.596 15.156 38.062 2.5621 4.0615 5.802 7.4565 9.875 10 10.113 8.1091 22.852 13.081 36.781 13.469-8.0596-0.39491-16.629-3.5225-24.562-8.9062 2.3143 0.41876 4.7861 0.6724 7.4375 0.75-3.3995-0.18151-6.5189-0.92384-9.375-2.125-6.1162-4.5047-11.772-10.377-16.406-17.438-5.4264-11.75-11.969-28.24-11.969-48v-553.31c0-19.76 6.5424-36.25 11.969-48 4.6345-7.0609 10.29-12.933 16.406-17.438 2.8561-1.2012 5.9755-1.9435 9.375-2.125-2.6514 0.0776-5.1232 0.33124-7.4375 0.75 7.9332-5.3838 16.503-8.5113 24.562-8.9062zm254.09 0.59375c8.2118 1.2498 16.731 4.4037 24.281 10.062-3.2815-1.2231-6.992-2.0119-11.156-2.3438 6.0446 0.57431 11.166 2.4472 15.406 5.9062 1.7508 1.6351 3.4144 3.4409 5 5.4062 7.1012 10.088 14.562 27.675 14.562 56.094v553.31c0 28.419-7.4613 46.006-14.562 56.094-1.5856 1.9653-3.2492 3.7712-5 5.4062-4.2404 3.4591-9.3616 5.3319-15.406 5.9062 4.1642-0.33186 7.8747-1.1206 11.156-2.3438-7.5504 5.6588-16.069 8.8127-24.281 10.062 11.272-1.5516 21.56-6.1032 30-12.875 4.0236-2.5142 7.2362-5.8447 9.7812-9.8438 8.2894-10.487 15.219-23.75 15.219-38.219v-581.69c0-14.468-6.9294-27.731-15.219-38.219-2.545-3.9991-5.7576-7.3296-9.7812-9.8438-8.4398-6.7718-18.728-11.323-30-12.875z" transform="matrix(.94016 0 0 .94016 -98.403 20)" filter="url(#filter5644-9-4)" fill="#2a2e34"/>
  <path id="path5662" d="m229.39 660.2a34.898 34.898 0 1 1 -69.796 0 34.898 34.898 0 1 1 69.796 0z" style="color:#000000" fill="url(#linearGradient6154-7-3)" transform="matrix(.94016 0 0 .94016 47.286 18.086)"/>
  <path id="path5662-4" d="m261.8 638.78c0-17.485-14.174-31.659-31.659-31.659-17.484 0-31.658 14.174-31.658 31.659 0 3.0263 0.42457 5.9534 1.2175 8.725 24.242 9.3388 42.242 9.153 60.896-0.0493 0.78391-2.757 1.2035-5.6674 1.2035-8.6757z" style="color:#000000" fill="#070707"/>
  <path id="rect5742" d="m223.8 626.69c-2.7637 0-4.9946 2.2309-4.9946 4.9946v13.045c0 2.7637 2.2309 4.9946 4.9946 4.9946h13.045c2.7637 0 4.9946-2.2309 4.9946-4.9946v-13.045c0-2.7637-2.2309-4.9946-4.9946-4.9946h-13.045zm0.44075 1.9097h12.163c1.9488 0 3.5256 1.5769 3.5256 3.5256v12.163c0 1.9488-1.5768 3.4962-3.5256 3.4962h-12.163c-1.9488 0-3.4963-1.5475-3.4963-3.4962v-12.163c0-1.9488 1.5475-3.5256 3.4963-3.5256z" style="color:#000000" fill="#ccced1"/>
  <rect id="rect5772" style="color:#000000" rx="7.0992" ry="6.2852" height="12.57" width="64.852" y="81.445" x="198.19" fill="url(#linearGradient6187-9-3)"/>
  <rect id="rect5782" style="color:#000000" rx="3.6455" ry="3.6455" height="7.2911" width="58.712" y="84.085" x="201.26" fill="url(#linearGradient6184-3-1)"/>
  <rect id="rect5788" style="color:#000000" rx="2.3504" ry="2.3504" height="4.7008" width="57.273" y="85.716" x="201.98" fill="#343434"/>
  <path id="rect5828" d="m292.11 20h56.602c0.74405 0 1.343 0.59901 1.343 1.3431v1.535h-59.288v-1.535c0-0.74408 0.59908-1.3431 1.3431-1.3431z" style="color:#000000" fill="url(#linearGradient6180-3-1)"/>
  <path id="rect5897" d="m50.814 90.15h1.2402v29.848h-1.2402c-0.45091 0-0.814-0.36307-0.814-0.81404v-28.226c0-0.45098 0.36309-0.81403 0.814-0.81403z" style="color:#000000" fill="url(#linearGradient6177-1-1)"/>
  <path id="rect5897-5" d="m50.814 142.8h1.2402v43.624h-1.2402c-0.45091 0-0.814-7.8844-0.814-8.3354v-34.475c0-0.45098 0.36309-0.81403 0.814-0.81403z" style="color:#000000" fill="url(#linearGradient6174-5-6)"/>
  <path id="rect5897-5-3" d="m50.814 261.64h1.2402v-43.624h-1.2402c-0.45091 0-0.814 7.8844-0.814 8.3354v34.475c0 0.45097 0.36309 0.81403 0.814 0.81403z" style="color:#000000" fill="url(#linearGradient6171-5-0)"/>
  <path id="rect3405-3-1-2-3" style="color:#000000" d="m228.37 724.03c-17.565 0-33.468-6.9353-45.25-18.25 11.145 7.192 24.677 14.59 39.312 14.59h254.72c14.674 0 28.244-7.4254 39.406-14.652-11.788 11.351-27.716 18.312-45.312 18.312h-242.88z" transform="matrix(.94016 0 0 .94016 -98.403 20)" filter="url(#filter6058-8-0)" fill="#3e4246"/>
  <path id="rect3405-3-1-2-3-0" d="m116.3 700.7c-16.514 0-31.465-6.5203-42.542-17.158 10.478 6.7616 23.2 15.597 36.96 15.597h239.48c13.796 0 26.554-8.8614 37.048-15.656-11.083 10.672-26.058 17.217-42.601 17.217h-228.34z" style="color:#000000" fill="#3e4246"/>
  <rect id="rect5784" style="color:#000000" rx=".19187" ry=".19187" height="4.6049" width=".38374" y="85.62" x="201.93" fill="#2d2d2d"/>
  <rect id="rect3686" height="453.52" width="305.32" y="135.93" x="77.834" fill="#162d50"/>
  <rect id="rect3690" height="27.172" width="307.79" y="134.7" x="76.598" fill="url(#linearGradient3865)"/>
  <rect id="rect3720" opacity=".6318" rx="6.5544" height="14.769" width="308" y="134.59" x="76.492" fill="url(#linearGradient3858)"/>
  <rect id="rect3993" height="17.473" width="3.1548" y="138.81" x="274.96" fill="#aaa"/>
  <rect id="rect3995" height="15.289" width="3.1548" y="141" x="269.39" fill="#eee"/>
  <rect id="rect3997" height="13.105" width="3.1548" y="143.18" x="263.83" fill="#eee"/>
  <rect id="rect3999" height="7.9912" width="3.1548" y="148.3" x="258.26" fill="#eee"/>
  <path id="rect4001" d="m225.29 141.17v4.2312h-2.8915v7.3232h2.8915v4.2638h27.799v-15.818h-27.799z" fill="#eee"/>
  <path id="path4014" d="m226.59 142.72v3.4024h-2.6434v5.8888h2.6434v3.4286h25.413v-12.72h-25.413z" fill="#565248"/>
  <path id="path4018" d="m227.28 143.93v2.7187h-2.4756v4.7053h2.4756v2.7396h23.8v-10.164h-23.8z" fill="url(#linearGradient4013)"/>
  <path id="path20250" d="m414.29 396.65a70 70 0 1 1 -140 0 70 70 0 1 1 140 0z" fill="#eee" transform="matrix(.027384 0 0 .024775 196.03 146.05)"/>
  <path id="path20252" d="m205.85 143.86c-3.4854 0-6.5714 1.1988-8.4672 3.0415l1.5716 2.1917c1.3797-1.6679 3.9505-2.7893 6.8956-2.7893 2.7267 0 5.133 0.962 6.5702 2.4283l1.6293-2.0806c-1.9118-1.7008-4.8741-2.7916-8.1996-2.7916z" fill="#eee"/>
  <path id="path20254" d="m205.57 149.34c-1.9825 0-3.7923 0.66761-5.1692 1.7662l1.3273 1.8518c1.0375-0.79035 2.3777-1.2675 3.8419-1.2675 1.3745 0 2.6394 0.41998 3.6479 1.1253l1.4084-1.7996c-1.3625-1.0458-3.1275-1.6762-5.0563-1.6762z" fill="#eee"/>
  <path id="path20256" d="m205.81 138.42c-4.5807 0-8.6954 1.6041-11.53 4.1523l1.4894 2.0762c2.0942-2.1934 5.7763-3.6502 9.9713-3.6502 4.1627 0 7.8217 1.434 9.9247 3.5991l1.6232-2.0717c-2.8332-2.5213-6.926-4.1057-11.479-4.1057z" fill="#eee"/>
  <path id="path2939" d="m112.49 238.52c-10.108 0-18.246 8.1376-18.246 18.246v235.55c0 10.108 8.1376 18.246 18.246 18.246h226.04l27.761-27.761v-226.04c0-10.108-8.1377-18.246-18.246-18.246z" fill="url(#linearGradient50533)"/>
  <path id="path2941" d="m341.44 488.9c-4.01 0-7.2382 3.2283-7.2382 7.2382v14.431h5.2115l21.669-21.669h-19.643z" fill="url(#linearGradient50530)"/>
  <path id="path2943" d="m339.41 510.57 26.881-26.881h-19.643c-4.01 0-7.2382 3.2282-7.2382 7.2382v19.643z" fill="url(#linearGradient50527)"/>
  <path id="path2945" d="m112.49 238.52c-10.108 0-18.246 8.1376-18.246 18.246v85.231c33.31 24.688 82.221 40.278 136.75 40.278 53.741 0 102.02-15.137 135.29-39.206v-86.303c0-10.108-8.1377-18.246-18.246-18.246h-235.55z" fill="url(#linearGradient50524)"/>
  <rect id="rect3986" rx="11.142" ry="9.7207" height="19.441" width="82.013" stroke="url(#linearGradient55231)" y="140.63" x="88.632" stroke-width="2" fill="#333"/>
  <path id="rect3802" opacity=".45188" d="m154.47 136.88 95.449 541.36h119.82c7.2623 0 13.109-5.8466 13.109-13.109v-515.14c0-7.2623-5.8466-13.109-13.109-13.109h-215.27z" fill="url(#linearGradient3711)"/>
  <text id="textheure" style="word-spacing:0;letter-spacing:0" xml:space="preserve" font-size="18.91px" line-height="125%" y="155.84682" x="282.50568" font-family="Arial Black" fill="#ffffff">
    <tspan id="tspanheure" y="155.84682" x="282.50568">00:00:00</tspan>
  </text>
  <g id="text50535" transform="translate(50,20)" fill="#fff">
    <path id="path55238" d="m61.363 164.22v10.667h5.9144v7.8419h-5.9144v9.9542c-0.000016 1.197 0.1144 1.9891 0.34325 2.3763 0.35203 0.59849 0.96812 0.89773 1.8483 0.89773 0.79209 0 1.901-0.22883 3.3269-0.6865l0.79211 7.4194c-2.658 0.58088-5.1399 0.87132-7.4458 0.87132-2.6756 0-4.6471-0.34325-5.9144-1.0297-1.2674-0.6865-2.2091-1.725-2.8252-3.1156-0.59849-1.4082-0.89773-3.6789-0.89773-6.8122v-9.875h-3.9606v-7.8419h3.9606v-5.1487l10.773-5.5184"/>
    <path id="path55240" d="m72.769 164.22h10.746v7.3138h-10.746v-7.3138m0 10.667h10.746v28.041h-10.746v-28.041"/>
    <path id="path55242" d="m111.35 191.97 10.218 1.1618c-0.56331 2.1299-1.4874 3.9782-2.7724 5.5448-1.285 1.549-2.9308 2.7548-4.9375 3.6173-1.9891 0.86252-4.5239 1.2938-7.6043 1.2938-2.9748 0-5.4568-0.27283-7.4458-0.81851-1.9715-0.56328-3.6701-1.461-5.0959-2.6932-1.4258-1.2498-2.5436-2.7108-3.3533-4.383-0.80972-1.6722-1.2146-3.8901-1.2146-6.6537-0.000002-2.8868 0.49287-5.2895 1.4786-7.2082 0.7217-1.4082 1.7074-2.6668 2.9572-3.7757 1.2498-1.1265 2.5347-1.9626 3.8549-2.5084 2.0947-0.8625 4.7791-1.2938 8.0531-1.2938 4.5766 0.00002 8.0619 0.81854 10.456 2.4555 2.4115 1.637 4.1013 4.031 5.0695 7.1818l-10.113 1.3466c-0.31686-1.1969-0.89774-2.0947-1.7426-2.6932-0.82734-0.61607-1.9451-0.92411-3.3533-0.92413-1.7779 0.00002-3.2213 0.64251-4.3302 1.9275-1.0914 1.2674-1.637 3.1949-1.637 5.7824-0.000013 2.3059 0.54567 4.0574 1.637 5.2543 1.0913 1.197 2.4819 1.7955 4.1718 1.7954 1.4082 0.00001 2.5875-0.36084 3.5381-1.0826 0.96812-0.72169 1.6898-1.8306 2.1651-3.3269"/>
    <path id="path55244" d="m139.52 164.22v10.667h5.9144v7.8419h-5.9144v9.9542c-0.00002 1.197 0.1144 1.9891 0.34324 2.3763 0.35204 0.59849 0.96812 0.89773 1.8483 0.89773 0.79209 0 1.901-0.22883 3.3269-0.6865l0.79211 7.4194c-2.658 0.58088-5.1399 0.87132-7.4458 0.87132-2.6756 0-4.6471-0.34325-5.9144-1.0297-1.2674-0.6865-2.2091-1.725-2.8252-3.1156-0.59849-1.4082-0.89773-3.6789-0.89772-6.8122v-9.875h-3.9606v-7.8419h3.9606v-5.1487l10.773-5.5184"/>
    <path id="path55246" d="m160.32 183.97-10.271-1.0826c0.38725-1.7954 0.94173-3.2036 1.6634-4.2246 0.7393-1.0385 1.7954-1.9362 3.1684-2.6932 0.98573-0.54565 2.3411-0.96811 4.0662-1.2674 1.725-0.29922 3.5909-0.44884 5.5976-0.44886 3.2212 0.00002 5.8088 0.18485 7.7627 0.55447 1.9538 0.35208 3.5821 1.1002 4.8847 2.2443 0.9153 0.79213 1.637 1.9187 2.1651 3.3797 0.52805 1.4434 0.79208 2.8252 0.79212 4.1454v12.383c-0.00004 1.3202 0.0792 2.3587 0.23763 3.1156 0.17599 0.73931 0.54564 1.6898 1.109 2.8516h-10.086c-0.40488-0.7217-0.66892-1.2674-0.79211-1.637-0.12324-0.38725-0.24646-0.98573-0.36965-1.7954-1.4082 1.3554-2.8076 2.3235-4.1982 2.9044-1.9011 0.77451-4.1102 1.1618-6.6273 1.1618-3.3445 0-5.888-0.77451-7.6307-2.3235-1.725-1.549-2.5876-3.4589-2.5876-5.7296 0-2.1299 0.62489-3.8813 1.8747-5.2543s3.5557-2.3939 6.9178-3.0628c4.031-0.8097 6.6449-1.373 7.8419-1.6898 1.197-0.33443 2.4643-0.76569 3.8021-1.2938-0.00002-1.3202-0.27286-2.2443-0.81851-2.7724-0.5457-0.52805-1.505-0.79209-2.878-0.79211-1.7603 0.00002-3.0804 0.28166-3.9606 0.84492-0.68651 0.44008-1.241 1.2674-1.6634 2.482m9.3205 5.6504c-1.4786 0.52808-3.0188 0.99455-4.6206 1.3994-2.1827 0.5809-3.5645 1.153-4.1454 1.7162-0.5985 0.5809-0.89774 1.241-0.89773 1.9803-0.00001 0.84493 0.29043 1.5402 0.87132 2.0859 0.59847 0.52808 1.4698 0.79212 2.614 0.79211 1.197 0.00001 2.3059-0.29043 3.3269-0.87132 1.0385-0.58087 1.769-1.285 2.1915-2.1123 0.44004-0.84491 0.66007-1.9363 0.66009-3.2741v-1.7162"/>
    <path id="path55248" d="m207.56 191.97 10.218 1.1618c-0.56331 2.1299-1.4874 3.9782-2.7724 5.5448-1.285 1.549-2.9308 2.7548-4.9375 3.6173-1.9891 0.86252-4.5239 1.2938-7.6043 1.2938-2.9748 0-5.4568-0.27283-7.4458-0.81851-1.9715-0.56328-3.6701-1.461-5.0959-2.6932-1.4258-1.2498-2.5436-2.7108-3.3533-4.383-0.80972-1.6722-1.2146-3.8901-1.2146-6.6537-0.00001-2.8868 0.49286-5.2895 1.4786-7.2082 0.7217-1.4082 1.7074-2.6668 2.9572-3.7757 1.2498-1.1265 2.5347-1.9626 3.8549-2.5084 2.0947-0.8625 4.779-1.2938 8.0531-1.2938 4.5766 0.00002 8.0619 0.81854 10.456 2.4555 2.4115 1.637 4.1013 4.031 5.0695 7.1818l-10.113 1.3466c-0.31686-1.1969-0.89774-2.0947-1.7426-2.6932-0.82734-0.61607-1.9451-0.92411-3.3533-0.92413-1.7779 0.00002-3.2213 0.64251-4.3302 1.9275-1.0914 1.2674-1.637 3.1949-1.637 5.7824-0.00001 2.3059 0.54567 4.0574 1.637 5.2543 1.0913 1.197 2.4819 1.7955 4.1718 1.7954 1.4082 0.00001 2.5875-0.36084 3.5381-1.0826 0.96812-0.72169 1.6898-1.8306 2.1651-3.3269"/>
    <path id="path55250" d="m235.73 164.22v10.667h5.9144v7.8419h-5.9144v9.9542c-0.00002 1.197 0.1144 1.9891 0.34325 2.3763 0.35203 0.59849 0.96811 0.89773 1.8483 0.89773 0.79209 0 1.901-0.22883 3.3269-0.6865l0.79211 7.4194c-2.658 0.58088-5.1399 0.87132-7.4458 0.87132-2.6756 0-4.6471-0.34325-5.9144-1.0297-1.2674-0.6865-2.2091-1.725-2.8252-3.1156-0.59848-1.4082-0.89773-3.6789-0.89772-6.8122v-9.875h-3.9606v-7.8419h3.9606v-5.1487l10.773-5.5184"/>
    <path id="path55252" d="m245.42 188.98c0-4.2774 1.4434-7.7979 4.3302-10.561 2.8868-2.7812 6.7857-4.1718 11.697-4.1718 5.6152 0.00002 9.8574 1.6282 12.727 4.8847 2.3059 2.6228 3.4588 5.8528 3.4589 9.6902-0.00003 4.3126-1.4346 7.8507-4.3038 10.614-2.8516 2.746-6.8034 4.119-11.855 4.119-4.5062 0-8.15-1.1442-10.931-3.4325-3.4149-2.834-5.1223-6.5481-5.1223-11.142m10.773-0.0264c-0.00001 2.4996 0.50166 4.3478 1.505 5.5448 1.0209 1.197 2.2971 1.7955 3.8285 1.7954 1.549 0.00001 2.8164-0.58967 3.8021-1.769 1.0033-1.1794 1.505-3.0716 1.505-5.6768-0.00002-2.4291-0.50169-4.2334-1.505-5.4128-1.0034-1.1969-2.2443-1.7954-3.7229-1.7954-1.5666 0.00002-2.8604 0.60731-3.8814 1.8219-1.021 1.197-1.5314 3.0276-1.5314 5.492"/>
    <path id="path55254" d="m313.99 191.57h-21.545c0.19361 1.725 0.66008 3.01 1.3994 3.8549 1.0385 1.2146 2.3939 1.8219 4.0662 1.8219 1.0561 0 2.0595-0.26403 3.01-0.79211 0.58085-0.33444 1.2057-0.92413 1.8747-1.769l10.588 0.97693c-1.6195 2.8164-3.5733 4.8407-5.8616 6.0729-2.2884 1.2146-5.5712 1.8218-9.8486 1.8218-3.7141 0-6.6361-0.51927-8.766-1.5578-2.1299-1.0561-3.899-2.7196-5.3071-4.9903-1.3906-2.2883-2.0859-4.9727-2.0859-8.0531-0.00001-4.383 1.3994-7.9299 4.1982-10.641 2.8164-2.7108 6.6977-4.0661 11.644-4.0662 4.0133 0.00002 7.1818 0.60731 9.5053 1.8218 2.3235 1.2146 4.0925 2.9748 5.3071 5.2807 1.2145 2.3059 1.8218 5.3072 1.8219 9.0037v1.2146m-10.931-5.1487c-0.21125-2.0771-0.77453-3.5645-1.6898-4.4622-0.89775-0.89771-2.0859-1.3466-3.5645-1.3466-1.7075 0.00002-3.0716 0.67771-4.0926 2.0331-0.65131 0.84494-1.065 2.1035-1.241 3.7757h10.588"/>
  </g>
  <symbol id="zrect" transform="translate(50,20)">
    <rect id="rect14185" height="100" width="100" stroke="#000" y="0" x="0" fill="#fff"/>
    <line id="line14186" x2="100" stroke="#555" y2="100"/>
    <line id="line14187" x2="0" stroke="#999" x1="100" y2="100"/>
  </symbol>
  <symbol id="s1" stroke="#000" transform="translate(50,20)">
    <rect id="rect54688" height="100" width="100" y="0" x="0" fill="#fff"/>
    <path id="path54690" d="m17.661-0.72604c-4.6909 0-8.5 3.8091-8.5 8.5s3.8091 8.5 8.5 8.5 8.5-3.8091 8.5-8.5-3.8091-8.5-8.5-8.5zm0 3.5312c2.746 0 4.9688 2.2228 4.9688 4.9688s-2.2228 4.9688-4.9688 4.9688-4.9688-2.2228-4.9688-4.9688 2.2228-4.9688 4.9688-4.9688z" stroke-width=".3px" fill="#f60" transform="matrix(4,0,0,4,-20,20)"/>
  </symbol>
  <symbol id="s2" stroke="#000" transform="translate(50,20)">
    <rect id="rect54693" height="100" width="100" y="0" x="0" fill="#fff"/>
    <path id="path54695" d="m11.288 3.4932 4.2808 4.2808-4.2808 4.2808 2.0928 2.0928 4.2808-4.2808 4.2808 4.2808 2.0928-2.0928-4.2808-4.2808 4.2808-4.2808-2.0928-2.0928-4.2808 4.2808-4.2808-4.2808-2.0928 2.0928z" stroke-width=".3px" fill="#55d400" transform="matrix(5,0,0,5,-40,10)"/>
  </symbol>
  <g id="gameBoard" opacity=".6" style="color:#000000" transform="matrix(.67694 0 0 .67694 147.19 235.62)" stroke="#fff" stroke-width=".77427" fill="none">
    <use id="f11" style="color:#000000" xlink:href="#zrect" transform="translate(-50,-20)" height="686.24884" width="360.88083" y="70" x="20"/>
    <use id="f12" style="color:#000000" xlink:href="#zrect" transform="translate(-50,-20)" height="686.24884" width="360.88083" y="70" x="120"/>
    <use id="f13" style="color:#000000" xlink:href="#zrect" transform="translate(-50,-20)" height="686.24884" width="360.88083" y="70" x="220"/>
    <use id="f21" style="color:#000000" xlink:href="#zrect" transform="translate(-50,-20)" height="686.24884" width="360.88083" y="170" x="20"/>
    <use id="f22" style="color:#000000" xlink:href="#zrect" transform="translate(-50,-20)" height="686.24884" width="360.88083" y="170" x="120"/>
    <use id="f23" style="color:#000000" xlink:href="#zrect" transform="translate(-50,-20)" height="686.24884" width="360.88083" y="170" x="220"/>
    <use id="f31" style="color:#000000" xlink:href="#zrect" transform="translate(-50,-20)" height="686.24884" width="360.88083" y="270" x="20"/>
    <use id="f32" style="color:#000000" xlink:href="#zrect" transform="translate(-50,-20)" height="686.24884" width="360.88083" y="270" x="120"/>
    <use id="f33" style="color:#000000" xlink:href="#zrect" transform="translate(-50,-20)" height="686.24884" width="360.88083" y="270" x="220"/>
  </g>
  <a id="a15141" xlink:href="" transform="translate(-151.41 100.36)" cursor="pointer" onclick="return false" fill="#fff">
    <text id="text2151" font-size="14px" onclick="tictactoe.newGame()" y="55" x="245" fill="#ffffff">
      <tspan id="tspan15421" font-weight="bold" font-family="Arial">New Game</tspan>
    </text>
  </a>
  <text id="info" font-size="14.963px" line-height="125%" y="566.11414" x="93.377785" font-family="Arial Black" fill="#55d400">Gamer 1 : GO!</text>
  <text id="text54952" style="text-anchor:middle;text-align:center" font-size="28.892px" line-height="125%" y="571.56677" x="320.83386" font-family="Arial Black">
    <tspan id="sp1" style="text-anchor:middle;text-align:center" line-height="125%" fill="#ff6600">0
   <tspan id="tspan55968" style="text-anchor:middle;text-align:center" font-size="28.892px" line-height="125%" font-family="Arial Black" fill="#aa8800">-</tspan>
  </tspan>
    <tspan id="sp2" style="text-anchor:middle;text-align:center" line-height="125%" fill="#55d400">0</tspan>
  </text>
  <metadata>
    <rdf:RDF>
      <cc:Work>
        <dc:format>image/svg+xml</dc:format>
        <dc:type rdf:resource="http://purl.org/dc/dcmitype/StillImage"/>
        <cc:license rdf:resource="http://creativecommons.org/licenses/publicdomain/"/>
        <dc:publisher>
          <cc:Agent rdf:about="http://openclipart.org/">
            <dc:title>Openclipart</dc:title>
          </cc:Agent>
        </dc:publisher>
        <dc:title>Javascript Phone Tictactoe Game</dc:title>
        <dc:date>2010-09-05T09:59:01</dc:date>
        <dc:description>Javascript Alive Phone with Tictactoe Game &amp; Clock</dc:description>
        <dc:source>http://openclipart.org/detail/83563/javascript-phone-tictactoe-game-by-filtre</dc:source>
        <dc:creator>
          <cc:Agent>
            <dc:title>filtre</dc:title>
          </cc:Agent>
        </dc:creator>
        <dc:subject>
          <rdf:Bag>
            <rdf:li>Clock</rdf:li>
            <rdf:li>Ecmascript</rdf:li>
            <rdf:li>Game</rdf:li>
            <rdf:li>Javascript</rdf:li>
            <rdf:li>Phone</rdf:li>
            <rdf:li>Tictactoe</rdf:li>
            <rdf:li>Time</rdf:li>
            <rdf:li>animation</rdf:li>
            <rdf:li>clip art</rdf:li>
            <rdf:li>clipart</rdf:li>
            <rdf:li>play</rdf:li>
            <rdf:li>svg</rdf:li>
            <rdf:li>technology</rdf:li>
          </rdf:Bag>
        </dc:subject>
      </cc:Work>
      <cc:License rdf:about="http://creativecommons.org/licenses/publicdomain/">
        <cc:permits rdf:resource="http://creativecommons.org/ns#Reproduction"/>
        <cc:permits rdf:resource="http://creativecommons.org/ns#Distribution"/>
        <cc:permits rdf:resource="http://creativecommons.org/ns#DerivativeWorks"/>
      </cc:License>
    </rdf:RDF>
  </metadata>
</svg>
