<?xml version="1.0" encoding="UTF-8" standalone="no"?>
<!-- Created with Inkscape (http://www.inkscape.org/) -->

<svg
   xmlns:dc="http://purl.org/dc/elements/1.1/"
   xmlns:cc="http://creativecommons.org/ns#"
   xmlns:rdf="http://www.w3.org/1999/02/22-rdf-syntax-ns#"
   xmlns:svg="http://www.w3.org/2000/svg"
   xmlns="http://www.w3.org/2000/svg"
   xmlns:sodipodi="http://sodipodi.sourceforge.net/DTD/sodipodi-0.dtd"
   xmlns:inkscape="http://www.inkscape.org/namespaces/inkscape"
   width="149.50305mm"
   height="294.8671mm"
   viewBox="0 0 149.50305 294.8671"
   version="1.1"
   id="svg8"
   inkscape:version="0.92.3 (2405546, 2018-03-11)"
   sodipodi:docname="Alien boxer.svg">
  <title
     id="title107">Alien Boxer</title>
  <defs
     id="defs2" />
  <sodipodi:namedview
     id="base"
     pagecolor="#ffffff"
     bordercolor="#666666"
     borderopacity="1.0"
     inkscape:pageopacity="0.0"
     inkscape:pageshadow="2"
     inkscape:zoom="0.48261719"
     inkscape:cx="361.312"
     inkscape:cy="410.79362"
     inkscape:document-units="mm"
     inkscape:current-layer="layer1"
     showgrid="false"
     fit-margin-top="0"
     fit-margin-left="0"
     fit-margin-right="0"
     fit-margin-bottom="0"
     inkscape:window-width="1600"
     inkscape:window-height="845"
     inkscape:window-x="0"
     inkscape:window-y="27"
     inkscape:window-maximized="1" />
  <metadata
     id="metadata5">
    <rdf:RDF>
      <cc:Work
         rdf:about="">
        <dc:format>image/svg+xml</dc:format>
        <dc:type
           rdf:resource="http://purl.org/dc/dcmitype/StillImage" />
        <dc:title>Alien Boxer</dc:title>
        <dc:date>2021</dc:date>
        <dc:creator>
          <cc:Agent>
            <dc:title>Doodleguy</dc:title>
          </cc:Agent>
        </dc:creator>
        <dc:rights>
          <cc:Agent>
            <dc:title>public domain</dc:title>
          </cc:Agent>
        </dc:rights>
        <cc:license
           rdf:resource="http://creativecommons.org/publicdomain/zero/1.0/" />
      </cc:Work>
      <cc:License
         rdf:about="http://creativecommons.org/publicdomain/zero/1.0/">
        <cc:permits
           rdf:resource="http://creativecommons.org/ns#Reproduction" />
        <cc:permits
           rdf:resource="http://creativecommons.org/ns#Distribution" />
        <cc:permits
           rdf:resource="http://creativecommons.org/ns#DerivativeWorks" />
      </cc:License>
    </rdf:RDF>
  </metadata>
  <g
     inkscape:groupmode="layer"
     id="layer2"
     inkscape:label="bund"
     transform="translate(-0.25203271,-1.0767793)" />
  <g
     inkscape:label="Layer 1"
     inkscape:groupmode="layer"
     id="layer1"
     transform="translate(-0.25203271,-1.0767793)">
    <g
       id="g105"
       transform="rotate(90,75.003559,148.51032)">
      <path
         transform="scale(0.26458333)"
         inkscape:connector-curvature="0"
         id="path52"
         d="m 814.53859,488.89232 c -5.21656,-0.19143 -8.40099,4.81411 -9.81105,9.20298 -2.67584,8.23124 1.63398,16.40034 3.45699,24.30085 3.2901,10.92951 -0.27977,22.48393 -5.2229,32.33866 -5.13597,10.15013 -11.49538,20.2015 -20.78865,27.02533 -3.40762,2.478 -7.65855,3.80622 -11.88363,3.07521 -9.65772,-1.80361 -19.08211,-4.8259 -28.53919,-7.49864 -19.00143,-5.98879 -37.35583,-13.85211 -56.26742,-20.12093 -11.94327,-4.31093 -24.25784,-7.49404 -36.19574,-11.79753 -12.02985,-4.25953 -21.66617,-13.85059 -34.41921,-16.2791 -11.35897,-2.72142 -21.73597,-8.38542 -32.98388,-11.52794 -13.81784,-4.20397 -27.86079,-7.62271 -41.72688,-11.66274 -14.30297,-3.74357 -28.60208,-7.67001 -43.18191,-10.18682 -6.67738,-1.15571 -12.82207,2.5246 -18.7405,5.01953 -7.80489,3.88046 -15.79631,7.80749 -22.37671,13.61249 -8.31939,8.96101 -15.54921,18.90944 -22.21763,29.14275 -5.10679,8.34635 -7.13972,18.10791 -9.50631,27.48329 -3.62578,16.2996 -5.83459,33.04978 -5.18335,49.77037 0.19583,5.75162 3.03491,11.18909 6.75669,15.4499 3.75473,3.41072 9.31941,2.76201 14.00819,3.09926 12.08317,-0.0579 24.22333,0.23347 36.25399,-1.05618 7.04431,-1.40282 14.21055,-1.8613 21.33401,-2.70114 14.24729,-2.16959 27.71309,-7.60801 41.51426,-11.53806 12.70839,-3.86576 25.6246,-7.00498 38.40797,-10.59157 6.92602,-2.17177 12.37004,-7.3965 19.24012,-9.67014 7.21817,-3.39004 14.89266,-7.76403 23.13478,-6.61535 2.46603,4.01296 4.23907,8.52094 7.36653,12.14186 6.94173,8.30354 15.20502,16.26408 25.65802,19.81029 12.27045,3.27706 25.06589,4.16094 37.72261,4.40417 5.70386,0.24651 11.54068,-0.88329 16.28192,-4.20886 8.47176,-5.8244 18.27625,-10.38046 28.74928,-10.33618 9.76531,0.0353 20.59339,2.6341 26.95934,10.59086 5.69941,7.23315 6.14033,16.81004 7.90738,25.47988 1.38443,6.28205 6.19065,11.29688 11.52017,14.5771 2.7009,1.56654 6.51311,1.05924 8.15276,-1.78207 4.23345,-6.68162 3.16682,-14.95724 3.61885,-22.47582 0.30534,-4.13615 -0.28709,-8.46759 0.80664,-12.48175 1.66881,-4.60931 7.10331,-5.34261 11.1954,-6.50519 8.58622,-2.16695 18.43862,-3.51846 24.5105,-10.69244 3.29571,-3.91871 5.25484,-8.86872 6.51091,-13.77013 -0.28655,-1.84676 -2.87162,-0.97348 -3.96906,-0.4364 -3.36552,1.24779 -5.38761,4.64778 -8.72867,5.83127 -1.6677,-0.0265 -0.31706,-2.14645 0.0959,-2.86663 1.85331,-2.83739 3.72291,-5.69303 5.00854,-8.82953 1.77188,-0.99173 4.05162,-1.26476 5.43923,-2.9811 3.40889,-3.28997 6.9562,-8.31931 4.63654,-13.20495 -0.89231,-2.90665 -4.36835,-3.47679 -6.91653,-2.6284 -5.28909,1.39483 -6.17854,7.8009 -10.24602,10.69817 -1.66401,0.44349 -0.77041,-1.97172 -0.57306,-2.76933 1.24498,-3.3713 2.31974,-7.22241 5.14235,-9.62149 3.87107,-2.20078 7.03474,-5.62243 9.5256,-9.28096 2.59588,-4.63675 3.27348,-10.82877 0.49434,-15.52143 -2.24354,-3.32859 -7.0396,-2.15514 -9.46765,0.32122 -2.86199,2.15075 -3.76943,5.86415 -6.37714,8.19496 -0.86312,0.93662 -3.69258,1.48875 -3.5112,-0.44426 1.45427,-4.1052 4.40776,-7.65548 7.6627,-10.48928 5.91833,-3.86546 7.48395,-11.43431 7.20198,-18.04753 0.17703,-2.15481 -0.98934,-5.25821 -3.64569,-4.78607 -3.45549,0.58349 -3.91536,4.76715 -4.90624,7.46169 -1.66115,4.89194 -1.82759,10.52674 -4.83903,14.81604 -1.09428,1.11182 -1.50537,-1.24897 -1.48302,-1.93302 -0.94466,-10.19482 4.74991,-19.23253 8.44212,-28.31084 2.59174,-5.74911 -0.19186,-11.91911 -1.98898,-17.44526 -1.50463,-3.50127 -2.43695,-7.79515 -5.68192,-10.1464 -1.01359,-0.55736 -2.20637,-0.61807 -3.3374,-0.60667 z"
         style="opacity:1;vector-effect:none;fill:#44aa00;fill-opacity:1;stroke:none;stroke-width:1.05906153;stroke-linecap:round;stroke-linejoin:miter;stroke-miterlimit:4;stroke-dasharray:none;stroke-dashoffset:0;stroke-opacity:1" />
      <path
         transform="scale(0.26458333)"
         inkscape:connector-curvature="0"
         id="path54"
         d="m 462.48042,375.48338 c -2.66339,-0.23525 -3.69188,2.55116 -4.5464,4.54211 -0.87604,1.28404 -2.17634,2.27593 -2.39804,3.95333 -2.56781,8.65825 -1.63388,17.82773 0.25124,26.51744 4.08076,19.40536 9.12575,38.92345 18.55104,56.50179 4.09551,7.89065 9.8178,14.75422 14.70159,22.12034 1.36193,3.17556 5.4025,2.98291 8.19835,3.95177 27.79532,5.72639 55.13132,13.42298 82.57867,20.59792 10.5277,2.71231 20.75906,6.38459 30.93122,10.19013 6.69933,2.30487 14.04533,0.72455 20.2325,-2.32837 3.55091,-1.28094 7.27666,-4.25272 11.19752,-2.64843 10.92893,2.03802 22.13838,2.18747 33.22525,1.97323 11.63011,-0.45709 23.21683,-3.6722 33.06972,-9.95789 7.27729,-4.30325 16.21309,-4.85935 24.36408,-3.36669 7.66828,2.04986 13.11377,8.37458 18.81374,13.48177 5.96939,5.50595 11.37054,11.72468 17.96096,16.51018 3.51407,1.77423 7.62548,0.011 10.79547,-1.74702 4.26119,-2.98657 5.09562,-8.60209 5.9486,-13.36521 1.18939,-8.25616 -1.0546,-16.76293 -5.65,-23.6529 -2.69951,-3.95788 -0.89259,-8.80406 0.77213,-12.76868 2.76366,-7.0533 6.48414,-13.88466 7.78599,-21.41036 0.2935,-5.62413 0.79642,-11.22781 1.3672,-16.82597 0.31676,-18.0196 0.37646,-36.09853 -1.23199,-54.06356 -0.23804,-3.7655 -1.15316,-8.55281 -5.29758,-9.83325 -3.35833,-1.00739 -6.49963,2.20663 -7.31072,5.21173 -0.88773,6.40806 -0.16523,12.97592 -1.19473,19.34242 -0.28075,0.75224 -1.08325,0.85127 -1.17613,-0.12806 -1.74641,-6.53211 -1.31451,-13.47793 -0.79124,-20.16156 0.0429,-2.48438 1.15743,-4.78083 1.5045,-7.17194 -1.14507,-1.51949 -3.71908,-1.21205 -5.29328,-0.56803 -1.79281,2.09675 -1.09448,5.26506 -1.35782,7.8158 -0.17715,3.29471 0.25218,6.90495 -0.72044,10.00638 -1.6714,-1.80036 -1.58431,-4.69566 -2.13477,-6.99237 -0.80151,-4.06679 -6.1e-4,-8.56755 -1.918,-12.3479 -1.58034,-1.61372 -4.04368,0.54234 -4.04848,2.38874 -0.82145,6.43186 3.2619,12.18814 4.35253,18.28004 -3.7503,-0.51776 -5.21172,-4.72237 -6.53952,-7.74856 -1.08638,-2.24748 -1.24397,-5.20237 -3.07195,-6.99094 -1.01136,0.53393 -0.44936,2.28373 -0.48934,3.24794 0.38097,4.44095 3.41641,8.30069 3.8775,12.5897 -2.97731,-3.87556 -4.24709,-8.78843 -5.69821,-13.35733 -0.93845,-1.45449 -3.27481,-0.52596 -3.13634,1.17541 -0.83469,6.15951 3.17348,11.46098 5.24571,16.95131 4.01081,9.85628 10.45556,19.10957 11.26228,29.96427 0.35109,3.69278 -0.41197,7.3936 -2.42094,10.53148 -4.10315,8.06783 -11.68868,14.10174 -20.39096,16.48908 -13.44088,3.71789 -27.63526,3.31154 -41.44583,2.55359 -22.8604,-1.90323 -45.55362,-5.42642 -68.19088,-9.07242 -8.19057,-1.58344 -16.61036,-2.46059 -24.51565,-5.21137 -1.52568,-0.35929 -3.26486,-1.94325 -4.82541,-1.24767 0.0663,1.96157 2.42238,3.15722 2.61552,5.20171 0.21327,1.29883 0.71947,3.54134 -0.6689,4.30746 -2.42683,-0.84307 -3.40868,-3.74996 -4.86311,-5.66586 -8.16193,-12.01433 -18.57354,-22.30066 -29.04184,-32.28898 -8.26049,-7.92021 -18.80641,-12.81217 -29.19084,-17.28869 -6.7659,-1.91805 -12.80118,-5.77934 -19.31892,-8.39179 -16.41702,-6.90452 -33.44287,-12.24493 -50.40964,-17.60984 -3.37883,-0.92324 -6.78396,-2.09177 -10.31541,-2.18543 z"
         style="opacity:1;vector-effect:none;fill:#44aa00;fill-opacity:1;stroke:none;stroke-width:1.05906153;stroke-linecap:round;stroke-linejoin:miter;stroke-miterlimit:4;stroke-dasharray:none;stroke-dashoffset:0;stroke-opacity:1" />
      <path
         transform="scale(0.26458333)"
         inkscape:connector-curvature="0"
         id="path56"
         d="m 350.6901,348.50252 c -16.62488,0.39548 -32.81718,4.94507 -48.6291,9.7329 -12.47576,4.92805 -24.5514,11.08594 -35.60299,18.70801 10.93105,11.10186 22.46144,22.0819 31.24336,35.16312 5.81441,7.94781 12.39804,15.75638 14.83897,25.53436 4.01367,12.18317 6.871,25.55125 2.78351,38.11575 -2.6315,12.42019 -7.36954,24.23198 -13.16627,35.49445 -6.56967,13.68364 -13.3432,27.61115 -24.06056,38.60815 -8.23542,8.76111 -16.25636,17.94188 -25.94395,25.14164 -18.15754,10.42723 -35.22312,22.68242 -51.83326,35.38446 -1.90833,1.62115 0.69073,4.21321 0.79219,6.121 4.11233,12.35923 9.14267,24.52824 16.84338,35.12647 5.74479,8.55164 13.39805,16.81207 23.88911,19.04391 12.69076,2.71144 25.818,1.46766 38.68099,1.13411 13.47623,-0.92275 27.17088,-1.54559 40.26276,-5.0991 13.48953,-5.926 28.14416,-9.44458 40.4819,-17.78222 5.12106,-3.53375 12.00763,-5.71004 15.08467,-11.5035 1.20542,-3.37156 -2.86742,-5.06752 -5.55038,-5.03945 -1.53597,-0.45509 -4.08095,0.50332 -5.15378,-0.76286 3.41221,-4.04609 9.03345,-1.41335 13.29117,-0.55342 4.95516,1.52402 10.53559,-0.23949 15.04654,2.76811 8.03094,2.63542 16.59661,4.14505 25.06071,3.84359 2.56604,-0.38085 0.68895,-3.86798 0.57705,-5.38026 -2.36078,-6.95621 -2.78627,-14.27328 -2.39191,-21.55577 0.52591,-18.82441 2.75505,-37.91586 10.3122,-55.33541 8.09993,-19.98609 20.95277,-38.35817 38.43002,-51.21298 5.63042,-4.19719 12.28883,-6.93328 17.99878,-10.87819 -1.6353,-1.41363 -4.63853,-0.85282 -6.67644,-1.51744 -22.38936,-3.06126 -44.70643,-7.65108 -67.36646,-7.99693 -4.2092,-0.33559 -7.64165,2.3692 -9.95953,5.61919 -4.22144,4.55877 -5.81112,10.7977 -9.48806,15.65156 -0.72912,1.22704 -4.24786,2.26313 -3.60785,-0.086 2.11911,-11.59234 13.55652,-19.76574 13.32052,-32.07608 0.37209,-4.95355 -3.42027,-9.47826 -2.21469,-14.36463 2.07175,-1.74119 3.56403,1.8444 4.21185,3.33873 2.80307,5.54132 2.25779,11.82238 2.758,17.79542 1.58359,2.8119 5.71479,2.10808 8.42472,2.77621 18.15732,1.24255 36.29927,2.9141 54.23134,6.13699 5.2476,0.66767 10.69547,2.08978 15.88097,2.14508 -1.55707,-5.80226 -5.58899,-10.70508 -8.56801,-15.86758 -7.91839,-12.84622 -14.74517,-26.67333 -17.26455,-41.67414 -2.4496,-11.14828 -7.88619,-21.97141 -6.48129,-33.64701 0.44352,-8.20664 2.23234,-16.29222 5.40268,-23.87096 0.81265,-2.55023 -3.19358,-2.19897 -4.58621,-2.75192 -14.77459,-2.90766 -30.04962,-3.79739 -44.37373,-8.6635 -10.95403,-4.07148 -20.79085,-10.89847 -32.02347,-14.23007 -8.2257,-1.24019 -16.59569,-1.50383 -24.9049,-1.53379 z"
         style="opacity:1;vector-effect:none;fill:#ff80b2;fill-opacity:1;stroke:none;stroke-width:1.49773908;stroke-linecap:round;stroke-linejoin:miter;stroke-miterlimit:4;stroke-dasharray:none;stroke-dashoffset:0;stroke-opacity:1" />
      <path
         transform="scale(0.26458333)"
         inkscape:connector-curvature="0"
         id="path58"
         d="m 199.76489,610.94108 c -0.0717,0.0419 -0.14003,0.0911 -0.2047,0.1432 -0.0497,0.0524 -0.0191,0.12463 2.1e-4,0.18284 0.0245,0.0584 0.0309,0.14216 0.10286,0.16186 0.0607,0.0201 0.12072,-0.0301 0.13138,-0.0895 0.0288,-0.0961 0.0705,-0.18747 0.10513,-0.28122 0.0193,-0.0708 -0.0555,-0.14437 -0.12551,-0.11904 l -0.006,10e-4 z"
         style="opacity:1;vector-effect:none;fill:#ff80b2;fill-opacity:1;stroke:none;stroke-width:0.01654784;stroke-linecap:round;stroke-linejoin:miter;stroke-miterlimit:4;stroke-dasharray:none;stroke-dashoffset:0;stroke-opacity:1" />
      <path
         transform="scale(0.26458333)"
         inkscape:connector-curvature="0"
         id="path60"
         d="m 260.83058,382.30767 c -2.43245,0.0905 -2.03164,3.28348 -2.88022,4.86762 -3.12679,6.82378 -8.81193,12.47797 -15.47351,15.88844 -9.83899,4.0143 -20.26137,6.43528 -30.67229,8.42175 -1.44536,0.64824 -0.79782,2.87583 -0.98951,4.15065 -0.17688,2.38918 1.16524,4.38306 2.43248,6.23704 1.48895,4.97793 -0.84777,10.15794 -2.62411,14.77813 -3.26213,7.15504 -7.24429,14.34955 -13.30582,19.49838 -1.74774,1.78626 -4.09853,0.31165 -5.89924,-0.54013 5.38193,-4.8204 10.11783,-10.62357 13.00965,-17.28205 0.84629,-3.51717 3.07763,-6.44853 4.29029,-9.79534 1.09667,-8.173 -4.36082,-16.16657 -11.81921,-19.23152 -6.50545,-2.85679 -14.0609,-2.74448 -20.8276,-0.91572 -9.95439,3.30803 -19.57159,7.93921 -28.07681,14.10564 -1.36386,1.27315 -3.83319,2.56525 -2.97697,4.81401 2.44282,11.46704 -2.49381,23.08592 -9.24001,32.19035 -4.32234,6.14874 -11.28118,10.21233 -18.75292,10.94141 -12.03531,1.58627 -24.179367,-1.73643 -36.197372,0.0501 -1.472751,0.50707 -3.816289,0.64586 -4.461984,2.26211 1.063682,1.56768 3.540293,1.30044 5.136686,2.00857 11.604177,2.67429 23.22629,5.50045 35.05408,6.98479 12.61788,0.53964 25.28008,-0.58266 37.88644,0.14451 1.97721,0.13548 3.62304,1.90792 3.23864,3.94689 0.38221,7.0727 -2.7609,14.08516 -8.20498,18.58624 -6.56923,5.82392 -15.4346,7.86472 -23.27795,11.41509 -14.58707,6.21754 -29.067878,12.96636 -42.08816,22.11031 -6.708782,4.34139 -13.258582,8.98691 -18.790173,14.79931 -5.027235,5.27413 -10.888339,10.30672 -13.670412,17.21502 -0.546189,2.83452 -1.060547,6.01795 -0.06796,8.79161 1.134622,1.1026 1.818427,-1.31424 2.351538,-1.92301 3.970912,-8.22866 9.78335,-15.42389 16.592674,-21.4757 9.330756,-8.32526 19.757977,-16.03532 31.793773,-19.86472 6.03102,-1.75091 12.43227,-0.96642 18.63575,-0.96773 5.19551,0.33437 10.67586,1.55544 14.83879,4.80731 3.64426,3.8214 4.78857,9.282 6.53877,14.12729 2.69505,8.40749 4.20907,17.13151 6.12247,25.7208 2.4485,1.09969 5.42765,0.6937 8.05359,1.19783 11.05608,0.89449 22.88745,3.32049 31.01399,11.45697 3.57855,3.06568 6.06628,7.10325 9.10425,10.62807 3.83009,0.52154 7.18945,-2.22876 10.47998,-3.7709 16.12846,-9.18026 32.14524,-18.71133 46.96708,-29.91397 11.1099,-9.03199 20.5873,-19.89219 29.65038,-30.92353 2.34492,-3.28222 5.42163,-6.31849 6.6958,-10.20513 0.62972,-2.23292 3.05012,-3.41934 3.97587,-5.55051 5.80129,-9.89396 9.85912,-20.70617 13.80696,-31.44024 3.13223,-9.48801 5.71048,-19.27526 6.53595,-29.25723 0.27114,-7.04882 -2.73221,-13.67316 -4.94809,-20.21447 -1.45418,-4.37028 -4.39414,-8.07036 -5.21477,-12.66039 -0.65854,-2.3217 -1.0982,-5.27111 -3.62944,-6.29287 -1.09772,-1.40607 -1.09844,-3.42309 -2.30996,-4.82424 -6.58712,-10.04409 -15.26628,-18.5044 -23.80443,-26.87306 -4.02956,-3.41181 -8.26061,-8.3396 -14.00198,-8.22376 z m -16.80916,80.68629 c 1.27129,0.59899 0.59605,2.62774 0.66961,3.77591 -0.79101,5.6912 -1.94896,11.45253 -0.88567,17.20765 0.14341,2.99003 1.38084,6.10218 0.60953,9.04559 -0.97988,1.61996 -2.9032,-0.28212 -3.42322,-1.37215 -2.79273,-5.62185 -2.82798,-12.26083 -2.08326,-18.38735 0.68947,-3.64105 1.43966,-8.05695 4.8018,-10.20669 0.0992,-0.0375 0.20467,-0.0634 0.31121,-0.063 z m -48.06881,23.31077 c 6.90815,0.38348 13.15381,4.31386 18.41739,8.56126 4.16623,3.21848 6.60542,8.03917 8.02813,13.00731 1.78073,5.77172 2.93783,11.9131 2.49501,17.92853 -3.41719,10.51479 -5.7924,21.50007 -10.90373,31.37026 -3.94457,6.89299 -10.19852,13.39491 -18.29507,14.8976 -8.52721,0.81016 -17.69219,0.24564 -25.29459,-4.07209 -0.99486,-0.54623 -2.63677,-2.19744 -1.5789,-3.24865 3.81614,0.24472 7.10207,2.8139 10.8956,3.39519 5.78955,1.12704 11.84641,1.41061 17.67555,0.45083 6.04744,-1.71704 10.72584,-6.45845 14.41256,-11.34633 6.74674,-10.29787 9.39896,-22.66618 10.75254,-34.73365 0.39209,-3.6652 -0.48558,-7.30845 -2.44382,-10.42919 -2.03795,-3.64251 -2.26592,-8.20965 -5.52293,-11.15674 -5.09155,-5.63591 -12.38323,-10.31558 -20.29034,-9.18062 -5.12744,0.37022 -9.62584,3.03418 -13.67497,5.99134 -1.29569,1.18849 -4.4833,0.88167 -3.84244,-1.42152 1.36433,-4.6738 6.52927,-6.64966 10.63593,-8.30513 2.74454,-0.95121 5.62027,-1.66761 8.53408,-1.7084 z"
         style="opacity:1;vector-effect:none;fill:#f4d7ee;fill-opacity:1;stroke:none;stroke-width:1.05906153;stroke-linecap:round;stroke-linejoin:miter;stroke-miterlimit:4;stroke-dasharray:none;stroke-dashoffset:0;stroke-opacity:1" />
      <path
         transform="scale(0.26458333)"
         inkscape:connector-curvature="0"
         id="path62"
         d="m -186.8692,383.54518 c -11.8537,0.30356 -22.07962,7.79281 -30.0997,15.90652 -8.52229,8.77791 -13.53357,20.94212 -13.24552,33.21371 -0.48975,8.76332 1.54198,17.58144 5.2556,25.49155 4.71314,8.29056 12.39156,14.29045 18.57169,21.4153 2.30853,2.24596 5.23239,5.81533 3.01853,9.07815 -4.50624,6.10805 -11.9945,9.72347 -19.51248,10.1418 -2.718,0.10544 -5.3333,0.83198 -7.68795,2.17891 -8.61686,2.63046 -18.10114,2.23089 -26.23405,6.52699 -8.20248,4.01206 -14.69515,13.07694 -13.16262,22.48556 1.78543,6.87179 6.14692,12.74888 10.30288,18.3807 4.5944,6.2827 11.98933,10.14551 15.38805,17.36954 2.61534,5.06859 3.8413,10.74289 3.4815,16.43429 0.53254,12.31791 -4.18216,24.21379 -3.32276,36.56047 -0.0259,5.95447 2.15461,11.74888 5.41856,16.65426 3.10414,3.34408 8.18809,2.69557 12.23916,3.87392 17.07433,3.59809 33.30532,10.38829 50.38089,13.9704 9.72742,1.55944 19.92707,1.23571 29.36607,-1.71264 4.36665,-1.25812 7.67667,-4.50361 11.72693,-6.40002 13.53652,-9.51801 24.98174,-21.72005 38.667662,-31.03214 3.048385,-2.14097 7.038945,-3.31902 10.60073,-1.70361 8.968299,3.04104 17.172467,8.11039 24.019042,14.65025 6.143024,5.81115 12.694635,11.18668 19.933031,15.5875 8.577577,5.29944 17.017305,11.10585 26.521241,14.637 14.97603901,4.77018 32.196681,0.70768 43.798138,-9.80513 8.821026,-7.79801 14.409589,-19.08376 15.58338,-30.7648 0.329879,-4.96656 -0.250072,-10.0205 -2.47602,-14.52702 -2.147335,-4.65164 -4.73789,-10.19431 -9.968459,-11.93439 -3.229975,-1.08703 -7.00065,-0.33237 -9.970608,-2.03677 0.139775,-1.19409 2.210919,-1.18682 3.148502,-1.3979 5.137139,-0.44451 10.122369,1.18585 14.93838,2.75718 3.145338,0.52526 5.097387,-2.84622 6.362101,-5.20458 2.434501,-5.77233 2.175778,-12.57727 -0.03717,-18.37389 -1.658396,-4.38299 -6.517916,-6.60936 -11.002972,-6.1173 -10.557896,0.8343 -19.5221,7.15644 -28.8276224,11.58148 -20.6809976,10.4941 -44.2977246,14.62199 -67.3608886,12.67381 -12.425662,-0.96041 -25.755476,-2.30306 -36.094255,-9.95362 -9.043172,-6.91304 -13.437942,-18.12366 -16.012162,-28.87141 -2.36575,-9.62853 -0.71437,-19.83479 3.40744,-28.75307 5.47535,-12.34922 14.742534,-23.02169 26.501981,-29.74701 16.993489,-10.26825 36.497524,-15.59198 55.987127,-18.59437 9.549613,-1.13354 19.2719223,-1.77218 28.8518231,-0.72041 8.2630638,1.17626 15.2160559,6.6149 23.4693579,7.87089 1.66699,0.31777 1.326969,-1.70676 0.746169,-2.57689 -2.429319,-4.60003 -5.548587,-9.07735 -9.742394,-12.22199 -0.960541,-0.78608 -2.926096,-1.18722 -3.063365,0.54657 -0.478262,1.30464 -0.156651,3.60898 -1.701952,4.14864 -1.9536318,-1.44462 -1.8073145,-4.45046 -2.3804081,-6.6133 -0.9008551,-8.14294 -2.0275778,-16.87459 -7.5859043,-23.32785 -5.7913368,-6.63587 -13.2475826,-12.06522 -21.6381546,-14.87257 -5.915677,-1.44775 -12.381693,-1.00344 -17.784084,1.96405 -2.385166,1.04232 -4.766926,2.98028 -4.490781,5.87107 -0.394221,6.81984 -0.425586,14.39795 -4.998537,19.95195 -0.802313,1.20202 -3.307859,1.23219 -2.965358,-0.66748 0.703983,-4.4719 1.830149,-8.91623 1.706959,-13.49254 -0.09528,-6.82118 -0.08828,-14.2093 -3.726548,-20.22809 -5.440935,-7.00194 -13.599563,-11.80978 -22.206186,-13.7594 -8.333476,-1.41325 -16.54008,2.67796 -22.992416,7.60333 -6.344129,5.0628 -11.022689,11.99507 -14.127959,19.42989 -3.95251,6.25918 -9.49005,11.79477 -16.2875,14.88883 -4.62799,2.13727 -10.05332,2.80531 -14.80322,0.63895 -4.51642,-1.6182 -8.37277,-5.23971 -9.41612,-10.03008 -1.66005,-6.05571 -3.36858,-12.10979 -5.842,-17.89301 -3.44321,-9.66189 -6.32479,-20.64849 -15.02818,-27.0399 -3.86691,-2.9907 -8.75266,-4.26868 -13.59662,-4.11028 z"
         style="opacity:1;vector-effect:none;fill:#ffd42a;fill-opacity:1;stroke:none;stroke-width:1.05906153;stroke-linecap:round;stroke-linejoin:miter;stroke-miterlimit:4;stroke-dasharray:none;stroke-dashoffset:0;stroke-opacity:1" />
      <path
         transform="scale(0.26458333)"
         inkscape:connector-curvature="0"
         id="path64"
         d="m -42.813791,495.60904 c -4.304978,0.0899 -8.546167,1.10474 -12.602464,2.49878 -1.033016,0.44262 -2.28105,0.75932 -2.93507,1.74822 -0.44794,0.89831 0.421339,1.6987 0.84306,2.41443 1.209787,1.97817 0.710323,4.46264 -0.03304,6.51965 -1.871151,4.97099 -5.191828,9.20814 -8.41787,13.36422 -2.592493,3.50107 -5.248939,7.15418 -6.337567,11.44245 -0.829033,3.32147 -0.410609,6.89612 0.896522,10.03748 2.052763,4.57737 5.810736,8.20263 10.004909,10.85093 3.498736,2.13142 7.451342,3.78918 11.597195,3.89727 2.850562,0.12961 5.512736,-1.11969 7.958835,-2.4414 6.867334,-3.88108 12.652435,-9.4138 17.719394,-15.4035 3.025785,-3.73483 5.862884,-7.75029 7.485823,-12.31266 1.464969,-4.57861 1.492306,-9.57956 0.317104,-14.22638 -0.819064,-3.16215 -2.343935,-6.25068 -4.905429,-8.3587 -2.157108,-1.95436 -4.489206,-3.73759 -7.104788,-5.03701 -2.402895,-1.2457 -4.668802,-2.77213 -7.179805,-3.79877 -2.32882,-0.87096 -4.826473,-1.23094 -7.306809,-1.19501 z m 1.126942,24.63212 c 1.047633,0.0538 1.760705,0.96539 2.401259,1.6914 0.551187,0.6156 0.798491,1.40371 0.710354,2.23654 0.132665,1.76523 -0.819819,3.34078 -1.510799,4.89209 -0.851431,1.80012 -1.837386,3.55695 -3.452998,4.7716 -1.099772,0.87966 -2.894036,1.21885 -4.03131,0.20855 -1.368663,-1.2018 -1.806558,-3.1194 -1.68487,-4.86778 0.04465,-1.70811 0.875651,-3.31561 1.754801,-4.74245 1.171272,-1.7543 2.737491,-3.39916 4.779803,-4.09659 0.339782,-0.077 0.684661,-0.0821 1.03376,-0.0934 z"
         style="opacity:1;vector-effect:none;fill:#ffffff;fill-opacity:1;stroke:none;stroke-width:0.26476538;stroke-linecap:round;stroke-linejoin:miter;stroke-miterlimit:4;stroke-dasharray:none;stroke-dashoffset:0;stroke-opacity:1" />
      <path
         transform="scale(0.26458333)"
         inkscape:connector-curvature="0"
         id="path66"
         d="m 5.7010745,510.92462 c -1.0025069,-0.0653 -1.7392809,0.77671 -2.0233456,1.65848 -0.8256046,2.45508 -0.5763709,5.13944 -0.025225,7.62636 0.3922561,1.43719 0.7823906,2.94136 1.6667226,4.16353 0.5777491,0.67181 1.5362697,0.21887 2.1316115,-0.17568 1.9680786,-1.31476 3.83147,-2.80174 5.541292,-4.43905 0.900275,-0.87614 1.806946,-2.10046 1.438859,-3.43126 -0.363626,-1.14457 -1.438617,-1.86513 -2.315879,-2.60535 -1.856043,-1.37256 -3.9689094,-2.68474 -6.3355201,-2.79829 z"
         style="opacity:1;vector-effect:none;fill:#ffffff;fill-opacity:1;stroke:none;stroke-width:0.26476538;stroke-linecap:round;stroke-linejoin:miter;stroke-miterlimit:4;stroke-dasharray:none;stroke-dashoffset:0;stroke-opacity:1" />
      <path
         transform="scale(0.26458333)"
         inkscape:connector-curvature="0"
         id="path68"
         d="m 7.0805551,527.74398 c -0.8256679,-0.0552 -1.4577555,0.61904 -1.6608138,1.36767 -0.612528,1.9523 -0.047081,4.01487 0.3137053,5.96058 0.3812584,1.47709 0.5478338,3.06462 1.3245732,4.40368 0.4573631,0.79282 1.4528861,0.79871 2.2372518,0.60881 1.5809454,-0.39954 3.2809424,-0.81167 4.5161764,-1.9425 1.143643,-1.06605 0.896153,-2.8723 0.220881,-4.12628 -1.172116,-2.08129 -2.80958,-3.89881 -4.6776787,-5.37896 -0.6625204,-0.47823 -1.4315885,-0.91173 -2.2740952,-0.893 z"
         style="opacity:1;vector-effect:none;fill:#ffffff;fill-opacity:1;stroke:none;stroke-width:0.26476538;stroke-linecap:round;stroke-linejoin:miter;stroke-miterlimit:4;stroke-dasharray:none;stroke-dashoffset:0;stroke-opacity:1" />
      <path
         transform="scale(0.26458333)"
         inkscape:connector-curvature="0"
         id="path70"
         d="m 11.532166,545.84016 c -1.391911,0.0437 -3.1111123,0.0524 -4.0112788,1.30812 -0.8770857,1.38465 -0.9146656,3.10235 -1.0752499,4.68498 0.00199,0.91123 -0.235768,1.96877 0.3126276,2.77115 0.5820161,0.59375 1.517776,0.21593 2.1962949,0.025 2.0811422,-0.90713 4.1370752,-1.90263 6.0766892,-3.08477 1.08848,-0.78487 2.351322,-1.78125 2.465789,-3.22349 -0.0038,-1.26748 -1.32661,-1.97973 -2.41902,-2.19748 -1.160138,-0.26646 -2.360648,-0.29473 -3.545852,-0.28355 z"
         style="opacity:1;vector-effect:none;fill:#ffffff;fill-opacity:1;stroke:none;stroke-width:0.26476538;stroke-linecap:round;stroke-linejoin:miter;stroke-miterlimit:4;stroke-dasharray:none;stroke-dashoffset:0;stroke-opacity:1" />
      <path
         transform="scale(0.26458333)"
         inkscape:connector-curvature="0"
         id="path72"
         d="m -12.781608,281.78356 c -9.922525,0.15384 -20.530815,2.70413 -27.696783,9.98786 -3.859756,4.07678 -6.061796,9.38241 -8.272111,14.45964 -2.456633,6.41385 -2.194108,13.63438 0.272597,20.0025 3.072553,9.12176 8.516721,17.65638 16.524285,23.19154 5.701484,3.98193 12.053881,6.99487 18.541194,9.45377 3.7901365,1.43946 7.9714241,0.95477 11.6860581,-0.46894 5.7413258,-1.74079 10.4735962,-5.91078 13.4383939,-11.06618 5.941184,-9.1602 6.222401,-21.57067 1.053638,-31.12977 -1.493559,-3.22238 -4.565233,-5.57023 -5.5219773,-9.0409 -0.154693,-1.33343 0.032399,-3.19716 1.2929968,-3.93667 2.1950165,1.14655 3.4057145,3.56376 4.7597145,5.54128 3.937865,6.83683 7.148163,14.27249 8.415114,22.10694 1.436757,10.14351 -3.460079,20.50646 -11.464487,26.70326 -3.5179491,3.07028 -7.7827578,6.08931 -8.9321134,10.89488 -0.44495409,3.24937 0.2515425,6.62127 2.2379617,9.27054 1.321938,2.12173 3.4712709,4.33191 6.2191397,3.82993 4.596907,-0.42255 8.105529,-3.88273 11.686566,-6.44425 6.698935,-5.53285 14.12236,-10.36506 22.474355,-12.95433 3.353983,-1.2119 6.948144,-2.1902 9.691265,-4.57653 1.235182,-0.49702 2.719943,-0.33394 3.820316,-1.26821 4.873171,-3.52235 6.650693,-9.77623 7.460027,-15.4564 0.589298,-4.57219 1.498996,-9.48876 -0.552145,-13.84418 -2.760944,-7.28778 -8.74771,-12.64857 -14.341698,-17.79844 -11.211612,-9.66425 -23.921846,-17.76883 -37.791384,-23.0325 -7.9908986,-2.89701 -16.4877183,-4.52256 -25.000923,-4.42484 z"
         style="opacity:1;vector-effect:none;fill:#ff8080;fill-opacity:1;stroke:none;stroke-width:0.74886954;stroke-linecap:round;stroke-linejoin:miter;stroke-miterlimit:4;stroke-dasharray:none;stroke-dashoffset:0;stroke-opacity:1" />
      <path
         transform="scale(0.26458333)"
         inkscape:connector-curvature="0"
         id="path74"
         d="m -79.344114,744.61557 c -2.412552,-0.0561 -5.027843,0.73887 -6.355865,2.90176 -1.753803,2.80514 -3.427302,5.91351 -3.55572,9.29089 0.07455,4.16459 3.154073,7.41007 5.901084,10.19807 4.745089,4.87083 10.055265,9.3832 13.331521,15.4553 4.253163,7.26223 5.392489,15.93616 4.598308,24.21841 -0.470894,4.04969 -0.718418,8.29744 -2.59732,11.99506 -1.476252,2.55674 -4.335376,3.96867 -7.029575,4.86476 -0.695725,0.33956 -1.968862,0.086 -1.72985,-0.93074 0.694604,-2.83785 2.988502,-4.93885 4.056086,-7.63126 1.654867,-3.93815 2.747607,-8.20702 2.376483,-12.50705 -0.124377,-6.3866 -1.643914,-12.70762 -3.994108,-18.62701 -1.177512,-3.00711 -3.040103,-5.67078 -5.105134,-8.12093 -0.806565,-0.91473 -1.207117,-2.05837 -1.68943,-3.13992 -2.203876,-2.67893 -5.338732,-4.38041 -8.243702,-6.18872 -2.741141,-1.48719 -5.525471,-3.16728 -8.648096,-3.6642 -4.591768,0.33043 -8.647158,2.94926 -12.193788,5.70014 -6.35112,5.18392 -11.73628,11.80025 -14.73014,19.48464 -3.11171,8.78736 -2.80859,18.62435 0.15274,27.40897 2.18556,6.50637 6.37667,12.39591 12.17842,16.14428 5.26326,3.498 11.26677,5.85695 17.517952,6.81079 6.52654,1.05395 13.275407,0.60049 19.675477,-1.00205 13.667191,-3.43199 25.603455,-12.55508 33.093503,-24.41956 1.634932,-2.36766 2.679607,-5.04663 3.648708,-7.73374 3.641189,-8.31445 7.971034,-16.32338 12.336226,-24.28152 1.149085,-2.19387 2.593496,-4.20659 3.874877,-6.31026 1.202897,-2.59732 -0.07702,-5.45051 -0.402214,-8.09695 -0.861087,-3.90505 -1.381591,-7.94073 -2.89688,-11.66362 -0.476139,-1.52069 -2.238036,-1.48539 -3.519079,-1.70481 -6.224749,-0.59695 -12.533051,-0.2425 -18.71268,-1.31476 -9.02227,-1.35159 -17.383845,-5.41096 -26.423726,-6.72045 -1.62535,-0.25049 -3.26748,-0.43109 -4.914078,-0.41552 z"
         style="opacity:1;vector-effect:none;fill:#ff8080;fill-opacity:1;stroke:none;stroke-width:0.52953076;stroke-linecap:round;stroke-linejoin:miter;stroke-miterlimit:4;stroke-dasharray:none;stroke-dashoffset:0;stroke-opacity:1" />
      <path
         inkscape:connector-curvature="0"
         id="path24"
         d="m -29.410247,142.16778 c 0.02318,2.07891 0.862309,4.06226 1.812872,5.87662 0.839939,1.59683 2.098553,2.97158 3.702307,3.82061 2.641208,1.49301 5.784014,1.34623 8.71457,1.5043 3.22793,0.0603 6.5377328,0.2413 9.6556647,-0.76666 4.3362589,-1.33826 8.3187143,-3.56485 12.4546623,-5.38836 1.6838004,-0.52959 3.642529,-0.32632 5.122664,0.67707 0.924528,0.62468 1.985666,-0.10724 2.722856,-0.68369 1.853338,-1.39917 3.359301,-3.25281 5.384573,-4.4179 3.145287,-1.76411 6.229061,-3.64259 9.455131,-5.26173 3.059533,-1.63523 6.301854,-2.95973 9.184267,-4.90738 1.139319,-0.81205 2.006605,-2.07851 2.233366,-3.46504 0.03949,-0.65904 -0.82994,-0.58943 -1.265039,-0.63887 -3.279934,-0.0369 -6.576089,0.45248 -9.845638,-0.0115 -3.908165,-0.41389 -7.578336,-1.90011 -11.296618,-3.07263 -1.52269,1.04298 -2.926011,2.27341 -4.297889,3.51047 -0.690568,0.63884 -1.209701,1.50271 -1.152742,2.47338 0.01617,1.31714 0.288042,2.88795 1.544476,3.59604 0.451006,0.37553 1.21316,0.71552 1.230054,1.38176 -0.116274,0.48038 -0.766334,0.18612 -1.083543,0.12564 -1.277377,-0.28272 -2.496452,-1.15281 -2.797921,-2.48545 -0.307399,-1.14065 -0.16115,-2.48226 -1.058101,-3.39501 -2.0474859,-2.31395 -4.9465995,-3.63846 -7.7742016,-4.73846 -1.8943346,-0.76585 -3.92078359,-1.12608 -5.9592235,-1.16537 -3.8530927,-0.16102 -7.7945269,-0.10444 -11.4938279,1.11286 -2.685031,0.86642 -5.354876,1.89643 -7.696576,3.4963 -1.159264,0.65686 -2.544204,1.00632 -3.416329,2.08999 -2.063832,2.32144 -3.340975,5.2834 -3.950533,8.30945 -0.142457,0.79936 -0.134408,1.61473 -0.129281,2.4236 z m 9.102685,0.37516 c -0.117681,-1.6545 0.814065,-3.10681 1.812399,-4.34218 1.01093,-1.31877 2.204259,-2.55164 2.854597,-4.10179 -0.413205,-1.26902 -1.624301,-2.02814 -2.214819,-3.17146 0.570034,0.21777 1.014053,1.0553 1.748232,0.7772 1.77787,-0.58147 3.391392,-1.89474 5.352341,-1.69186 2.7538095,0.0535 5.0439502,2.0735 6.4104728,4.32134 0.8131255,1.42438 1.3727192,3.1527 0.999117,4.78725 -0.315767,0.54933 -0.7289165,1.07582 -0.7469161,1.74009 -0.231275,1.23021 -1.2019624,2.17518 -1.990516,3.09499 -1.3965422,1.58313 -3.2894217,2.57471 -4.8774777,3.93465 -0.261432,0.20917 -0.584395,0.60199 -0.217487,0.88793 0.142415,0.24782 0.747144,0.54607 0.441031,0.86333 -0.712234,0.46223 -1.549177,-0.11291 -2.264497,-0.2952 -1.653519,-0.6567 -3.341447,-1.34567 -4.743379,-2.45321 -1.089548,-0.34972 -1.605108,-1.5116 -2.06793,-2.4694 -0.239906,-0.60266 -0.493083,-1.22728 -0.495168,-1.88168 z m 19.96174106,-8.36182 c 0.0595127,-0.51217 -0.0855662,-1.15347 0.24682449,-1.58431 0.41698069,0.0803 0.52595462,0.68054 0.75486154,0.9811 0.17236016,0.73937 1.04809131,0.62181 1.57831891,0.96261 1.1539696,0.51597 2.4682873,1.47972 2.3919259,2.89421 -0.012753,0.7497 -0.9293648,1.09309 -1.0071814,1.79384 0.3307662,0.82014 1.2510638,1.30433 1.3554657,2.23999 0.062815,0.84151 -0.3136424,1.91693 0.4921382,2.51976 0.507918,0.39571 0.6997727,1.14376 0.2360375,1.65718 -0.8146389,0.92872 -1.9996838,1.52738 -3.2007995,1.76962 -0.7792085,0.14603 -1.60028202,-0.30723 -1.79441475,-1.09709 -0.59346835,-2.03274 -0.53087058,-4.19872 -0.74312991,-6.29692 -0.12270846,-1.94515 -0.27017662,-3.89076 -0.31004668,-5.83999 z"
         style="opacity:1;vector-effect:none;fill:#44aa00;fill-opacity:1;stroke:none;stroke-width:0.28021002;stroke-linecap:round;stroke-linejoin:miter;stroke-miterlimit:4;stroke-dasharray:none;stroke-dashoffset:0;stroke-opacity:1" />
      <path
         inkscape:connector-curvature="0"
         id="path26"
         d="m 18.151612,93.852 c 2.926729,1.536057 5.959179,2.862802 8.934117,4.299929 2.209887,1.151461 4.272002,2.797211 5.467395,5.020431 0.741032,1.3747 0.474054,3.02167 -0.193008,4.36914 -1.195282,2.68005 -2.962418,5.04739 -4.805233,7.31122 -1.53811,2.30148 -2.686034,4.84107 -3.801025,7.36692 -0.044,0.25463 -0.430806,0.75552 -0.07079,0.92128 1.278472,0.0485 2.485411,-0.54177 3.663598,-0.96762 2.368944,-0.85803 3.861977,-3.02713 5.351042,-4.92708 2.148194,-2.8211 4.826489,-5.24961 7.944347,-6.9568 1.309452,-0.79949 2.73014,-1.48023 3.856802,-2.53713 0.481629,-0.46869 -0.03842,-1.13896 -0.08542,-1.67792 -0.546706,-1.72234 -0.786923,-3.72973 -2.217081,-4.99508 -2.152113,-2.044238 -4.511902,-3.886232 -7.03699,-5.447126 -2.619143,-1.480095 -5.316638,-2.818355 -7.901938,-4.359868 -2.364322,-1.262107 -4.731602,-2.602618 -7.315565,-3.361555 -0.419359,-0.142036 -1.020289,-0.09849 -1.121698,0.429866 -0.520528,1.77414 -0.547643,3.682508 -0.668555,5.511393 z"
         style="opacity:1;vector-effect:none;fill:#44aa00;fill-opacity:1;stroke:none;stroke-width:0.28021002;stroke-linecap:round;stroke-linejoin:miter;stroke-miterlimit:4;stroke-dasharray:none;stroke-dashoffset:0;stroke-opacity:1" />
      <path
         inkscape:connector-curvature="0"
         id="path28"
         d="m 27.604664,123.35008 c 0.192778,0.44337 0.847484,0.31289 1.235967,0.381 1.693656,0.0952 3.538815,-0.1706 4.798041,-1.41355 1.625113,-1.56017 3.00092,-3.41045 3.98435,-5.43891 0.398235,-0.95793 -2.65e-4,-2.01745 -0.08377,-3.00147 0.03703,-0.33836 -0.338587,-0.49166 -0.54533,-0.22355 -1.315217,1.1911 -2.561595,2.51887 -3.447246,4.06678 -0.823108,1.92893 -2.408407,3.40638 -4.005635,4.70807 -0.458333,0.39128 -1.018223,0.57779 -1.614218,0.56123 -0.18769,0.0212 -0.353526,0.15582 -0.322162,0.3604 z"
         style="opacity:1;vector-effect:none;fill:#44aa00;fill-opacity:1;stroke:none;stroke-width:0.28021002;stroke-linecap:round;stroke-linejoin:miter;stroke-miterlimit:4;stroke-dasharray:none;stroke-dashoffset:0;stroke-opacity:1" />
      <path
         inkscape:connector-curvature="0"
         id="path30"
         d="m -5.770901,200.03504 c 0.1217374,1.67199 0.7071756,3.44563 2.0143628,4.56327 0.4123849,0.44343 1.1064028,0.44606 1.5318687,0.0219 2.01502431,-1.55709 3.8407974,-3.34594 5.8470085,-4.91621 3.2805317,-2.70861 6.681144,-5.28637 9.821394,-8.15701 3.030477,-2.00764 6.19978,-3.80125 9.301443,-5.69719 1.339379,-0.85223 2.892761,-1.41548 3.964035,-2.63695 1.168598,-1.21788 2.487922,-2.33384 3.427132,-3.74637 0.746797,-1.47401 0.987346,-3.15852 1.096145,-4.79003 0.0019,-1.84063 -1.447546,-3.20744 -2.328386,-4.6897 -2.461715,-3.6217 -4.735539,-7.37626 -6.768052,-11.25466 -0.760627,-1.78049 -0.779519,-3.81353 -0.506146,-5.70522 0.506177,-2.39527 2.482731,-4.16608 4.638601,-5.13832 0.726377,-0.29501 1.473817,-0.84065 2.279364,-0.75979 0.03691,0.4143 -0.129302,0.97295 -0.515233,1.1925 -0.751967,0.14463 -1.611562,-0.1002 -2.273306,0.4221 -1.732557,1.25454 -3.064906,3.14898 -3.515389,5.25226 -0.09225,0.841 -0.19151,1.84333 0.363048,2.54853 0.730126,0.38069 1.590895,-0.0508 2.317787,-0.24683 4.231251,-1.43838 8.598191,-2.54565 13.056836,-2.95795 0.292256,-0.27946 -0.05067,-0.80484 0.0019,-1.15527 -0.313224,-3.05209 -0.987893,-6.35531 -3.27818,-8.57397 -1.170731,-1.15766 -2.84186,-1.68377 -4.467944,-1.54832 -2.413921,0.11647 -4.613053,1.30561 -6.693914,2.43238 -2.982904,1.67167 -5.69315,3.96893 -7.383353,6.98073 -0.666412,1.19172 -1.381784,2.35822 -2.173174,3.47072 -0.07388,3.73752 0.641241,7.42679 1.15657,11.11299 0.662453,4.02787 1.446358,8.07698 2.942193,11.88904 0.465884,1.24601 1.42358,2.19215 2.150081,3.27234 -0.31659,0.39395 -1.040323,0.56367 -1.415468,0.12626 -0.542639,-0.39677 -0.884563,-1.00752 -1.370988,-1.44311 -0.909175,0.2977 -1.692813,0.94741 -2.528081,1.41642 -3.758139,2.43664 -7.5131558,4.90908 -10.9704477,7.76389 -2.8138463,2.47489 -5.4516389,5.14677 -8.0391925,7.85547 -0.7401216,0.89233 -1.8177668,1.81226 -1.6823584,3.09613 z"
         style="opacity:1;vector-effect:none;fill:#44aa00;fill-opacity:1;stroke:none;stroke-width:0.28021002;stroke-linecap:round;stroke-linejoin:miter;stroke-miterlimit:4;stroke-dasharray:none;stroke-dashoffset:0;stroke-opacity:1" />
      <path
         inkscape:connector-curvature="0"
         id="path21"
         d="m 222.18533,156.45496 c -0.24401,0.36017 -0.44666,1.78391 -0.45035,3.16388 -0.007,2.25776 -0.16235,2.68127 -1.5606,4.22902 -1.40742,1.55786 -1.86333,1.76991 -4.83651,2.24952 -1.80543,0.29125 -3.55825,0.8052 -3.89517,1.1421 -0.43398,0.43398 -0.60466,1.6879 -0.58549,4.30106 0.0224,3.04921 -0.13645,3.95319 -0.9168,5.21573 -1.11762,1.80835 -2.27191,1.96014 -4.57452,0.60155 -1.87282,-1.10498 -2.655,-2.48215 -3.07292,-5.41035 -0.5965,-4.17941 -2.2021,-6.24601 -5.44921,-7.01386 -2.97577,-0.70369 -5.27215,-0.22978 -8.27769,1.70828 l -2.82053,1.81877 -4.60118,-0.0414 c -6.78691,-0.061 -9.14749,-0.69308 -12.86985,-3.44591 -1.71601,-1.26904 -3.60264,-3.0159 -4.1925,-3.8819 -1.24771,-1.83177 -2.27977,-1.98811 -4.66935,-0.70737 -0.89599,0.48022 -1.87757,0.87313 -2.18125,0.87313 -0.30371,2e-5 -0.55219,0.17228 -0.55219,0.38282 0,0.51622 -3.72932,2.05736 -5.8937,2.43557 -1.87626,0.32787 -3.55105,0.81018 -10.696,3.08028 -6.98455,2.21914 -15.92291,3.43041 -22.91997,3.10595 -3.12148,-0.14471 -7.34531,-0.48447 -9.38627,-0.75496 -5.38929,-0.71423 -5.98762,-0.66851 -7.32189,0.55945 -2.007375,1.84744 -8.239845,5.08686 -13.687025,7.11404 -2.78875,1.03784 -10.49466,2.04435 -15.58457,2.03557 -4.94095,-0.009 -9.28716,-0.93457 -11.10266,-2.36566 -0.96791,-0.76298 -4.378,-5.13745 -5.00863,-6.42505 -0.54025,-1.10313 -2.39083,-5.96117 -2.5777,-6.76687 -0.95698,-4.12603 -2.42737,-6.38179 -5.05802,-7.7595 -2.19809,-1.1512 -2.7634,-1.25149 -7.01717,-1.24489 -5.29205,0.008 -8.70009,0.53419 -13.51711,2.0861 -4.009169,1.29163 -4.090928,1.53958 -1.719156,5.21348 0.915355,1.41787 2.318986,3.80781 3.119186,5.31096 0.8002,1.50314 1.96673,3.27127 2.59228,3.92914 0.9921,1.04335 1.13483,1.55862 1.11729,4.03385 -0.0279,3.92819 -1.32204,6.26444 -5.33909,9.63791 -0.450723,0.37852 -1.099186,0.82716 -1.441006,0.99699 -0.341837,0.16983 -1.71204,1.03888 -3.04492,1.93122 -1.332863,0.89234 -3.355488,2.21181 -4.494737,2.93215 -1.139231,0.72034 -3.388472,2.37192 -4.998293,3.67017 -1.609837,1.29826 -3.678119,2.90813 -4.59618,3.57749 -0.918061,0.66937 -2.861733,2.25933 -4.319256,3.53325 -4.082213,3.56796 -5.469097,4.39626 -6.987754,4.17337 -1.162365,-0.1706 -1.491991,0.0421 -2.681945,1.73026 -0.746178,1.05862 -1.859734,3.19403 -2.47457,4.74535 -0.614818,1.55133 -1.894368,3.90468 -2.843417,5.22967 -3.145307,4.39124 -10.495804,6.98771 -15.3252,5.41345 -5.008309,-1.63259 -7.613759,-4.88823 -7.937,-9.91771 -0.146853,-2.28527 0.01155,-3.11203 0.975845,-5.08234 1.406141,-2.87405 4.374351,-5.69916 6.729029,-6.40464 1.481844,-0.44397 1.861895,-0.81328 2.466731,-2.39705 0.393252,-1.02972 1.007708,-2.11514 1.365468,-2.41204 0.945253,-0.7845 3.942124,-0.59228 6.902793,0.44273 2.585749,0.90395 5.073453,1.18687 5.047481,0.57403 -0.0082,-0.18008 -0.302336,-0.70877 -0.654865,-1.17487 -0.860062,-1.1371 -0.785712,-2.43681 0.207525,-3.62741 0.891891,-1.06911 2.176639,-1.27507 2.974826,-0.4769 0.382791,0.3828 0.671843,0.36723 1.191669,-0.0642 1.136014,-0.94281 2.843286,0.0973 2.843286,1.7323 0,1.74059 0.420708,1.66389 1.980286,-0.36103 1.465096,-1.90225 6.634432,-6.73534 8.933983,-8.35286 0.840411,-0.59114 2.01916,-1.53981 2.619441,-2.10816 0.600282,-0.56836 2.305211,-1.62343 3.788721,-2.34461 3.943181,-1.91691 4.146927,-2.2317 3.339715,-5.15996 -0.364047,-1.32063 -0.752761,-3.18697 -0.863792,-4.14743 -0.111047,-0.96045 -0.583715,-4.14963 -1.05041,-7.08705 -0.466695,-2.93742 -0.84853,-6.3193 -0.84853,-7.51526 v -2.17446 l -0.994342,0.96667 c -0.992823,0.96521 -0.993121,0.96956 -0.193218,2.83263 1.675013,3.90125 0.621254,9.54944 -2.427841,13.01341 -2.613799,2.96944 -7.137279,4.80211 -10.66749,4.3219 -2.741181,-0.37287 -6.510695,-1.83147 -8.418809,-3.25762 -0.840394,-0.62813 -2.41205,-1.66247 -3.492557,-2.29856 -1.080523,-0.63607 -3.045084,-2.17352 -4.36572,-3.41654 -4.080975,-3.84114 -6.72299,-4.42015 -9.204374,-2.01719 -1.848877,1.79045 -6.429497,5.57729 -7.603611,6.28594 -0.480225,0.28985 -1.757185,1.07568 -2.837709,1.74628 -1.841039,1.14261 -2.266517,1.21902 -6.766847,1.21516 -4.324882,-0.004 -5.171183,-0.14238 -8.513125,-1.39494 -2.040974,-0.76495 -5.282511,-1.71078 -7.203429,-2.10182 -1.920917,-0.39106 -3.90523,-0.97647 -4.409595,-1.30093 -2.306464,-1.48378 -2.901416,-5.45636 -1.679353,-11.21364 0.372841,-1.75652 0.690175,-3.89381 0.705191,-4.74952 0.03383,-1.92707 -1.507437,-5.05307 -2.673927,-5.42329 -1.005562,-0.31916 -3.097935,-3.08349 -4.431606,-5.85484 -1.195795,-2.48481 -0.924464,-4.89589 0.747332,-6.64088 1.155056,-1.20561 5.004729,-2.98146 7.023873,-3.24012 0.526542,-0.0675 1.180169,-0.26036 1.452523,-0.42868 0.272354,-0.16832 1.700704,-0.58726 3.174134,-0.931 2.697422,-0.62925 4.238849,-1.5699 4.238849,-2.58674 0,-0.30254 -0.919992,-1.3599 -2.044439,-2.34967 -3.729963,-3.28326 -4.963247,-6.15701 -4.916303,-11.45594 0.02937,-3.32338 0.95517,-5.76833 3.201573,-8.45574 2.256288,-2.69924 4.673633,-4.38033 7.466048,-5.1921 3.205254,-0.931805 3.94333,-0.860405 6.037319,0.58408 2.757336,1.9021 3.09239,2.45042 5.092394,8.33337 1.018087,2.99463 2.172812,5.68966 2.566081,5.98895 1.961129,1.49246 5.296108,-0.14455 6.965594,-3.41915 1.811075,-3.55234 3.846224,-5.43734 7.180658,-6.65098 1.737154,-0.63226 3.507869,-1.14862 3.934914,-1.14747 2.385187,0.007 7.736686,3.93998 7.736686,5.6867 0,0.34259 0.346424,0.42831 0.982297,0.24304 2.897902,-0.84432 3.918216,-0.78819 6.8938,0.37924 2.444985,0.95924 3.452676,1.66742 5.211314,3.6623 1.670425,1.89481 2.181671,2.81063 2.186407,3.91656 0.005,1.05017 0.372099,1.77768 1.349265,2.67018 0.738686,0.67469 1.770087,2.11186 2.291993,3.19367 0.550945,1.14202 1.853448,2.6832 3.10564,3.67474 l 2.156724,1.70778 1.807016,-1.80701 c 0.993864,-0.99386 3.068416,-2.51574 4.610123,-3.38196 2.876418,-1.61614 4.307838,-3.34113 5.820174,-7.01389 0.384079,-0.93272 1.365468,-2.43432 2.180869,-3.33688 2.52657,-2.79662 4.78604,-6.64002 4.8692,-8.28266 0.0425,-0.84039 -0.2099,-2.01912 -0.56097,-2.61943 -0.86116,-1.4724 -3.97917,-3.740915 -6.53855,-4.757105 -1.151953,-0.45739 -3.140423,-1.35991 -4.418802,-2.0056 -2.426735,-1.22572 -3.959318,-1.22276 -5.328431,0.0101 -0.367182,0.33071 -1.777349,0.89034 -3.133676,1.24363 -1.687866,0.43962 -3.355472,1.34127 -5.284524,2.857265 -1.698048,1.33446 -3.257063,2.21495 -3.921796,2.21495 -1.537879,0 -3.363788,-2.25873 -3.363788,-4.161145 0,-1.36017 -0.127218,-1.49783 -1.637145,-1.77231 -2.144646,-0.38985 -5.623458,-2.14537 -7.501607,-3.78558 -2.054124,-1.79388 -3.361626,-3.82572 -4.132686,-6.42219 -0.784128,-2.64043 -0.278311,-5.10618 1.73727,-8.46892 1.9986,-3.33442 4.303663,-4.32864 10.156375,-4.38056 4.316599,-0.0383 4.802731,0.0454 6.741272,1.1593 1.149065,0.66032 2.272572,1.20058 2.49668,1.20058 0.776703,0 6.715002,4.08315 8.043493,5.53065 0.734165,0.79995 1.466284,1.45447 1.626931,1.45447 0.160714,0 0.430394,-0.83494 0.599441,-1.85542 0.618926,-3.73626 1.653348,-4.26755 3.958641,-2.03317 1.349825,1.30831 1.427377,1.32782 2.495458,0.62799 1.311231,-0.85914 4.404244,-0.99279 5.323354,-0.23001 1.14256,0.94824 0.58212,5.3288 -0.79367,6.20362 -0.28512,0.18129 -1.40246,0.34643 -2.482984,0.36699 -1.080507,0.0206 -2.337204,0.18361 -2.792662,0.36232 -0.725255,0.28458 -0.627293,0.44343 0.788946,1.27902 0.889383,0.52474 1.718904,0.95408 1.843366,0.95408 0.124412,0 1.635774,0.82538 3.358474,1.83417 1.72268,1.00877 3.91798,2.20833 4.87845,2.66565 2.25773,1.07504 8.43069,5.73751 9.76925,7.378755 0.5708,0.69989 1.33281,2.44355 1.69334,3.8748 l 0.65551,2.60226 2.79854,-0.25158 c 1.95903,-0.17612 3.16473,-0.069 4.01923,0.35737 2.36431,1.17946 11.07811,-0.69433 12.97472,-2.79007 0.81057,-0.89567 1.74969,-2.38829 2.16896,-3.44735 0.25658,-0.64808 3.5261,-3.271615 5.21183,-4.182075 4.43719,-2.39651 6.57807,-3.31565 9.38628,-4.02983 6.16924,-1.56891 7.48415,-1.84217 7.83148,-1.6275 0.19131,0.1183 1.67723,0.0549 3.30205,-0.14076 4.13791,-0.49813 9.113765,0.80268 12.787935,3.34315 0.65558,0.45328 3.12444,1.15643 5.54708,1.57981 7.46694,1.30497 9.11236,1.61456 10.91427,2.05359 5.49868,1.3397 17.01651,5.699585 23.5629,8.919325 4.0405,1.98726 5.43569,2.94773 7.91461,5.44857 1.6552,1.66982 3.07292,3.22651 3.15054,3.45932 0.22837,0.68511 2.79362,2.06379 4.44506,2.38896 3.1879,0.62771 8.65004,1.62081 12.22398,2.22249 2.04098,0.34362 4.79138,0.84477 6.112,1.11367 1.4017,0.28541 5.3088,0.42637 9.38681,0.33864 6.89053,-0.14818 7.01407,-0.16811 9.07265,-1.46 1.19358,-0.74903 2.19897,-1.74687 2.34857,-2.33094 0.53817,-2.10103 -0.2114,-5.96007 -1.83231,-9.4337 -2.20685,-4.72928 -2.36636,-6.21348 -0.84423,-7.85521 0.86515,-0.933115 1.63898,-1.305645 2.83243,-1.363525 0.90314,-0.0437 1.82844,-0.19482 2.05624,-0.3356 0.75461,-0.46636 4.6009,1.227375 5.48928,2.417265 0.82004,1.09836 0.87336,1.84657 0.87047,12.21872 -0.003,11.00893 -0.007,11.05917 -1.1877,13.95432 l -1.18464,2.90561 0.92715,1.81739 c 1.43194,2.80679 1.54618,5.51949 0.32998,7.83549 -1.31599,2.50605 -2.86195,3.67344 -4.36512,3.29616 -1.07371,-0.26949 -3.64253,-2.44421 -5.1527,-4.36224 -0.37428,-0.47538 -1.52952,-1.60103 -2.56716,-2.50147 -1.76046,-1.52768 -2.07492,-1.63713 -4.70314,-1.63713 -2.40638,0 -3.17937,0.21264 -5.30814,1.4603 -3.21197,1.88247 -8.23002,2.73377 -13.31145,2.25825 -4.44831,-0.41629 -5.98472,-0.37002 -6.55205,0.19731 -0.98937,0.98937 3.71683,3.73707 9.73086,5.68132 2.78059,0.89892 7.31488,2.56567 10.0762,3.70388 8.47248,3.49232 14.86232,5.42621 18.02726,5.45593 1.3827,0.0132 2.02002,-0.32509 3.86356,-2.04951 2.58817,-2.42092 4.05494,-5.10411 4.98688,-9.12253 0.66888,-2.88419 0.66613,-2.91437 -0.48717,-5.35019 -1.51769,-3.20542 -1.35075,-6.24632 0.42687,-7.77535 1.27319,-1.09518 3.11836,-1.29131 4.2182,-0.44838 0.83847,0.6426 2.58037,5.5119 2.58037,7.2131 0,0.67136 0.2282,1.44887 0.50714,1.7278 0.28522,0.28524 0.4937,1.70841 0.47645,3.25246 -0.0206,1.84422 0.18155,2.98301 0.61592,3.46949 0.46816,0.52434 0.62903,1.66886 0.58292,4.14742 -0.035,1.88278 0.0551,4.20908 0.20041,5.16953 0.14521,0.96045 0.0645,2.04097 -0.17953,2.40114 z m -0.40395,-3.42162 c -0.55588,-0.87703 -2.36338,-0.42812 -2.93844,0.7298 -0.62928,1.2671 -1.39205,2.0525 -1.69709,1.74745 -0.32331,-0.3233 1.01729,-3.42134 1.4805,-3.42134 0.2084,0 0.99159,-0.62668 1.74042,-1.39259 2.67868,-2.73981 1.06977,-7.46862 -1.64283,-4.82856 -0.43174,0.4202 -0.90849,1.1078 -1.05947,1.528 -0.24943,0.69432 -1.61158,1.12026 -1.61158,0.50394 0,-0.69348 1.56807,-2.78666 2.43526,-3.25076 1.58842,-0.8501 2.29744,-5.65716 0.83443,-5.65716 -0.83812,0 -1.20959,0.73183 -1.75927,3.46591 -0.54564,2.71414 -1.51408,3.52785 -1.50385,1.2636 0.007,-1.57026 0.67462,-3.6852 1.86484,-5.9084 0.41141,-0.76846 0.74802,-1.8424 0.74802,-2.38654 0,-1.07675 -1.20801,-4.61612 -1.87491,-5.49342 -0.67007,-0.88143 -2.4119,-0.6366 -3.10603,0.43658 -1.19145,1.84201 -1.24346,3.20741 -0.23579,6.19061 0.72842,2.15649 0.91177,3.463 0.73133,5.21137 -0.44137,4.27652 -4.72145,11.15399 -7.87188,12.64895 -1.48667,0.70547 -2.01645,0.67196 -5.76042,-0.36448 -1.20058,-0.33236 -3.06692,-0.84758 -4.14743,-1.14493 -1.08051,-0.29737 -4.22382,-1.41349 -6.98513,-2.48025 -5.32568,-2.05746 -12.08667,-4.35224 -16.30415,-5.53384 -1.4037,-0.39329 -3.85941,-1.56729 -5.45714,-2.6089 -1.69356,-1.10409 -3.6598,-2.00332 -4.71503,-2.1564 -0.99555,-0.14437 -3.12831,-0.85399 -4.73951,-1.57688 -1.61119,-0.7229 -4.52935,-1.71171 -6.48478,-2.19735 -1.95544,-0.48566 -4.83233,-1.26746 -6.39307,-1.73732 -4.72696,-1.42307 -13.38836,-3.48658 -14.63457,-3.48658 -1.66275,0 -7.99087,3.12369 -9.85478,4.86452 -1.53885,1.43725 -5.4492,6.6176 -6.46408,8.56352 -1.48544,2.84814 -3.10286,10.11973 -3.37517,15.17419 -0.25806,4.78975 -0.20296,5.40186 0.63405,7.04255 0.62594,1.22693 1.30305,1.89678 2.13478,2.11184 1.69098,0.43728 10.8838,0.28501 13.00551,-0.21539 0.96045,-0.22654 2.51485,-0.41657 3.45419,-0.42229 1.70348,-0.01 3.85817,-0.54555 9.64294,-2.39503 1.6808,-0.53738 3.84183,-1.1936 4.80229,-1.45828 4.4142,-1.21643 6.63462,-1.79941 7.6719,-2.01427 0.61784,-0.12805 1.85442,-0.72882 2.74794,-1.33519 0.89355,-0.60637 1.80113,-1.10249 2.01686,-1.10249 0.21572,0 1.04194,-0.383 1.83604,-0.85112 0.79409,-0.4681 2.27548,-0.98383 3.29198,-1.14606 1.57402,-0.2512 1.8864,-0.17354 2.10597,0.52369 0.77274,2.45359 4.82893,6.53777 7.61499,7.66753 1.78343,0.72319 6.53764,1.38804 10.04113,1.40421 3.06301,0.0148 3.42939,-0.0891 5.67808,-1.59982 2.88764,-1.93999 6.05009,-2.66008 9.123,-2.07733 4.3423,0.8235 6.23434,3.0427 6.80194,7.97801 0.23254,2.022 0.57002,2.81082 1.72766,4.03828 2.96274,3.14141 4.76021,1.13378 4.54838,-5.08013 -0.14437,-4.23352 0.0928,-4.52569 4.40166,-5.42412 3.67624,-0.76652 5.34795,-1.88727 6.32648,-4.24142 0.37631,-0.90527 0.68419,-1.74022 0.68419,-1.85541 0,-0.56197 -1.37386,-0.10412 -2.13319,0.71095 -1.25028,1.34202 -2.07148,0.85734 -0.95413,-0.56314 0.49745,-0.63241 0.90446,-1.36443 0.90446,-1.6267 0,-0.26228 0.28042,-0.47685 0.62317,-0.47685 0.77596,0 2.43515,-2.05557 2.42614,-3.00573 -0.003,-0.38782 -0.17323,-0.96789 -0.37681,-1.28903 z m -13.20643,-50.17866 c -0.49317,-1.33411 -1.59578,-1.68904 -2.48493,-0.79991 -0.54985,0.54987 -0.70783,1.42268 -0.64788,3.57969 0.0566,2.03812 -0.0688,2.80263 -0.43957,2.67775 -0.60078,-0.20241 -0.7057,-5.75992 -0.13167,-6.97434 0.28367,-0.60013 0.16384,-0.764 -0.55874,-0.764 -0.83587,0 -0.92107,0.24908 -0.93311,2.72857 -0.0102,2.14296 -0.11303,2.55703 -0.47801,1.92931 -0.25558,-0.43958 -0.49153,-1.76567 -0.52433,-2.94684 -0.0374,-1.3474 -0.255,-2.1476 -0.58401,-2.1476 -0.97048,0 -1.04662,1.61133 -0.17248,3.65063 0.47735,1.11364 0.72756,2.02178 0.556,2.01811 -0.81229,-0.0174 -1.4635,-0.86914 -2.01939,-2.64119 -0.40627,-1.29518 -0.6216,-1.60376 -0.65049,-0.93216 -0.0238,0.55218 0.26601,1.60184 0.64389,2.33257 0.37786,0.73074 0.57691,1.43874 0.4423,1.57336 -0.25316,0.25316 -1.5659,-2.57021 -1.5659,-3.36787 0,-0.24784 -0.19648,-0.45059 -0.4366,-0.45059 -0.54647,0 -0.56849,1.50805 -0.0366,2.51619 0.21993,0.41696 0.72379,1.54391 1.11967,2.50436 0.39588,0.96047 1.13802,2.52828 1.64919,3.48404 0.51116,0.95577 1.06551,2.62565 1.23189,3.71086 0.25397,1.65656 0.12541,2.27633 -0.80118,3.86325 -2.26144,3.87294 -6.17261,5.11589 -15.04161,4.78017 -5.30896,-0.20093 -24.21963,-3.03679 -25.76958,-3.8644 -1.05644,-0.56409 -1.48138,-0.50504 -0.85725,0.11913 0.62644,0.62644 0.69844,2.09555 0.10264,2.09555 -0.23166,0 -0.65295,-0.44204 -0.93619,-0.98229 -1.3028,-2.48493 -7.65706,-9.24242 -10.23792,-10.88758 -1.86454,-1.18856 -5.57103,-2.97355 -6.17446,-2.97355 -0.19516,0 -1.29458,-0.50026 -2.44315,-1.11168 -2.08658,-1.11078 -5.10448,-2.24727 -12.09332,-4.55417 -5.77437,-1.906045 -6.5632,-2.012485 -6.84782,-0.924 -0.13151,0.50294 -0.39005,0.91444 -0.5745,0.91444 -0.18443,0 -0.46828,1.064 -0.63075,2.36445 -0.22639,1.81195 -0.0253,3.5207 0.8607,7.31256 1.85728,7.94899 3.94521,12.92913 7.04719,16.809 0.8002,1.00086 1.4549,1.98963 1.4549,2.19725 0,0.20762 1.42432,0.63457 3.16514,0.94878 1.74083,0.31419 6.112,1.35311 9.71371,2.30871 3.6017,0.95558 8.41491,2.21357 10.69598,2.79554 2.28109,0.58195 5.36287,1.57442 6.84839,2.20549 2.96161,1.25814 4.23804,1.21496 7.33193,-0.24795 0.95594,-0.45201 1.85314,-0.75069 1.99381,-0.66377 0.83395,0.51542 7.63506,0.94649 10.23843,0.64892 3.40088,-0.38869 5.27041,-1.01198 7.85634,-2.61917 2.09845,-1.30426 5.78378,-1.46134 7.90046,-0.33678 0.74246,0.39448 2.93819,2.32478 4.87939,4.28958 3.20312,3.24206 3.64316,3.5438 4.7596,3.26361 1.75318,-0.44003 2.2567,-0.97761 2.79776,-2.98695 0.5918,-2.19776 0.2153,-4.92771 -0.91638,-6.64458 -1.15036,-1.74521 -1.1044,-2.1959 0.60674,-5.95073 0.85951,-1.88608 1.4277,-3.78398 1.36634,-4.56401 -0.0577,-0.73441 0.0374,-2.10552 0.21153,-3.04692 0.39435,-2.13219 0.0132,-14.89015 -0.48603,-16.2388 z m -85.97676,17.2958 c -0.70466,-1.70885 -1.28372,-3.52199 -1.2868,-4.02923 -0.003,-0.50724 -0.5134,-2.49391 -1.13409,-4.41481 -0.95201,-2.94626 -1.08842,-3.9897 -0.87203,-6.67075 0.14108,-1.74801 0.56767,-3.77994 0.948,-4.51542 0.38033,-0.735495 0.61875,-1.410035 0.5298,-1.498965 -0.0889,-0.0889 -2.90292,-0.57335 -6.25332,-1.0765 -4.43928,-0.66664 -6.68371,-1.22519 -8.27448,-2.05923 -6.643995,-3.48337 -6.270605,-3.364 -11.080075,-3.54203 -4.54402,-0.16821 -6.08785,0.0448 -12.71304,1.75309 -3.17095,0.81768 -6.73022,2.4269 -10.18485,4.60481 l -1.67173,1.05391 2.79957,2.701255 c 1.53976,1.48571 3.75067,4.07647 4.91312,5.75725 1.16246,1.68081 2.46491,3.45386 2.89432,3.94014 0.92931,1.05232 2.3974,5.64591 2.80282,8.7699 0.19542,1.50588 0.0686,2.99759 -0.38945,4.58398 -0.37354,1.29343 -0.78356,2.94105 -0.91121,3.66139 -0.12755,0.72034 -1.59974,4.06012 -3.27134,7.42171 -2.79017,5.61103 -3.4023,6.49665 -7.46831,10.80512 -2.43595,2.58123 -4.63731,4.69315 -4.89193,4.69315 -0.49895,0 -8.39852,5.16335 -10.67003,6.97423 -0.76052,0.60627 -1.88034,1.44791 -2.48849,1.87029 l -1.10575,0.76794 1.3438,3.81605 c 1.40894,4.00103 4.48551,8.73366 6.75981,10.39851 2.11277,1.54659 4.00993,1.93096 9.48995,1.92266 5.32968,-0.008 13.94604,-0.97932 14.84023,-1.67282 0.26608,-0.20635 2.05542,-0.91201 3.97632,-1.56814 1.92091,-0.65614 3.98372,-1.5383 4.58401,-1.96036 0.60027,-0.42207 1.77902,-1.1155 2.61942,-1.54096 0.84039,-0.42546 1.96756,-1.17544 2.50483,-1.66662 1.229895,-1.12441 0.62119,-2.05457 -1.35772,-2.07468 -1.24388,-0.0132 -1.29583,-0.0667 -0.58369,-0.6068 0.65931,-0.50008 1.0993,-0.49734 2.80992,0.0175 1.115515,0.33571 2.385115,0.49712 2.821335,0.35867 0.43622,-0.13844 1.08065,0.0358 1.43207,0.38719 0.60618,0.60619 6.5905,1.50218 7.0388,1.05386 0.11385,-0.11385 -0.0593,-1.06813 -0.38469,-2.12062 -0.61081,-1.97537 -0.63053,-3.78103 -0.10676,-9.77188 0.90139,-10.30949 7.01397,-20.52403 14.8061,-24.74205 l 2.67116,-1.44596 -2.18286,-0.30489 c -1.20057,-0.16769 -3.3616,-0.49918 -4.80227,-0.73666 -4.52882,-0.74644 -10.00933,-1.36583 -12.08569,-1.36583 -1.79494,0 -2.12722,0.16684 -3.25163,1.63264 -0.68882,0.89795 -1.44884,2.22164 -1.68895,2.94153 -0.24011,0.71989 -0.78811,1.37631 -1.21776,1.45869 -0.65102,0.12475 -0.73432,-0.0561 -0.49999,-1.08611 0.15461,-0.67973 0.8681,-2.07904 1.58542,-3.10957 1.85011,-2.65792 2.25455,-4.42312 1.5091,-6.58679 -0.59419,-1.72468 -0.53793,-2.23552 0.24627,-2.23552 0.71357,0 1.7426,3.19707 1.50341,4.67099 -0.27902,1.71934 -0.31538,1.70708 6.21034,2.0937 2.49398,0.14784 6.61958,0.64773 9.16799,1.11106 2.54841,0.46333 4.87651,0.8454 5.17352,0.84904 0.29704,0.003 -0.4525,-1.47087 -1.66562,-3.2767 -1.21313,-1.80584 -2.78224,-4.68148 -3.48691,-6.39033 z m -40.147875,-1.83104 c -0.48675,-1.57589 -1.05385,-2.96962 -1.26022,-3.09718 -0.20638,-0.12755 -0.50464,-0.92168 -0.6628,-1.7647 -0.15808,-0.84308 -0.47511,-1.53283 -0.70435,-1.53283 -0.22922,0 -0.41678,-0.19426 -0.41678,-0.43171 0,-1.08196 -4.58308,-6.37669 -7.9686,-9.20595 -1.53994,-1.28693 -2.94568,-1.48188 -2.94568,-0.4085 0,1.17377 -2.23918,3.82526 -3.98222,4.71548 -1.53877,0.78587 -6.86843,2.23278 -8.35092,2.26709 -0.48963,0.0116 -0.39513,2.09706 0.10907,2.40872 1.19321,0.73745 -0.47283,5.50557 -2.96293,8.47976 -0.954,1.13946 -1.45087,1.41733 -2.09105,1.16939 -0.73141,-0.28327 -0.75525,-0.3916 -0.18487,-0.83976 1.03213,-0.81096 3.05601,-3.67022 3.05601,-4.31741 0,-0.32277 0.30324,-1.01979 0.67387,-1.54895 0.54543,-0.7787 0.58539,-1.29078 0.20961,-2.68631 -0.78337,-2.90922 -4.30639,-4.4374 -8.0542,-3.49369 -2.99346,0.75376 -8.81441,4.015 -8.55403,4.79248 0.6386,1.90693 0.15592,4.65624 -1.24479,7.09092 -2.5539,4.43894 -4.69443,5.23367 -12.184927,4.52395 -1.584954,-0.15015 -3.242857,-0.0619 -3.929138,0.20936 -1.150914,0.45478 -1.113788,0.48648 1.213912,1.03582 7.424253,1.75214 9.654803,2.03357 13.708853,1.72962 2.24175,-0.16806 4.51783,-0.1653 5.05798,0.007 0.87589,0.278 0.95805,0.52509 0.7597,2.28483 -0.29268,2.59647 -2.26498,4.59691 -5.73466,5.81639 -3.02568,1.06345 -9.5043,4.08124 -11.128128,5.18358 -0.624668,0.42406 -2.384708,1.58067 -3.911235,2.57026 -3.003223,1.94689 -6.883603,6.04398 -7.301573,7.70934 -0.142893,0.56903 -0.173633,1.39395 -0.06847,1.83314 0.144543,0.60328 0.373451,0.38719 0.936508,-0.88374 1.485574,-3.3532 6.817867,-8.01866 11.391854,-9.96727 2.989804,-1.27371 8.460184,-0.8697 10.204894,0.75367 0.74785,0.69583 1.99634,4.36963 2.68152,7.89053 l 0.51959,2.67009 3.03928,0.28247 c 4.24083,0.39414 7.07699,1.96751 9.12569,5.06248 0.75163,1.1355 0.67612,1.15129 4.33413,-0.90559 5.15757,-2.90007 10.36694,-6.33926 12.65783,-8.35664 2.73402,-2.40763 8.29759,-8.95268 8.29759,-9.76139 0,-0.29615 0.17692,-0.60393 0.39314,-0.68397 0.90702,-0.33573 4.53476,-8.90481 5.29393,-12.50482 1.02161,-4.84436 1.02198,-4.71024 -0.0234,-8.0951 z m -18.05799,12.37783 c -1.39269,0 -1.89928,-5.18591 -0.72157,-7.38648 0.76746,-1.43402 1.4709,-1.11737 1.13415,0.5105 -0.43791,2.11689 -0.4568,2.97781 -0.11023,5.02055 0.24718,1.45651 0.18215,1.85543 -0.30243,1.85543 z m -4.8416,8.51314 c -0.0773,0.24011 -0.66842,2.20467 -1.31326,4.3657 -1.23244,4.13015 -2.64753,6.16802 -5.21671,7.51258 -2.18597,1.144 -8.54027,0.0454 -8.54027,-1.47651 0,-0.46589 0.34578,-0.42956 1.63714,0.17201 0.92371,0.43033 2.6835,0.76581 4.03828,0.76987 2.00133,0.007 2.68554,-0.21034 4.10912,-1.29923 2.05998,-1.57565 3.54735,-4.70401 4.28685,-9.01637 0.46597,-2.71734 0.44033,-3.21802 -0.22404,-4.37562 -0.41262,-0.71895 -0.75022,-1.54217 -0.75022,-1.82937 0,-0.99877 -2.51358,-3.26593 -4.10944,-3.70657 -1.71283,-0.47293 -3.79689,-0.0281 -5.09292,1.08704 -0.8812,0.75821 -1.71191,0.76104 -1.71191,0.007 0,-1.44812 3.59496,-3.1447 5.87827,-2.77417 1.70108,0.27605 4.35102,1.93927 5.34051,3.35198 1.1011,1.57203 2.09802,5.88141 1.6686,7.2128 z M 43.968995,104.7213 c -0.22578,-0.96045 -0.70041,-2.19088 -1.05476,-2.73429 -0.97162,-1.49006 -6.95954,-6.101565 -9.27373,-7.141985 -1.12138,-0.50416 -3.20483,-1.61875 -4.62989,-2.47685 -4.309807,-2.59513 -9.244839,-4.82964 -9.846011,-4.4581 -0.314034,0.19409 -0.640856,1.54601 -0.75418,3.11973 l -0.200001,2.77722 2.548194,1.28151 c 1.401488,0.70484 3.530458,1.69655 4.731022,2.2038 4.698516,1.98517 7.581186,4.961365 7.621696,7.869005 0.0264,1.89009 -2.59888,6.52327 -5.46849,9.65115 -0.75015,0.81766 -4.293826,7.99598 -4.061848,8.22795 0.350088,0.3501 3.554618,-0.6616 5.115528,-1.61498 0.80333,-0.49068 2.04507,-1.69944 2.75944,-2.68615 3.14974,-4.35063 5.40261,-6.42849 9.41537,-8.68392 2.98573,-1.6782 3.98128,-2.45053 3.78058,-2.93295 -0.14981,-0.36017 -0.45715,-1.44068 -0.68292,-2.40114 z m -7.82944,23.97563 c -5.29939,0.33534 -8.76815,-0.18685 -14.533564,-2.18784 l -3.0105,-1.04485 -2.287984,1.85251 c -3.001936,2.43058 -3.33087,3.00272 -2.981706,5.18628 0.217738,1.3616 0.591701,1.97469 1.530107,2.50843 0.683065,0.38851 1.243184,0.95195 1.244702,1.25209 0.0033,0.66498 -0.354328,0.68019 -2.054769,0.0874 -1.445064,-0.50374 -2.30818,-1.95869 -2.30818,-3.89084 0,-1.81489 -3.022165,-4.27085 -7.483571,-6.08151 -3.157814,-1.28159 -4.2537,-1.50199 -8.141209,-1.63734 -2.950092,-0.1028 -5.647746,0.079 -7.858277,0.52956 -3.211969,0.65455 -8.300882,2.69606 -9.696346,3.88982 -0.360169,0.30813 -1.145997,0.70748 -1.746279,0.88749 -2.946181,0.88344 -6.318978,7.37719 -6.199054,11.93522 0.08036,3.05094 2.086151,7.36099 4.128298,8.87054 2.58225,1.90881 3.851949,2.22476 9.827375,2.4455 8.405345,0.31052 9.654882,-0.0342 22.033422,-6.07882 1.19921,-0.5856 4.014742,-0.43135 4.94305,0.2708 1.399029,1.05817 2.100177,0.78796 5.030453,-1.93865 1.541162,-1.43406 2.936297,-2.6128 3.100277,-2.61943 0.164013,-0.007 1.932089,-1.00655 3.929139,-2.22208 1.997033,-1.21553 6.271576,-3.48467 9.498956,-5.04251 5.39573,-2.6045 6.70607,-3.54353 7.52591,-5.39331 0.80815,-1.82342 0.59046,-1.89995 -4.49025,-1.57846 z M 4.252572,146.88272 c -1.41515,0.72196 -2.025002,0.8251 -2.79753,0.4731 -1.077092,-0.49073 -1.191373,-1.1669 -1.764,-10.43741 -0.185282,-2.99964 -0.125897,-4.47485 0.18025,-4.47485 0.251168,0 0.581372,0.3929 0.733802,0.87313 0.152462,0.48023 0.566522,0.87315 0.920239,0.87315 0.353717,0 1.224522,0.42986 1.935142,0.95524 1.4184,1.04867 1.689219,2.53735 0.622638,3.42254 -0.593945,0.49293 -0.56332,0.66846 0.271678,1.55728 0.66399,0.70678 0.86234,1.31549 0.673626,2.06738 -0.171818,0.68458 -0.03482,1.25872 0.38317,1.60561 1.175895,0.97591 0.74933,2.11127 -1.159015,3.08483 z m -1.064436,-2.43346 c -1.064551,0 -1.295985,0.19685 -1.411471,1.20056 -0.160547,1.39524 -0.04455,1.43038 1.715655,0.52011 1.595663,-0.82515 1.437359,-1.72067 -0.304184,-1.72067 z m -0.207937,-4.07479 c -1.165236,-1.25074 -1.853052,-0.80762 -1.476531,0.95121 0.369987,1.72829 0.376703,1.73463 1.469667,1.38773 1.148043,-0.36438 1.150238,-1.11168 0.0066,-2.33894 z m -0.173055,-4.68419 c -0.589721,-0.38641 -1.277323,-0.57581 -1.527996,-0.42088 -0.512417,0.31669 -0.553091,1.79229 -0.08234,2.98618 0.295058,0.74826 0.376801,0.74057 1.497321,-0.14091 1.460526,-1.14887 1.478296,-1.52989 0.113028,-2.42447 z m -6.349471,3.95669 c -0.240113,0.14834 -0.436582,0.62167 -0.436582,1.0517 0,1.37033 -2.400253,4.13114 -5.152869,5.9269 -1.99644,1.30243 -2.507009,1.82914 -2.031222,2.09541 0.89633,0.50161 0.789705,1.18541 -0.184853,1.18541 -0.973667,0 -5.882629,-2.16967 -6.091984,-2.69255 -0.08002,-0.1999 -0.40632,-0.36344 -0.725058,-0.36344 -0.318736,0 -1.010627,-0.89052 -1.537516,-1.97893 -1.316197,-2.71891 -0.932581,-4.34805 1.766211,-7.5009 1.189161,-1.38923 2.163868,-2.84906 2.165997,-3.24406 0.0016,-0.39498 -0.483872,-1.18081 -1.079996,-1.74628 -0.59614,-0.56546 -1.087288,-1.21754 -1.09143,-1.44909 -0.005,-0.23153 0.317269,-0.0962 0.714282,0.30085 0.671382,0.67138 0.875243,0.64407 2.917488,-0.39079 1.696447,-0.85967 2.629723,-1.06371 4.104719,-0.89747 3.590518,0.40472 7.071542,4.45789 7.092811,8.25862 0.0033,0.64614 -0.189886,1.29622 -0.429998,1.44462 z m -1.916661,-5.66924 c -0.574245,-0.53221 -1.311099,-1.10282 -1.637426,-1.26804 -0.326343,-0.1652 -1.084484,-0.58447 -1.684765,-0.93169 -1.325421,-0.76662 -3.049259,-0.81203 -5.294227,-0.13943 -1.328259,0.39796 -1.582661,0.62768 -1.202477,1.08578 0.728374,0.87763 0.106427,2.60068 -1.817296,5.03431 -1.940635,2.4551 -2.396671,3.73221 -1.960386,5.49002 0.558074,2.24856 3.631472,4.50462 6.071127,4.45655 2.24378,-0.0442 6.882894,-4.18994 8.361257,-7.47205 0.911989,-2.02474 0.513853,-5.00465 -0.835807,-6.25545 z m -5.332145,6.45989 c -0.790035,1.45734 -2.070756,1.41592 -2.282587,-0.0738 -0.195365,-1.3741 1.573371,-3.30766 2.398947,-2.62248 0.738951,0.61327 0.715273,1.16222 -0.116326,2.6963 z m 47.048188,5.37709 c -2.09254,-3.96021 -5.54343,-4.75057 -10.506843,-2.40641 -4.684887,2.21263 -7.987459,5.08692 -9.723606,8.46265 -0.493953,0.96047 -1.201917,2.09183 -1.573256,2.51414 -0.589176,0.6701 -0.608961,1.30933 -0.155433,5.02057 0.847622,6.93599 1.655164,11.4743 2.652195,14.90502 1.070508,3.68351 1.522353,4.66947 2.765785,6.03514 0.837556,0.9199 0.842571,0.98678 0.0957,1.27337 -0.540155,0.20728 -1.040477,-0.009 -1.589624,-0.68716 l -0.801355,-0.98964 -2.077489,1.20585 c -2.616455,1.51868 -10.254733,6.89902 -11.609955,8.17796 -7.570462,7.1443 -9.458395,9.20717 -9.458395,10.33485 0,2.47845 1.472373,5.19603 2.838666,5.2394 0.240624,0.008 1.369575,-0.85415 2.508774,-1.91508 1.139199,-1.06093 4.268534,-3.66398 6.95411,-5.78457 2.685558,-2.12058 5.337589,-4.32543 5.893386,-4.89967 0.555813,-0.57423 1.453397,-1.28167 1.994657,-1.57208 0.541261,-0.29041 3.103826,-1.83426 5.69459,-3.43079 2.590766,-1.59652 4.85616,-2.90276 5.034231,-2.90276 0.178072,0 1.433782,-1.12963 2.790452,-2.51029 2.21282,-2.25193 2.51597,-2.78719 2.94552,-5.2009 0.5244,-2.94679 0.45121,-3.16289 -2.38355,-7.03599 -1.22675,-1.67611 -4.747391,-7.54487 -6.418445,-10.69932 -0.443859,-0.83786 -0.751474,-2.42925 -0.764014,-3.95229 -0.02723,-3.31614 1.401092,-5.48529 4.686635,-7.11727 2.426784,-1.20543 2.919414,-1.19891 2.446934,0.0324 -0.19421,0.5061 -0.59142,0.6736 -1.22205,0.51533 -1.807345,-0.45362 -5.070845,3.66506 -5.052661,6.37666 0.0132,1.87909 0.540105,2.20535 2.435002,1.50615 3.110639,-1.1478 8.657539,-2.55645 11.031779,-2.80157 l 2.34092,-0.24167 -0.29493,-2.6067 c -0.16922,-1.49589 -0.79896,-3.56064 -1.47776,-4.84529 z m 1.23528,-31.92544 c -0.0116,-0.68353 -0.43594,-0.39915 -1.95377,1.30972 -1.06635,1.20059 -1.94636,2.34061 -1.95559,2.53344 -0.0662,1.38475 -4.47702,5.80604 -5.29061,5.30322 -0.18769,-0.116 -0.46465,-0.0116 -0.61546,0.23278 -0.34416,0.55688 2.81685,0.59674 4.22374,0.0533 1.46547,-0.5661 2.61564,-1.69929 4.45759,-4.39185 1.08075,-1.57984 1.54816,-2.68168 1.38897,-3.27427 -0.13201,-0.49125 -0.24665,-1.28607 -0.25487,-1.76631 z M 27.310545,80.129145 c -1.598993,-0.30323 -2.903509,0.41061 -4.203602,2.30025 -0.730485,1.06171 -1.32816,2.06522 -1.32816,2.23002 0,0.59885 5.725842,-0.0511 6.146682,-0.69784 0.70306,-1.08027 0.28897,-3.66101 -0.61492,-3.83243 z m -6.957192,-0.59144 c -0.296528,-0.18835 -0.770565,-0.34544 -1.05343,-0.34913 -0.666646,-0.008 -1.236913,4.47428 -0.692832,5.44648 0.360301,0.64385 0.55918,0.55839 1.611752,-0.69252 0.943917,-1.12177 1.144362,-1.70884 0.937201,-2.7447 -0.145038,-0.72473 -0.506164,-1.47177 -0.802691,-1.66013 z m -3.563839,6.5735 c -1.384706,-3.26913 -8.636102,-8.69184 -14.047217,-10.50473 -6.132508,-2.05461 -12.178703,-0.86521 -14.309126,2.81487 -1.923938,3.32335 -2.197331,5.24755 -1.145172,8.0597 1.363108,3.64326 3.07962,5.53016 6.660338,7.32152 2.411918,1.20662 3.426852,1.49759 4.453701,1.27675 2.329102,-0.50092 3.600237,-1.40892 4.772387,-3.40906 1.792891,-3.05932 1.424307,-6.83978 -0.928638,-9.52524 -0.369525,-0.42174 -0.529908,-1.07413 -0.367892,-1.49637 0.248132,-0.6466 0.368403,-0.6637 0.882586,-0.1254 1.232986,1.29078 2.865017,5.09495 3.074669,7.16684 0.28765,2.84284 -0.970927,5.46981 -3.517521,7.34195 -2.105044,1.54753 -2.517833,3.19976 -1.25122,5.008125 1.021685,1.45865 2.149233,1.19115 5.008277,-1.188165 1.672885,-1.39219 3.487161,-2.43609 5.110595,-2.94054 1.384327,-0.43015 2.582432,-0.93227 2.662475,-1.11583 0.08002,-0.18356 0.393384,-0.33374 0.69633,-0.33374 0.976489,0 2.151525,-1.72813 2.459669,-3.61743 0.465325,-2.85314 0.451349,-3.16188 -0.214241,-4.73325 z m -5.071768,62.976165 c -1.318178,-1.58257 -4.100115,-1.1175 -8.533966,1.42663 -4.618275,2.64997 -10.696085,4.26579 -15.894098,4.22558 -10.80035,-0.0835 -14.54749,-1.99013 -16.792259,-8.54404 -1.230759,-3.59339 -1.081002,-6.53203 0.500586,-9.82284 1.881977,-3.91581 4.09929,-6.16634 8.352346,-8.47752 6.985427,-3.79599 19.514846,-5.71545 23.437599,-3.59055 1.311033,0.71019 3.871553,1.57517 4.071372,1.37537 0.317549,-0.31755 -1.729828,-3.27875 -2.5824,-3.73504 -0.699101,-0.37415 -0.834124,-0.29671 -0.834124,0.47849 0,0.54474 -0.224289,0.85098 -0.545715,0.74509 -0.328339,-0.10825 -0.632655,-1.29647 -0.763997,-2.98325 -0.238727,-3.066 -1.397247,-5.0726 -4.067676,-7.04538 -2.964381,-2.18994 -5.375556,-2.62019 -7.919295,-1.41309 -1.28564,0.61006 -1.4201,0.85388 -1.393452,2.52666 0.03564,2.24071 -0.890408,4.65637 -1.785137,4.65637 -0.503639,0 -0.574986,-0.2743 -0.312269,-1.20056 0.677223,-2.38758 0.429223,-6.39869 -0.493871,-7.98817 -1.068478,-1.83983 -4.610073,-3.88411 -6.753416,-3.8982 -2.466385,-0.0165 -5.661457,1.84469 -7.289148,4.24541 -0.780366,1.15099 -1.418845,2.24911 -1.418845,2.44026 0,0.83953 -2.474174,3.47614 -3.985488,4.24717 -2.089205,1.06581 -3.718594,1.06826 -5.457151,0.008 -1.081711,-0.65961 -1.479831,-1.31811 -1.912601,-3.16353 -0.300586,-1.28177 -0.685011,-2.52697 -0.854288,-2.76707 -0.169276,-0.24012 -0.656316,-1.57682 -1.082322,-2.97047 -2.266863,-7.41591 -8.101938,-8.448005 -14.358264,-2.53969 -3.624922,3.42332 -4.863635,8.67639 -3.275826,13.89199 0.703508,2.31084 1.27536,3.14984 3.912639,5.74049 2.494402,2.45031 3.032362,3.21162 2.795881,3.95673 -0.438266,1.38084 -3.233222,3.09465 -5.046871,3.09465 -0.856697,0 -1.744249,0.1835 -1.972366,0.40777 -0.2281,0.22439 -1.200563,0.50526 -2.16103,0.62427 -3.399429,0.42133 -4.819216,0.86792 -6.285599,1.97722 -1.753869,1.32678 -2.713626,3.36822 -2.406473,5.11867 0.298458,1.7009 2.904502,5.57336 4.580027,6.80569 2.720573,2.00094 3.791774,5.54651 3.00649,9.95117 -1.003582,5.62915 -1.019571,7.58769 -0.0792,9.71338 0.843084,1.90593 0.962101,1.99149 3.198025,2.29902 1.277307,0.17567 4.975573,1.1792 8.218381,2.23007 4.529289,1.46776 6.556782,1.90914 8.746506,1.90409 2.866089,-0.007 5.715529,-0.71929 6.662664,-1.66642 0.280423,-0.28042 0.692139,-0.50986 0.914943,-0.50986 0.222788,0 2.057639,-1.42431 4.077443,-3.16514 7.879464,-6.79115 7.624435,-6.67902 11.298512,-4.96816 2.082835,0.96989 2.977548,1.64077 6.091175,4.56743 1.762927,1.65706 8.305815,5.71431 10.415481,6.45865 6.105679,2.1542 13.26261,-1.49824 15.242351,-7.77874 0.968289,-3.07175 0.940057,-4.48609 -0.136952,-6.85982 -1.065162,-2.34772 -1.950173,-3.06563 -3.801525,-3.08375 -0.780383,-0.008 -1.418863,-0.21035 -1.418863,-0.45046 0,-0.60846 2.773803,-0.54642 4.178178,0.0934 1.03358,0.47094 1.254849,0.41688 1.985103,-0.48493 1.128607,-1.39378 1.08993,-4.70892 -0.07111,-6.10295 z m -17.826814,44.56775 c -0.47087,0.0891 -0.752876,0.68034 -0.843051,1.76742 -0.150152,1.81099 0.407954,2.10879 1.3722,0.73213 0.777908,-1.11061 0.444848,-2.68389 -0.529149,-2.49955 z m -0.29067,7.65268 c -0.163683,-0.90308 -0.469565,-1.74826 -0.67978,-1.87818 -0.210197,-0.12992 -1.612246,-0.23986 -3.11564,-0.24432 -1.737054,-0.005 -3.859391,-0.39471 -5.82227,-1.06868 -1.698855,-0.58331 -3.805716,-1.06057 -4.681932,-1.06057 -1.3226,0 -1.7062,0.2187 -2.259175,1.28804 -1.1175,2.161 -0.836829,2.96565 1.926958,5.52443 3.294998,3.05059 4.337604,6.17275 3.624459,10.85375 -0.26138,1.7156 -0.574937,2.30526 -1.502848,2.82608 -1.573437,0.88315 -1.940455,0.37235 -0.820677,-1.14222 0.503161,-0.68056 0.988155,-2.10204 1.077751,-3.15885 0.195909,-2.31069 -0.837358,-6.20176 -1.969576,-7.41705 -0.450608,-0.48366 -0.819274,-1.04017 -0.819274,-1.23667 0,-0.55376 -3.568838,-2.73523 -4.474772,-2.73523 -2.168471,0 -5.844396,3.3715 -7.030522,6.44826 -1.503625,3.90033 -0.323736,9.0071 2.595468,11.23369 5.581843,4.25747 13.997336,2.59321 18.530485,-3.66462 0.711494,-0.98218 1.293609,-1.98289 1.293609,-2.22381 0,-0.55397 3.807894,-7.91775 4.401114,-8.51098 0.243001,-0.24299 0.347843,-0.83539 0.233017,-1.31645 -0.114841,-0.48106 -0.342711,-1.61354 -0.506395,-2.51662 z m -2.981673,-8.01126 c -1.883924,-0.60549 -1.891283,2.26022 -0.0099,4.14087 l 1.073329,1.07333 -0.122102,-2.47557 c -0.09719,-1.9714 -0.288789,-2.52914 -0.940601,-2.73863 z"
         style="fill:#000000;stroke-width:0.43657097" />
    </g>
  </g>
</svg>
