<svg width="220" height="96" viewBox="0 0 220 96" fill="none" xmlns="http://www.w3.org/2000/svg">
<path d="M211.552 1.93294C211.121 1.90769 210.689 1.90769 210.258 1.93294C209.659 1.22398 208.897 0.671026 208.037 0.321547C207.346 0.0844471 206.618 -0.0231542 205.888 0.0041504C205.051 0.000715093 204.223 0.185415 203.467 0.544611C202.71 0.903807 202.044 1.42832 201.518 2.07943L198.734 5.4243C198.438 5.7982 198.069 6.1079 197.649 6.33456C197.23 6.56122 196.768 6.70009 196.293 6.74272C194.877 6.74272 166.677 6.5474 164.553 6.74272C162.49 6.73681 160.452 7.20482 158.598 8.11069C156.744 9.01656 155.123 10.3361 153.86 11.9675C152.21 14.0855 151.187 16.6227 150.905 19.2921C150.222 24.5169 149.66 29.7906 149.147 35.0398C148.359 34.5466 147.462 34.2533 146.535 34.1853H125.782C124.954 34.1847 124.135 34.3658 123.384 34.716C122.633 35.0661 121.968 35.5767 121.436 36.2117C120.9 35.6 120.239 35.1095 119.498 34.7728C118.757 34.436 117.953 34.2607 117.139 34.2585H96.3864C95.02 34.2623 93.7006 34.7579 92.6695 35.6545C91.6384 36.5511 90.9644 37.7889 90.7709 39.1415L90.3803 42.8526C89.3703 43.0248 88.4259 43.4677 87.6477 44.1341C86.8695 44.8005 86.2866 45.6655 85.9611 46.637C81.2083 43.3958 75.5752 41.6914 69.8228 41.754C61.9737 41.6542 54.3375 44.3062 48.2398 49.2494C42.974 53.5349 39.4925 59.6275 38.4738 66.34H35.7881L39.5969 39.0683C39.6976 38.2693 39.6267 37.458 39.389 36.6886C39.1514 35.9191 38.7524 35.2092 38.2186 34.6062C37.6849 34.0031 37.0287 33.5208 36.2938 33.1914C35.559 32.862 34.7623 32.6931 33.957 32.696H12.8624C11.4959 32.6998 10.1765 33.1953 9.14544 34.0919C8.11433 34.9885 7.4404 36.2263 7.24688 37.579L0.0444273 88.3868C-0.0559798 89.1837 0.0142643 89.9929 0.250498 90.7607C0.486731 91.5284 0.883551 92.2371 1.41462 92.8398C1.94569 93.4424 2.59886 93.9252 3.33078 94.2561C4.06271 94.587 4.85664 94.7585 5.6599 94.7591H43.6986C44.7862 94.762 45.8518 94.453 46.7691 93.8689C47.6865 93.2847 48.4172 92.4498 48.8746 91.4631C53.5344 94.2961 58.9011 95.7521 64.3538 95.6625C72.7728 95.7094 80.9057 92.6096 87.1575 86.9707C87.6931 88.0195 88.3486 89.0027 89.1107 89.9005C92.4311 93.7093 97.5339 95.6625 104.297 95.6625C109.262 95.673 114.185 94.7366 118.799 92.9036L119.849 92.4641C120.152 92.3201 120.446 92.157 120.728 91.9758C124.524 94.6027 129.083 95.8991 133.693 95.6625C138.651 95.6758 143.565 94.7393 148.171 92.9036L149.269 92.4397C150.267 91.9749 151.113 91.2388 151.711 90.3156C156.667 93.9237 162.673 95.8024 168.802 95.6625C184.085 95.6625 200.346 85.3837 200.346 66.3644C200.403 62.926 199.705 59.5171 198.3 56.3783C196.895 53.2395 194.818 50.4475 192.216 48.1995H194.437C196.524 48.1856 198.582 47.7073 200.461 46.7994C202.341 45.8914 203.994 44.5766 205.302 42.9503C206.951 40.8323 207.974 38.2951 208.256 35.6258C208.989 30.0103 209.575 24.346 210.136 18.7794C210.571 18.8642 211.012 18.9132 211.455 18.9258C213.721 18.9258 215.895 18.0255 217.497 16.423C219.1 14.8204 220 12.6469 220 10.3806C220 8.11421 219.1 5.94069 217.497 4.33814C215.895 2.73559 213.721 1.83528 211.455 1.83528L211.552 1.93294Z" fill="white"/>
<path d="M174.32 47.931C167.88 47.8364 161.61 49.9955 156.595 54.0348C154.067 56.1291 152.046 58.7669 150.68 61.7515C149.315 64.7361 148.641 67.9904 148.708 71.2719C148.668 72.0119 148.668 72.7536 148.708 73.4936C148.717 73.5928 148.69 73.6917 148.631 73.7723C148.573 73.853 148.488 73.9101 148.391 73.9331L145.803 74.4702C145 74.64 144.182 74.7218 143.362 74.7144C143.036 74.7424 142.709 74.7049 142.399 74.6043C142.089 74.5036 141.802 74.3418 141.555 74.1284C141.393 73.8966 141.285 73.6317 141.239 73.353C141.193 73.0743 141.209 72.7887 141.286 72.517L142.434 64.3868C142.446 64.2919 142.492 64.2046 142.564 64.1416C142.636 64.0786 142.729 64.0442 142.824 64.045H147.17L149.539 48.8344H145.29C145.18 48.8341 145.075 48.7902 144.997 48.7123C144.955 48.6107 144.955 48.4965 144.997 48.3949L146.12 40.3135H126.124L125.001 48.4926C124.995 48.544 124.979 48.5938 124.954 48.6389C124.928 48.6841 124.894 48.7237 124.853 48.7555C124.812 48.7873 124.765 48.8107 124.715 48.8242C124.665 48.8378 124.613 48.8412 124.562 48.8344H115.895C115.785 48.8316 115.681 48.7881 115.602 48.7123C115.57 48.6089 115.57 48.4983 115.602 48.3949L116.725 40.3135H96.7287L95.6056 48.4926C95.5952 48.5796 95.5559 48.6607 95.4939 48.7227C95.4319 48.7847 95.3509 48.824 95.2638 48.8344H91.6015L89.868 61.0419C89.868 61.1455 89.8269 61.2449 89.7536 61.3181C89.6804 61.3914 89.581 61.4326 89.4774 61.4326C89.3738 61.4326 89.2744 61.3914 89.2012 61.3181C89.1279 61.2449 89.0868 61.1455 89.0868 61.0419C86.7917 52.9849 79.3207 47.9798 69.75 47.9798C63.3182 47.8868 57.0565 50.046 52.0491 54.0836C49.4945 56.1535 47.4423 58.7755 46.0468 61.7525C44.6513 64.7296 43.9488 67.9842 43.9921 71.2719C43.9799 71.4751 43.9799 71.679 43.9921 71.8822C43.9893 71.9917 43.9458 72.0962 43.87 72.1752C43.7756 72.2108 43.6714 72.2108 43.577 72.1752H29.1233C29.0661 72.1773 29.0093 72.1649 28.9581 72.1393C28.9069 72.1138 28.863 72.0757 28.8303 72.0287C28.8081 71.9788 28.7966 71.9247 28.7966 71.87C28.7966 71.8153 28.8081 71.7613 28.8303 71.7113L33.4936 38.4335H13.2046L6.1731 88.6798H43.3329L44.7489 78.7673C44.7631 78.6817 44.8036 78.6028 44.865 78.5415C44.9263 78.4802 45.0052 78.4396 45.0908 78.4255C45.1802 78.4163 45.2703 78.4348 45.3489 78.4785C45.4274 78.5222 45.4907 78.5889 45.5302 78.6696C48.3868 85.5059 55.2963 89.5832 64.3054 89.5832C76.6351 89.5832 89.7704 81.4285 89.7704 66.34C89.8086 65.7302 89.8086 65.1187 89.7704 64.5089C89.7635 64.45 89.7711 64.3904 89.7923 64.3351C89.8136 64.2799 89.848 64.2306 89.8925 64.1915C89.9263 64.1472 89.9712 64.1126 90.0226 64.0912C90.074 64.0698 90.1302 64.0622 90.1854 64.0694H92.8223C92.8829 64.0675 92.9432 64.0797 92.9983 64.1052C93.0534 64.1306 93.1018 64.1685 93.1397 64.2159C93.175 64.3187 93.175 64.4304 93.1397 64.5333L91.4306 76.399C91.0544 78.0419 91.0408 79.747 91.3908 81.3957C91.7408 83.0444 92.4459 84.5969 93.4571 85.9453C95.6056 88.3868 99.0725 89.6076 104.053 89.6076C108.23 89.6345 112.373 88.8639 116.261 87.337L117.066 86.9952L118.873 74.0552L116.432 74.4946C115.629 74.6659 114.811 74.7478 113.99 74.7388C113.665 74.7668 113.338 74.7293 113.027 74.6287C112.717 74.5281 112.43 74.3663 112.183 74.1528C112.022 73.921 111.914 73.6561 111.868 73.3774C111.821 73.0987 111.837 72.8131 111.915 72.5414L113.062 64.4112C113.074 64.3163 113.121 64.229 113.193 64.166C113.265 64.103 113.357 64.0686 113.453 64.0694H122.145C122.205 64.0708 122.264 64.0845 122.319 64.1097C122.373 64.1349 122.422 64.1711 122.462 64.2159C122.486 64.2654 122.498 64.3196 122.498 64.3746C122.498 64.4295 122.486 64.4838 122.462 64.5333L120.778 76.399C120.401 78.0419 120.388 79.747 120.738 81.3957C121.088 83.0444 121.793 84.5969 122.804 85.9453C124.928 88.3868 128.395 89.6076 133.4 89.6076C137.577 89.6345 141.72 88.8639 145.608 87.337L146.413 86.9952L148.122 75.691C148.122 75.2027 148.293 75.1539 148.635 75.105C148.977 75.0562 149.05 75.105 149.148 75.5689C151.052 84.1874 158.548 89.5099 168.9 89.5099C181.254 89.5099 194.365 81.3553 194.365 66.2668C194.365 55.4997 186.112 47.931 174.32 47.931ZM65.9657 73.6889C64.0613 73.6889 63.4021 71.5892 63.4021 69.8069C63.4021 66.633 65.4285 63.8497 67.7724 63.8497C69.6523 63.8497 70.2139 65.9249 70.2139 67.7317C70.3848 70.808 68.4072 73.6889 65.9657 73.6889ZM170.56 73.6889C168.68 73.6889 167.996 71.5892 167.996 69.8069C167.996 66.633 170.047 63.8497 172.367 63.8497C174.247 63.8497 174.808 65.9249 174.808 67.7317C175.003 70.808 172.953 73.6889 170.633 73.6889H170.56Z" fill="#C2D500"/>
<path d="M206.035 5.30227C205.954 5.27549 205.867 5.27277 205.785 5.29444C205.703 5.31611 205.628 5.36124 205.571 5.42435L202.812 8.76922C202.036 9.72574 201.068 10.5089 199.97 11.0682C198.873 11.6275 197.67 11.9505 196.44 12.0164C195 12.0164 193.437 12.0164 191.728 12.0164C188.359 12.0164 185.063 12.0164 181.962 11.8455H181.693C178.519 11.8455 175.248 11.699 171.927 11.699C169.242 11.699 166.824 11.699 164.603 11.8455C163.341 11.8669 162.101 12.1747 160.976 12.7457C159.851 13.3167 158.87 14.136 158.108 15.1416C157.066 16.5034 156.416 18.1244 156.228 19.8293C155.398 26.1283 154.763 32.5739 154.129 38.8242V39.0683C154.129 40.045 153.86 41.5099 153.714 43.0724L153.567 44.3908C153.421 45.636 153.299 46.8323 153.201 47.6136L152.737 51.2759C152.727 51.3592 152.743 51.4434 152.782 51.5175C152.822 51.5916 152.882 51.6521 152.957 51.6909H153.128C153.183 51.6981 153.239 51.6906 153.29 51.6692C153.342 51.6477 153.387 51.6131 153.421 51.5689L156.033 48.932C156.033 48.932 162.845 42.4132 181.01 42.755H186.43H187.699H194.462C195.762 42.758 197.047 42.4702 198.221 41.9125C199.396 41.3549 200.43 40.5416 201.25 39.5322C202.307 38.1788 202.959 36.5534 203.13 34.8445C203.96 28.4722 204.619 22.0022 205.254 15.7275L205.84 9.89231L206.279 5.57084C206.263 5.50966 206.233 5.45326 206.19 5.40648C206.148 5.3597 206.095 5.32394 206.035 5.30227Z" fill="#E65300"/>
<path d="M191.728 14.2138C188.334 14.2138 185.014 14.2138 181.791 14.0429C178.568 13.872 175.296 13.872 172.025 13.872C169.364 13.872 166.946 13.872 164.7 14.0429C163.755 14.0539 162.824 14.2794 161.978 14.7023C161.132 15.1252 160.393 15.7346 159.817 16.4844C159.018 17.5545 158.521 18.8191 158.377 20.1467C157.547 26.4702 156.887 32.9646 156.277 39.2149C156.277 40.3868 155.96 42.1691 155.764 43.927C155.764 44.9524 155.545 45.9534 155.447 46.7835C157.742 44.9768 165.213 40.3624 181.18 40.6553H186.601H194.56C195.545 40.6496 196.517 40.428 197.407 40.0062C198.297 39.5844 199.083 38.9726 199.711 38.2138C200.53 37.1551 201.03 35.8845 201.152 34.5516C201.982 28.1792 202.641 21.7336 203.252 15.4834C203.423 13.9452 203.569 12.4071 203.74 10.8689C201.832 12.739 199.304 13.8426 196.635 13.9696C194.999 14.1894 193.437 14.2138 191.728 14.2138Z" fill="#E65300"/>
<path d="M203.813 9.59933C202.921 10.6993 201.809 11.6 200.547 12.2434C199.285 12.8868 197.903 13.2586 196.489 13.3348C194.975 13.3348 193.437 13.3348 191.728 13.3348C188.358 13.3348 185.014 13.3348 181.815 13.1639C178.617 12.993 175.296 12.993 172.049 12.993C169.364 12.993 166.946 12.993 164.725 13.1639C163.654 13.1788 162.601 13.4371 161.645 13.9194C160.689 14.4016 159.855 15.0951 159.207 15.9473C158.307 17.1219 157.757 18.5268 157.62 20.0002C156.765 26.3237 156.131 32.8181 155.496 39.1172C155.496 40.2403 155.178 42.047 154.983 43.7805C154.788 45.5139 154.666 46.7103 154.568 47.6869V48.8344L155.374 48.0043C155.374 48.0043 162.308 41.0948 181.303 41.4122H186.747H194.706C195.757 41.4024 196.793 41.1711 197.748 40.7336C198.703 40.2961 199.555 39.6621 200.249 38.873C201.157 37.7011 201.716 36.296 201.86 34.8201C202.69 28.4234 203.349 21.9778 203.96 15.7519C204.155 13.7987 204.35 11.8455 204.57 9.91673V8.5739L203.813 9.59933ZM194.438 40.8018H186.479H181.058C165.091 40.5088 157.62 45.1233 155.325 46.93C155.325 46.0999 155.52 45.0989 155.642 44.0734C155.838 42.3156 156.033 40.5333 156.155 39.3613C156.765 33.1111 157.425 26.6167 158.255 20.2931C158.399 18.9656 158.896 17.701 159.695 16.6309C160.271 15.881 161.01 15.2717 161.856 14.8488C162.702 14.4259 163.633 14.2004 164.578 14.1894C166.873 14.1894 169.29 14.0185 171.903 14.0185C175.223 14.0185 178.519 14.0185 181.669 14.1894C184.818 14.3603 188.212 14.3603 191.606 14.3603C193.315 14.3603 194.877 14.3603 196.489 14.3603C199.157 14.2332 201.686 13.1297 203.594 11.2596C203.423 12.7977 203.276 14.3359 203.105 15.874C202.495 22.1243 201.836 28.5699 201.005 34.9422C200.884 36.2752 200.384 37.5457 199.565 38.6045C198.917 39.3155 198.124 39.8796 197.239 40.2586C196.355 40.6376 195.4 40.8228 194.438 40.8018Z" fill="white"/>
<path d="M172.44 63.8497C169.998 63.8497 168.07 66.633 168.07 69.807C168.07 71.5893 168.753 73.689 170.633 73.689C172.953 73.689 175.004 70.9056 175.004 67.7317C175.004 65.925 174.32 63.8497 172.44 63.8497ZM170.633 72.8833C168.924 72.8833 168.875 70.1244 168.875 69.807C168.875 67.048 170.536 64.6554 172.44 64.6554C174.344 64.6554 174.198 67.4143 174.198 67.7317C174.198 70.4662 172.538 72.8833 170.633 72.8833Z" fill="#3DAE2B"/>
<path d="M67.8455 63.8497C65.404 63.8497 63.4752 66.633 63.4752 69.807C63.4752 71.5893 64.1344 73.689 66.0387 73.689C68.3582 73.689 70.3846 70.9056 70.3846 67.7317C70.3846 65.925 69.7254 63.8497 67.8455 63.8497ZM65.9655 72.8833C64.2564 72.8833 64.2076 70.1244 64.2076 69.807C64.2076 67.048 65.8678 64.6554 67.7722 64.6554C69.6766 64.6554 69.5301 67.4143 69.5301 67.7317C69.6033 70.4662 67.9187 72.8833 65.9655 72.8833Z" fill="#3DAE2B"/>
<path d="M26.5108 74.4214L31.2229 40.6797H14.9136L8.46802 86.7022H41.6237L43.3816 74.4214H26.5108Z" fill="#3DAE2B"/>
<path d="M32.2484 39.8008H14.1568L7.36938 87.6055H42.405L44.4071 73.518H27.5363L32.2484 39.8008ZM8.46806 86.7022L14.9136 40.7041H31.2229L26.5108 74.4214H43.3816L41.6238 86.6289L8.46806 86.7022Z" fill="white"/>
<path d="M69.701 49.9331C57.9574 49.9331 46.0672 57.2576 46.0672 71.2719C46.0672 81.0379 53.3917 87.6056 64.3053 87.6056C75.6827 87.6056 87.7926 80.159 87.7926 66.34C87.7926 56.5251 80.6146 49.9331 69.701 49.9331ZM65.9655 75.691C63.231 75.691 61.4243 73.2495 61.4243 69.8314C61.4243 65.5343 64.3297 61.8965 67.7722 61.8965C70.4823 61.8965 72.3134 64.338 72.3134 67.7561C72.3867 72.0287 69.4813 75.691 65.9655 75.691Z" fill="#3DAE2B"/>
<path d="M83.0562 53.5709C79.2674 50.4996 74.5031 48.8884 69.6279 49.0297C63.4228 48.9088 57.3728 50.9744 52.5373 54.8649C50.1267 56.8547 48.1979 59.3644 46.8955 62.2059C45.5932 65.0474 44.9511 68.1469 45.0175 71.2719C45.0175 81.575 52.6838 88.5089 64.1345 88.5089C70.2698 88.5858 76.2386 86.5128 81.0053 82.6493C83.4012 80.6698 85.3194 78.1752 86.6172 75.3514C87.915 72.5276 88.5588 69.4473 88.5008 66.34C88.5918 63.9417 88.1509 61.553 87.2096 59.3453C86.2682 57.1376 84.8498 55.1656 83.0562 53.5709ZM64.3054 87.6056C53.3919 87.6056 46.0673 81.0379 46.0673 71.2719C46.0673 57.2576 57.9575 49.9331 69.7011 49.9331C80.517 49.9331 87.7927 56.5252 87.7927 66.34C87.7927 80.159 75.7317 87.6056 64.3054 87.6056Z" fill="white"/>
<path d="M67.8457 61.8721C64.4031 61.8721 61.4977 65.5099 61.4977 69.807C61.4977 73.3227 63.3045 75.6666 66.039 75.6666C69.4815 75.6666 72.3869 72.0287 72.3869 67.7317C72.3869 64.2159 70.5557 61.8721 67.8457 61.8721ZM65.9657 74.7632C63.5242 74.7632 62.3034 72.3217 62.3034 69.8802C62.3034 66.0715 64.7449 62.8242 67.7724 62.8242C70.2139 62.8242 71.4103 65.2658 71.4103 67.7073C71.4835 71.5404 68.9932 74.7632 65.9657 74.7632Z" fill="white"/>
<path d="M114.161 76.7164C113.551 76.7521 112.94 76.6549 112.371 76.4315C111.802 76.2081 111.288 75.8638 110.865 75.4224C110.514 74.9813 110.267 74.4674 110.14 73.9183C110.013 73.3692 110.011 72.7987 110.133 72.2485L111.573 62.0674H116.847L118.434 50.812H113.185L114.356 42.2911H98.4622L97.2903 50.812H93.2618L91.6748 62.0674H95.6789L93.5792 76.7164C93.2787 78.0788 93.2735 79.4897 93.5641 80.8543C93.8547 82.2188 94.4343 83.5052 95.2638 84.6269C96.9729 86.6045 100.025 87.6056 104.346 87.6056C108.142 87.6163 111.908 86.9294 115.455 85.5791L116.725 76.4723C115.881 76.6438 115.022 76.7256 114.161 76.7164Z" fill="#3DAE2B"/>
<path d="M116.724 75.5445C115.921 75.713 115.104 75.803 114.283 75.8131C113.803 75.8478 113.321 75.7786 112.87 75.61C112.419 75.4415 112.01 75.1776 111.671 74.8365C111.408 74.4935 111.224 74.0972 111.131 73.6753C111.038 73.2535 111.039 72.8164 111.133 72.395L112.354 62.9707H117.652L119.483 49.9331H114.21L115.382 41.3878H97.7051L96.5332 49.9331H92.5047L90.6248 62.9707H94.6533L92.8221 76.5455C92.4704 78.0329 92.4477 79.5791 92.7555 81.0761C93.0633 82.5732 93.6943 83.985 94.6044 85.2129C96.4844 87.3858 99.7804 88.5089 104.37 88.5089C108.372 88.5156 112.339 87.7702 116.065 86.3116H116.309L117.799 75.4468L117.188 75.5689L116.724 75.5445ZM104.248 87.6056C99.9269 87.6056 96.9239 86.6045 95.166 84.6269C94.3463 83.4916 93.7803 82.1932 93.5065 80.8199C93.2327 79.4466 93.2574 78.0305 93.579 76.6676L95.6787 62.0185H91.6746L93.2616 50.7632H97.2901L98.462 42.2423H114.356L113.184 50.7632H118.434L116.847 62.0185H111.573L110.132 72.1996C110.01 72.7498 110.013 73.3203 110.14 73.8695C110.266 74.4186 110.514 74.9325 110.865 75.3736C111.288 75.815 111.802 76.1593 112.371 76.3827C112.94 76.6061 113.551 76.7033 114.161 76.6676C114.981 76.6684 115.799 76.5866 116.602 76.4234L115.333 85.5303C111.796 86.8943 108.039 87.5977 104.248 87.6056Z" fill="white"/>
<path d="M143.557 76.7164C142.946 76.7521 142.336 76.6549 141.766 76.4315C141.197 76.2081 140.684 75.8638 140.261 75.4224C139.906 74.9833 139.653 74.4704 139.523 73.9212C139.392 73.372 139.385 72.8005 139.504 72.2485L140.944 62.0674H145.632L147.243 50.812H142.556L143.752 42.2911H127.858L126.661 50.812H121.778L120.191 62.0674H125.074L122.975 76.7164C122.66 78.0719 122.639 79.4789 122.913 80.8432C123.187 82.2075 123.749 83.4975 124.562 84.6269C126.271 86.6045 129.445 87.6056 133.669 87.6056C137.464 87.6163 141.23 86.9294 144.777 85.5791L146.047 76.4723C145.227 76.6371 144.393 76.7189 143.557 76.7164Z" fill="#3DAE2B"/>
<path d="M141.652 62.9707H146.535L148.391 49.9331H143.581L144.778 41.3878H127.003L125.807 49.9331H120.924L119.093 62.9707H123.976L122.12 76.5455C121.769 78.0329 121.746 79.5791 122.054 81.0761C122.362 82.5732 122.993 83.985 123.903 85.2129C125.783 87.3858 129.079 88.5089 133.669 88.5089C137.67 88.5156 141.637 87.7702 145.364 86.3116H145.583L147.097 75.4468L146.487 75.5689H146.12C145.317 75.7392 144.5 75.8291 143.679 75.8375C143.195 75.8726 142.709 75.8036 142.255 75.6351C141.8 75.4667 141.386 75.2026 141.042 74.8609C140.784 74.516 140.604 74.1187 140.515 73.6969C140.427 73.2751 140.432 72.8391 140.529 72.4194L141.652 62.9707ZM133.644 87.6056C129.323 87.6056 126.32 86.6045 124.537 84.6269C123.722 83.4897 123.16 82.1904 122.891 80.8172C122.621 79.4439 122.65 78.0288 122.975 76.6676L125.075 62.0185H120.192L121.779 50.7632H126.662L127.858 42.2423H143.752L142.556 50.7632H147.244L145.632 62.0185H140.944L139.504 72.1996C139.385 72.7516 139.392 73.3232 139.523 73.8724C139.654 74.4216 139.906 74.9345 140.261 75.3736C140.684 75.815 141.198 76.1593 141.767 76.3827C142.336 76.6061 142.947 76.7033 143.557 76.6676C144.377 76.6668 145.195 76.585 145.998 76.4234L144.729 85.5303C141.192 86.8943 137.435 87.5977 133.644 87.6056Z" fill="white"/>
<path d="M174.32 49.9331C162.576 49.9331 150.686 57.2576 150.686 71.2719C150.686 81.0379 158.011 87.6056 168.9 87.6056C180.277 87.6056 192.387 80.159 192.387 66.34C192.387 56.5251 185.136 49.9331 174.32 49.9331ZM170.633 75.691C167.923 75.691 166.068 73.2495 166.068 69.807C166.068 65.5099 168.973 61.8721 172.415 61.8721C175.126 61.8721 176.957 64.3136 176.957 67.7317C176.981 72.0287 174.076 75.691 170.633 75.691Z" fill="#3DAE2B"/>
<path d="M187.748 53.5709C183.957 50.5035 179.194 48.8928 174.32 49.0297C168.116 48.915 162.068 50.9799 157.229 54.8649C154.823 56.8582 152.897 59.3686 151.595 62.2092C150.293 65.0499 149.648 68.1476 149.709 71.2719C149.709 81.575 157.4 88.5089 168.826 88.5089C174.969 88.5854 180.945 86.5127 185.722 82.6493C188.117 80.6698 190.036 78.1752 191.333 75.3514C192.631 72.5275 193.275 69.4472 193.217 66.34C193.3 63.9405 192.853 61.5522 191.908 59.3451C190.962 57.1381 189.542 55.1665 187.748 53.5709ZM168.9 87.6056C158.01 87.6056 150.686 81.0379 150.686 71.2719C150.686 57.2576 162.576 49.9331 174.32 49.9331C185.136 49.9331 192.387 56.5251 192.387 66.34C192.387 80.1589 180.277 87.6056 168.9 87.6056Z" fill="white"/>
<path d="M172.44 61.8721C168.997 61.8721 166.092 65.5099 166.092 69.807C166.092 73.3227 167.923 75.6666 170.633 75.6666C174.076 75.6666 176.981 72.0287 176.981 67.7317C176.981 64.2159 175.15 61.8721 172.44 61.8721ZM170.633 74.7632C168.192 74.7632 166.995 72.3217 166.995 69.8802C166.995 66.0715 169.437 62.8242 172.44 62.8242C174.881 62.8242 176.078 65.2658 176.078 67.7073C176.078 71.5404 173.587 74.7632 170.633 74.7632Z" fill="white"/>
<path d="M162.356 22.4417C162.356 22.4417 162.356 22.2219 162.356 22.1487C162.253 22.1009 162.17 22.0187 162.121 21.9162C162.072 21.8137 162.06 21.6974 162.088 21.5871C162.088 21.4618 162.125 21.3393 162.194 21.235C162.264 21.1307 162.363 21.0494 162.478 21.0012L162.625 20.7082L162.942 17.0948C162.959 16.9604 163.021 16.8359 163.119 16.7425C163.217 16.649 163.345 16.5923 163.479 16.582H168.363L168.216 17.9249H164.48L164.163 20.9279H167.166V22.2708H164.017L163.87 23.7357C163.863 23.765 163.862 23.7958 163.868 23.8255C163.875 23.8551 163.888 23.8829 163.907 23.9066C163.926 23.9303 163.95 23.9493 163.977 23.962C164.005 23.9747 164.035 23.9808 164.065 23.9798H167.557V25.3226H163.626C163.434 25.3242 163.244 25.2847 163.069 25.2068C162.894 25.1289 162.738 25.0144 162.611 24.871C162.483 24.7276 162.388 24.5586 162.332 24.3754C162.275 24.1922 162.259 23.999 162.283 23.8089L162.356 22.4417Z" fill="white"/>
<path d="M173.221 21.0012L175.419 25.3226H173.392L172.098 22.5637L170.194 25.3226H168.265L171.39 21.0012L169.193 16.582H171.097L172.464 19.5363L174.442 16.6797H176.346L173.221 21.0012Z" fill="white"/>
<path d="M178.861 18.169C178.869 18.1396 178.869 18.1089 178.863 18.0792C178.857 18.0496 178.843 18.0218 178.824 17.9981C178.806 17.9744 178.781 17.9554 178.754 17.9427C178.726 17.93 178.696 17.9239 178.666 17.9249H176.713V16.582H182.743L182.597 17.9249H180.717C180.652 17.9332 180.592 17.9611 180.544 18.0048C180.496 18.0484 180.462 18.1057 180.448 18.169L179.691 25.3226H178.055L178.861 18.169Z" fill="white"/>
<path d="M183.598 22.4417C183.598 22.4417 183.598 22.2219 183.598 22.1487C183.531 22.1428 183.466 22.1233 183.408 22.0914C183.349 22.0595 183.297 22.0159 183.256 21.9632C183.215 21.9106 183.185 21.85 183.168 21.7853C183.151 21.7207 183.148 21.6532 183.158 21.5871C183.158 21.4618 183.195 21.3393 183.265 21.235C183.334 21.1307 183.433 21.0494 183.549 21.0012L183.695 20.7082L184.184 17.0948C184.2 16.9604 184.263 16.8359 184.361 16.7425C184.459 16.649 184.586 16.5923 184.721 16.582H186.821C189.262 16.582 190.092 17.6563 189.897 19.3898C189.863 19.8985 189.7 20.3902 189.422 20.8177C189.144 21.2452 188.761 21.5942 188.31 21.8313C188.409 22.5526 188.623 23.2533 188.945 23.9066C188.971 23.9195 189.001 23.9263 189.03 23.9263C189.06 23.9263 189.089 23.9195 189.116 23.9066H189.482C189.561 23.9052 189.64 23.9216 189.713 23.9545C189.785 23.9874 189.849 24.0359 189.901 24.0967C189.952 24.1574 189.989 24.2288 190.01 24.3057C190.03 24.3826 190.033 24.4631 190.019 24.5414C190.019 25.2006 189.091 25.3226 188.652 25.3226C187.309 25.3226 186.991 23.7357 186.723 22.1487H185.258L184.941 25.2006H183.305L183.598 22.4417ZM186.357 20.9279C187.651 20.9279 188.188 20.2931 188.285 19.3898C188.383 18.4864 187.968 17.9249 186.674 17.9249H185.722L185.404 20.9279H186.357Z" fill="white"/>
<path d="M191.557 22.4417C191.557 22.4417 191.557 22.2219 191.557 22.1487C191.459 22.0946 191.381 22.0114 191.333 21.9108C191.285 21.8102 191.269 21.697 191.288 21.5871C191.291 21.4625 191.33 21.3413 191.399 21.2376C191.468 21.1339 191.565 21.0519 191.679 21.0012L191.825 20.7082V19.6339C191.863 18.7704 192.237 17.9558 192.866 17.3631C193.495 16.7704 194.33 16.4464 195.195 16.46C195.593 16.4311 195.992 16.4937 196.362 16.643C196.732 16.7923 197.063 17.0243 197.329 17.3213C197.595 17.6183 197.79 17.9724 197.898 18.3563C198.007 18.7402 198.026 19.1439 197.954 19.5363L197.514 23.7357C197.514 23.931 197.514 24.0042 197.636 24.0042C197.758 24.0042 197.929 24.0042 198.076 24.0042C198.159 23.9966 198.244 24.0097 198.321 24.0423C198.398 24.0748 198.467 24.1259 198.52 24.191C198.573 24.2561 198.609 24.3332 198.625 24.4156C198.641 24.498 198.637 24.5831 198.613 24.6634C198.613 25.3471 197.661 25.4447 197.172 25.4447C196.684 25.4447 195.756 24.932 195.878 23.8577L196.049 22.2708H193.217L192.924 25.3227H191.288L191.557 22.4417ZM196.44 19.6339C196.44 18.5841 196.098 17.8516 195.219 17.8516C194.34 17.8516 193.73 18.5841 193.608 19.6339L193.461 20.9279H196.318L196.44 19.6339Z" fill="white"/>
<path d="M161.819 35.0154C161.984 35.4347 162.274 35.7931 162.65 36.042C163.026 36.291 163.469 36.4184 163.919 36.4071C164.969 36.4071 165.677 35.9921 165.75 35.1619C165.994 32.9646 160.867 34.0877 161.282 30.1324C161.415 29.3001 161.854 28.5475 162.514 28.0232C163.174 27.4989 164.006 27.241 164.847 27.3003C166.629 27.3003 168.021 28.2281 167.874 29.7418C167.863 30.0925 167.722 30.4266 167.478 30.6792C167.235 30.9318 166.906 31.085 166.556 31.109C166.444 31.1205 166.331 31.1069 166.225 31.0692C166.119 31.0316 166.023 30.9708 165.944 30.8913C165.864 30.8118 165.803 30.7156 165.766 30.6097C165.728 30.5037 165.714 30.3908 165.726 30.2789C165.726 29.8639 165.97 29.7662 165.994 29.5709C166.019 29.3756 165.408 28.8873 164.627 28.8873C164.441 28.8705 164.253 28.8908 164.075 28.9469C163.897 29.0029 163.732 29.0937 163.589 29.214C163.446 29.3343 163.328 29.4817 163.242 29.6477C163.156 29.8137 163.104 29.995 163.089 30.1813C162.869 32.2077 167.972 31.4997 167.63 35.0643C167.52 35.9845 167.055 36.8254 166.335 37.4088C165.615 37.9922 164.696 38.2722 163.773 38.1894C163.095 38.2583 162.412 38.1231 161.812 37.8012C161.211 37.4792 160.721 36.9853 160.403 36.3827L161.819 35.0154Z" fill="white"/>
<path d="M171.463 37.9941H169.486L170.413 29.3023C170.413 29.0826 170.413 29.0093 170.267 29.0093C170.12 29.0093 169.949 29.0093 169.73 29.0093C169.632 29.011 169.535 28.9909 169.446 28.9504C169.357 28.91 169.278 28.8501 169.214 28.7753C169.151 28.7005 169.106 28.6126 169.081 28.5179C169.056 28.4233 169.052 28.3242 169.071 28.2281C169.071 27.4468 170.096 27.2759 170.78 27.2759C171.023 27.2467 171.269 27.278 171.497 27.3669C171.725 27.4558 171.928 27.5995 172.087 27.7854C172.247 27.9713 172.358 28.1936 172.411 28.4326C172.464 28.6716 172.457 28.9201 172.391 29.1558L172.025 32.6472H175.394L175.833 27.4468H177.811L176.688 37.9941H174.71L175.101 34.3074H171.854L171.463 37.9941Z" fill="white"/>
<path d="M184.721 27.3003C185.413 27.2537 186.107 27.3689 186.747 27.6369C187.387 27.9049 187.955 28.3182 188.408 28.8442C188.86 29.3701 189.184 29.9942 189.354 30.667C189.523 31.3399 189.533 32.0429 189.384 32.7204C189.308 34.2013 188.66 35.5948 187.575 36.6062C186.491 37.6177 185.056 38.1679 183.573 38.1406C182.879 38.1912 182.183 38.0789 181.539 37.8127C180.896 37.5465 180.324 37.1337 179.869 36.6072C179.413 36.0807 179.087 35.4551 178.917 34.7803C178.746 34.1055 178.735 33.4001 178.886 32.7204C178.967 31.2374 179.621 29.8439 180.71 28.833C181.798 27.8222 183.236 27.2727 184.721 27.3003ZM183.744 36.4804C184.722 36.4488 185.65 36.0395 186.333 35.3385C187.016 34.6374 187.401 33.6991 187.406 32.7204C187.651 30.4987 186.527 28.9605 184.55 28.9605C183.569 28.9919 182.639 29.4003 181.952 30.1007C181.265 30.8012 180.875 31.7396 180.863 32.7204C180.717 34.9422 181.742 36.4804 183.744 36.4804Z" fill="white"/>
<path d="M193.291 29.3023C193.291 29.2311 193.262 29.1628 193.212 29.1124C193.161 29.062 193.093 29.0337 193.022 29.0337H190.58L190.751 27.3979H198.076L197.905 29.0337H195.463C195.426 29.0664 195.397 29.1083 195.38 29.1553C195.363 29.2023 195.358 29.2529 195.366 29.3023L194.438 37.9452H192.46L193.291 29.3023Z" fill="white"/>
<path d="M174.32 47.1497C167.694 47.0493 161.243 49.269 156.082 53.4244C153.462 55.5908 151.365 58.3212 149.949 61.4118C148.533 64.5023 147.833 67.873 147.903 71.2718C147.903 71.7601 147.903 72.4926 147.903 73.2251L146.047 73.6157H145.681C144.959 73.7768 144.223 73.8587 143.483 73.8598C143.06 73.9004 142.635 73.7878 142.287 73.5424C142.171 73.2272 142.171 72.8811 142.287 72.5658L143.386 64.7774H147.732C147.827 64.7782 147.92 64.7438 147.992 64.6808C148.064 64.6178 148.11 64.5305 148.122 64.4356L150.417 48.4193C150.459 48.3177 150.459 48.2035 150.417 48.1019C150.338 48.0262 150.234 47.9826 150.124 47.9798H145.754L146.877 39.8984C146.917 39.7963 146.917 39.6832 146.877 39.581C146.839 39.5337 146.791 39.4958 146.736 39.4703C146.681 39.4449 146.62 39.4326 146.56 39.4346H125.783C125.687 39.4338 125.594 39.4682 125.522 39.5312C125.45 39.5942 125.404 39.6814 125.392 39.7764L124.244 47.9798H116.358L117.481 39.8984C117.505 39.8489 117.518 39.7947 117.518 39.7397C117.518 39.6848 117.505 39.6306 117.481 39.581C117.449 39.5341 117.405 39.496 117.354 39.4704C117.302 39.4448 117.246 39.4325 117.188 39.4346H96.3868C96.2911 39.4338 96.1985 39.4682 96.1265 39.5312C96.0545 39.5942 96.0081 39.6814 95.9961 39.7764L94.873 47.9798H91.2108C91.1151 47.9791 91.0225 48.0135 90.9505 48.0765C90.8785 48.1395 90.8321 48.2267 90.8201 48.3217L89.282 59.0887C86.401 51.6177 79.0521 47.0765 69.7499 47.0765C63.1313 46.9714 56.6857 49.1919 51.5362 53.3512C48.9163 55.5175 46.8198 58.248 45.4035 61.3385C43.9872 64.429 43.2876 67.7997 43.3572 71.1986V71.516H29.758L34.4213 38.2382C34.4532 38.1348 34.4532 38.0242 34.4213 37.9208C34.3347 37.8414 34.2213 37.7978 34.1039 37.7987H12.8627C12.7655 37.8017 12.672 37.8369 12.5968 37.8988C12.5217 37.9606 12.4693 38.0457 12.4477 38.1406L5.31847 89.0216C5.27893 89.1237 5.27893 89.2369 5.31847 89.339C5.35379 89.3832 5.39828 89.4192 5.44887 89.4445C5.49945 89.4697 5.55493 89.4838 5.61145 89.4855H43.699C43.7947 89.4863 43.8873 89.4519 43.9593 89.3889C44.0313 89.3259 44.0777 89.2386 44.0896 89.1437L45.3592 80.2322C48.6309 86.6045 55.6136 90.34 64.3053 90.34C77.0256 90.34 90.576 81.9168 90.576 66.2667C90.6012 65.7788 90.6012 65.2898 90.576 64.8018H92.5292L90.8934 76.2281C90.4962 77.9828 90.4871 79.803 90.8667 81.5615C91.2462 83.3201 92.0053 84.9745 93.0907 86.4092C95.2637 89.0949 98.9992 90.34 104.248 90.34C108.507 90.3109 112.723 89.4827 116.676 87.8985L117.701 87.4835C117.764 87.4563 117.817 87.4121 117.856 87.3561C117.895 87.3 117.917 87.2342 117.921 87.1661L119.825 73.4448C119.833 73.382 119.827 73.3182 119.806 73.2583C119.786 73.1984 119.752 73.144 119.707 73.0992C119.662 73.0544 119.608 73.0205 119.548 73C119.488 72.9795 119.424 72.9729 119.361 72.9809L116.749 73.4692H116.358C115.637 73.6319 114.9 73.7138 114.161 73.7134C113.737 73.7496 113.314 73.6374 112.965 73.396C112.849 73.0807 112.849 72.7346 112.965 72.4194L114.088 64.6309H121.949L120.314 76.0572C119.92 77.8136 119.915 79.6349 120.298 81.3935C120.682 83.1521 121.446 84.8056 122.535 86.2383C124.83 88.8751 128.493 90.1691 133.742 90.1691C138.001 90.14 142.216 89.3118 146.169 87.7276L147.17 87.3126C147.234 87.2845 147.29 87.2408 147.333 87.1853C147.376 87.1298 147.404 87.0644 147.414 86.9952L148.83 76.8629C151.174 85.457 158.743 90.34 168.9 90.34C181.644 90.34 195.17 81.9168 195.17 66.2912C195.17 55.0358 186.601 47.1497 174.32 47.1497ZM168.9 89.5832C158.548 89.5832 151.052 84.2607 149.148 75.6421C149.148 75.2271 148.977 75.105 148.635 75.1783C148.293 75.2515 148.196 75.1783 148.122 75.7642L146.535 86.9707L145.73 87.3126C141.842 88.8394 137.699 89.6101 133.522 89.5832C128.639 89.5832 125.05 88.3868 122.926 85.9209C121.915 84.5725 121.21 83.0199 120.86 81.3713C120.51 79.7226 120.523 78.0175 120.9 76.3746L122.584 64.5089C122.608 64.4593 122.62 64.4051 122.62 64.3502C122.62 64.2952 122.608 64.241 122.584 64.1915C122.544 64.1466 122.495 64.1105 122.441 64.0853C122.386 64.0601 122.327 64.0464 122.267 64.045H113.624C113.528 64.0442 113.436 64.0786 113.364 64.1416C113.292 64.2046 113.245 64.2919 113.233 64.3868L112.086 72.517C112.008 72.7887 111.992 73.0743 112.038 73.353C112.085 73.6317 112.193 73.8966 112.354 74.1284C112.601 74.3418 112.888 74.5036 113.198 74.6043C113.509 74.7049 113.836 74.7424 114.161 74.7144C114.981 74.7234 115.8 74.6415 116.602 74.4702L119.044 74.0308L117.237 86.9707L116.432 87.3126C112.544 88.8394 108.401 89.6101 104.224 89.5832C99.341 89.5832 95.7764 88.3868 93.6279 85.9209C92.6167 84.5725 91.9116 83.0199 91.5616 81.3713C91.2116 79.7226 91.2252 78.0175 91.6014 76.3746L93.3105 64.5089C93.3458 64.406 93.3458 64.2943 93.3105 64.1915C93.2726 64.1441 93.2242 64.1062 93.1691 64.0807C93.114 64.0553 93.0537 64.0431 92.9931 64.045H90.1121C90.0568 64.0378 90.0007 64.0453 89.9492 64.0668C89.8978 64.0882 89.8529 64.1228 89.8191 64.1671C89.7746 64.2061 89.7403 64.2554 89.719 64.3107C89.6977 64.366 89.6902 64.4256 89.697 64.4844C89.7352 65.0942 89.7352 65.7058 89.697 66.3156C89.697 81.4041 76.5617 89.5588 64.2321 89.5588C55.3206 89.5588 48.3135 85.4814 45.4569 78.6452C45.4174 78.5644 45.3541 78.4977 45.2755 78.4541C45.1969 78.4104 45.1068 78.3919 45.0174 78.4011C44.9319 78.4152 44.8529 78.4558 44.7916 78.5171C44.7303 78.5784 44.6897 78.6573 44.6756 78.7429L43.2595 88.6554H6.173L13.2045 38.7021H33.5179L28.8546 71.9799C28.8324 72.0298 28.8209 72.0839 28.8209 72.1386C28.8209 72.1933 28.8324 72.2473 28.8546 72.2973C28.8873 72.3443 28.9312 72.3823 28.9824 72.4079C29.0336 72.4335 29.0904 72.4458 29.1476 72.4438H43.6013C43.6958 72.4794 43.7999 72.4794 43.8943 72.4438C43.9701 72.3647 44.0136 72.2602 44.0164 72.1508C44.0042 71.9475 44.0042 71.7437 44.0164 71.5404C43.9481 68.2565 44.6243 64.9997 45.9943 62.0144C47.3643 59.0292 49.3926 56.3929 51.9269 54.3034C56.9343 50.2658 63.1961 48.1065 69.6278 48.1996C79.2718 48.1996 86.7184 53.2047 88.9646 61.2617C88.9646 61.3653 89.0057 61.4646 89.079 61.5379C89.1523 61.6111 89.2516 61.6523 89.3552 61.6523C89.4588 61.6523 89.5582 61.6111 89.6315 61.5379C89.7047 61.4646 89.7459 61.3653 89.7459 61.2617L91.4793 49.0541H95.2637C95.3594 49.0549 95.452 49.0205 95.524 48.9575C95.596 48.8945 95.6424 48.8072 95.6543 48.7123L96.7774 40.5332H116.676L115.553 48.6146C115.521 48.718 115.521 48.8287 115.553 48.932C115.632 49.0078 115.736 49.0513 115.846 49.0541H124.562C124.657 49.0549 124.75 49.0205 124.822 48.9575C124.894 48.8945 124.94 48.8072 124.952 48.7123L126.076 40.5332H145.974L144.851 48.6146C144.809 48.7163 144.809 48.8304 144.851 48.932C144.928 49.0099 145.034 49.0538 145.144 49.0541H149.392L147.219 64.2647H143.02C142.924 64.264 142.831 64.2984 142.759 64.3614C142.687 64.4244 142.641 64.5116 142.629 64.6065L141.481 72.7368C141.404 73.0084 141.388 73.294 141.434 73.5727C141.481 73.8514 141.589 74.1163 141.75 74.3481C141.997 74.5616 142.284 74.7234 142.594 74.824C142.904 74.9247 143.232 74.9621 143.557 74.9341C144.377 74.9416 145.196 74.8597 145.998 74.69L148.586 74.1528C148.683 74.1298 148.768 74.0727 148.827 73.9921C148.885 73.9114 148.912 73.8125 148.904 73.7134C148.863 72.9733 148.863 72.2316 148.904 71.4916C148.836 68.2102 149.51 64.9558 150.875 61.9712C152.241 58.9866 154.263 56.3488 156.79 54.2545C161.806 50.2152 168.076 48.0561 174.515 48.1507C186.308 48.1507 194.56 55.7194 194.56 66.5597C194.365 81.4285 181.254 89.5832 168.9 89.5832Z" fill="#3DAE2B"/>
<path d="M214.898 10.4539C214.922 11.0965 214.754 11.7318 214.417 12.2792C214.079 12.8265 213.586 13.2613 213.001 13.5284C212.416 13.7954 211.765 13.8828 211.13 13.7793C210.496 13.6758 209.906 13.3862 209.436 12.9471C208.966 12.5081 208.637 11.9394 208.491 11.3131C208.344 10.6869 208.387 10.0313 208.614 9.42945C208.841 8.82763 209.241 8.30671 209.764 7.93271C210.288 7.55872 210.91 7.3485 211.553 7.32872C212.41 7.30233 213.243 7.61615 213.87 8.20165C214.496 8.78716 214.866 9.59681 214.898 10.4539ZM214.287 10.4539C214.287 9.93233 214.133 9.42253 213.843 8.98891C213.553 8.55528 213.141 8.21731 212.66 8.01774C212.178 7.81816 211.648 7.76594 211.136 7.86769C210.625 7.96943 210.155 8.22056 209.786 8.58933C209.417 8.9581 209.166 9.42794 209.064 9.93943C208.963 10.4509 209.015 10.9811 209.214 11.4629C209.414 11.9447 209.752 12.3566 210.186 12.6463C210.619 12.936 211.129 13.0907 211.651 13.0907C212.335 13.0715 212.984 12.7845 213.459 12.2914C213.934 11.7982 214.196 11.1384 214.19 10.4539H214.287ZM212.359 10.8201L213.116 12.0897H212.456L211.748 10.8933H211.162V12.2117H210.528V8.72038H211.919C212.066 8.71687 212.213 8.74372 212.349 8.79924C212.486 8.85476 212.61 8.93777 212.713 9.04311C212.816 9.14845 212.896 9.27387 212.948 9.41156C213.001 9.54924 213.025 9.69627 213.018 9.84347C213.019 10.0675 212.945 10.2854 212.808 10.4625C212.671 10.6395 212.478 10.7654 212.261 10.8201H212.359ZM211.162 10.3074H211.87C211.938 10.3142 212.007 10.3067 212.072 10.2852C212.137 10.2637 212.197 10.2289 212.248 10.1828C212.298 10.1368 212.339 10.0806 212.366 10.0179C212.394 9.95526 212.408 9.88751 212.407 9.81906C212.411 9.74859 212.4 9.67811 212.374 9.61248C212.348 9.54685 212.308 9.48764 212.257 9.4389C212.206 9.39017 212.145 9.35309 212.078 9.3302C212.011 9.30732 211.941 9.29918 211.87 9.30634H211.162V10.3074Z" fill="#E65300"/>
</svg>
