<svg width="221" height="87" viewBox="0 0 221 87" fill="none" xmlns="http://www.w3.org/2000/svg">
<g clip-path="url(#clip0)">
<path d="M219.256 9.62942C218.79 8.87987 218.141 8.2615 217.369 7.8327C216.598 7.4039 215.73 7.17883 214.847 7.17875H214.488C210.021 7.48059 187.897 8.73827 183.811 8.93231C183.26 8.95738 182.717 9.07019 182.201 9.26649C180.474 8.89273 178.711 8.71076 176.944 8.72389C176.488 8.72389 176.024 8.72389 175.55 8.75264C172.185 8.8975 168.855 9.502 165.654 10.5493C165.051 9.91599 164.397 9.33312 163.699 8.80654C160.027 6.03246 155.136 4.68136 148.751 4.68136C148.176 4.68136 147.587 4.68136 146.994 4.71729C143.458 4.84186 139.924 4.95206 136.393 5.04788C135.344 5.07477 134.328 5.41921 133.478 6.03574C132.629 6.65226 131.986 7.51187 131.636 8.5011L131.028 10.2259C128.445 10.2619 104.711 10.3625 102.044 10.3517C102.153 9.61929 102.105 8.87199 101.901 8.15996C101.698 7.44793 101.345 6.78762 100.865 6.22335C100.386 5.65909 99.7911 5.20391 99.1212 4.88838C98.4513 4.57284 97.7216 4.40424 96.9812 4.39389C92.9423 4.3364 88.9033 4.25495 84.8644 4.14954H84.7279C83.6611 4.14951 82.6203 4.47827 81.7471 5.09104C80.8739 5.70382 80.2108 6.57083 79.8481 7.57402C79.46 8.63286 79.0743 9.6953 78.691 10.7613C76.3966 10.025 74.0069 9.62795 71.5977 9.58271H70.9006C68.8232 9.57713 66.7532 9.82939 64.738 10.3337C63.9974 9.91082 63.1648 9.67521 62.3125 9.64739C58.2735 9.52162 32.8936 8.67718 31.7258 8.68437C31.9528 7.9423 32.0106 7.15881 31.8952 6.39143C31.7797 5.62406 31.4939 4.89229 31.0586 4.24986C30.6233 3.60744 30.0496 3.07067 29.3797 2.67897C28.7098 2.28728 27.9607 2.05061 27.1874 1.98634C23.134 1.64856 19.0795 1.28923 15.0238 0.90833C14.8603 0.890991 14.696 0.882594 14.5315 0.883177C13.4054 0.883592 12.31 1.25009 11.4104 1.9274C10.5107 2.60472 9.85567 3.55615 9.54394 4.63824C6.36741 15.6519 3.22681 27.0644 0.211982 38.5596C0.0093203 39.3285 -0.0138884 40.1338 0.144149 40.9131C0.302185 41.6925 0.637239 42.4251 1.12343 43.0544C1.60963 43.6837 2.23395 44.1928 2.94819 44.5424C3.66243 44.892 4.44747 45.0728 5.24269 45.0708C5.36846 45.0708 5.49782 45.0708 5.62718 45.0708C9.69127 44.7725 13.7985 44.4922 17.9129 44.2263L8.39407 79.6209C8.18769 80.3917 8.1616 81.1996 8.3178 81.9821C8.474 82.7645 8.8083 83.5005 9.29478 84.1329C9.78127 84.7654 10.4069 85.2772 11.1231 85.6289C11.8393 85.9806 12.6269 86.1626 13.4248 86.1609H42.6316C43.7752 86.1645 44.888 85.7907 45.7976 85.0975C46.7071 84.4043 47.3626 83.4303 47.6623 82.3267V82.2513L47.9031 81.3637C51.8558 84.7379 57.156 86.707 63.2108 86.707C72.072 86.707 79.1761 82.8729 83.9481 77.3643L83.3372 79.6461C83.1303 80.4128 83.1027 81.2169 83.2567 81.996C83.4106 82.7751 83.742 83.5083 84.225 84.1387C84.708 84.769 85.3298 85.2797 86.042 85.631C86.7542 85.9823 87.5378 86.1648 88.332 86.1644H101.336C102.475 86.1648 103.582 85.7896 104.485 85.0971C105.389 84.4046 106.039 83.4333 106.335 82.3339L112.271 60.2491H118.728L113.518 79.6533C113.312 80.4202 113.285 81.2244 113.439 82.0035C113.594 82.7825 113.925 83.5156 114.409 84.1459C114.892 84.7761 115.514 85.2867 116.226 85.638C116.938 85.9893 117.722 86.1719 118.516 86.1716H131.517C132.655 86.1718 133.761 85.7965 134.664 85.1039C135.567 84.4114 136.217 83.4402 136.512 82.3411L141.618 63.361C141.596 64.0545 141.593 64.1803 141.593 64.3024C141.593 77.2924 151.216 86.7214 164.475 86.7214C181.504 86.7214 192.044 72.5779 192.044 59.4694C192.044 59.3148 192.044 59.1675 192.022 59.0166C193.471 58.9059 194.867 58.419 196.07 57.6041C197.273 56.7892 198.244 55.6744 198.884 54.3699C199.525 53.0654 199.815 51.6162 199.724 50.1656C199.634 48.715 199.166 47.3131 198.368 46.0985C200.051 44.7023 201.543 43.0906 202.806 41.3049C208.516 32.9216 214.078 24.0568 219.335 14.9763C219.808 14.1618 220.051 13.2338 220.037 12.2919C220.023 11.35 219.753 10.4297 219.256 9.62942Z" fill="white"/>
<path d="M36.6596 42.7494H23.6588L13.4105 80.9145H42.6174L45.9161 68.7582H29.6921L36.6596 42.7494Z" fill="#0093D0"/>
<path d="M67.8715 42.2068C54.0479 42.2068 45.4921 53.6553 45.4921 64.2629C45.4921 74.4034 52.7686 81.4859 63.1822 81.4859C77.0023 81.4859 85.5581 70.0374 85.5581 59.4298C85.5616 49.275 78.2851 42.2068 67.8715 42.2068ZM64.0015 69.2253C60.444 69.2253 58.5611 67.3424 58.5611 63.7814C58.5611 59.3651 62.0359 54.4386 67.0235 54.4386C70.5809 54.4386 72.4638 56.3216 72.4638 59.879C72.4782 64.2988 69.0034 69.2253 64.0015 69.2253Z" fill="#0093D0"/>
<path d="M169.158 42.2068C155.334 42.2068 146.778 53.6553 146.778 64.2629C146.778 74.4034 154.051 81.4859 164.468 81.4859C178.288 81.4859 186.844 70.0374 186.844 59.4298C186.844 49.275 179.571 42.2068 169.158 42.2068ZM165.302 69.2397C161.741 69.2397 159.862 67.3568 159.862 63.7958C159.862 59.3795 163.336 54.453 168.324 54.453C171.881 54.453 173.764 56.3359 173.764 59.8934C173.764 64.2988 170.29 69.2253 165.302 69.2253V69.2397Z" fill="#0093D0"/>
<path d="M120.536 42.7494H119.753H88.6592L85.3893 54.9992H95.271L88.3035 80.9145H101.308L108.275 54.9992H116.001H118.197H125.477L118.516 80.9145H131.517L138.485 54.9992H148.377L151.654 42.7494H120.536Z" fill="#0093D0"/>
<path d="M120.317 43.619H119.102H89.3238L86.521 54.1296H96.4027L89.4388 80.045H100.643L107.61 54.1296H115.85H117.507H126.612L119.652 80.045H130.852L137.816 54.1296H147.709L150.522 43.619H120.317Z" fill="white"/>
<path d="M14.5425 80.045L24.3236 43.619H35.5277L28.5602 69.6278H44.777L41.9526 80.045H14.5425Z" fill="white"/>
<path d="M16.5261 78.5214L25.4916 45.139H33.5443L26.5768 71.1514H42.79L40.7885 78.5214H16.5261Z" fill="#00A4E4"/>
<path d="M63.1823 80.6019C53.279 80.6019 46.3618 73.8787 46.3618 64.2485C46.3618 54.0614 54.587 43.0477 67.8717 43.0477C77.775 43.0477 84.6922 49.7709 84.6922 59.4011C84.6922 69.6026 76.467 80.6019 63.1823 80.6019ZM67.038 53.5691C61.5402 53.5691 57.6953 58.9591 57.6953 63.7814C57.6953 67.7952 59.995 70.0949 64.0052 70.0949C69.5031 70.0949 73.348 64.7049 73.348 59.879C73.3444 55.8616 71.0482 53.5691 67.038 53.5691Z" fill="white"/>
<path d="M63.1823 79.0819C54.1738 79.0819 47.8854 72.9732 47.8854 64.2485C47.8854 54.7908 55.5249 44.5821 67.8717 44.5821C76.8766 44.5821 83.1686 50.6908 83.1686 59.4155C83.1686 68.8732 75.5255 79.0819 63.1823 79.0819ZM67.038 52.0491C60.6418 52.0491 56.186 58.2332 56.186 63.7814C56.186 68.6145 59.1865 71.6185 64.016 71.6185C70.4122 71.6185 74.8679 65.4307 74.8679 59.879C74.8679 55.0495 71.8675 52.0491 67.038 52.0491Z" fill="#00A4E4"/>
<path d="M164.468 80.6019C154.565 80.6019 147.648 73.8787 147.648 64.2485C147.648 54.0614 155.869 43.0477 169.158 43.0477C179.057 43.0477 185.975 49.7709 185.975 59.4011C185.975 69.6026 177.753 80.6019 164.468 80.6019ZM168.324 53.5691C162.826 53.5691 158.981 58.9591 158.981 63.7814C158.981 67.7952 161.281 70.0949 165.291 70.0949C170.789 70.0949 174.634 64.7049 174.634 59.879C174.634 55.8616 172.334 53.5691 168.324 53.5691Z" fill="white"/>
<path d="M164.468 79.0819C155.46 79.0819 149.168 72.9732 149.168 64.2485C149.168 54.7908 156.811 44.5821 169.158 44.5821C178.163 44.5821 184.455 50.6908 184.455 59.4155C184.455 68.8732 176.811 79.0819 164.468 79.0819ZM168.324 52.0491C161.928 52.0491 157.472 58.2332 157.472 63.7814C157.472 68.6145 160.472 71.6185 165.302 71.6185C171.695 71.6185 176.154 65.4307 176.154 59.879C176.154 55.0495 173.153 52.0491 168.324 52.0491Z" fill="#00A4E4"/>
<path d="M91.4224 78.5214L98.39 52.606H88.5046L90.4954 45.139H118.333L116.335 52.606H106.443L99.4752 78.5214H91.4224Z" fill="#00A4E4"/>
<path d="M121.596 78.5214L128.556 52.606H118.664L120.665 45.139H148.499L146.505 52.606H136.613L129.645 78.5214H121.596Z" fill="#00A4E4"/>
<path d="M201.394 13.1581C199.887 15.7932 198.382 18.3781 196.88 20.9126C196.691 18.4188 196.503 15.9346 196.316 13.4599C192.244 13.6827 188.161 13.8912 184.067 14.0852C184.135 14.5739 184.207 15.0662 184.275 15.5585C182.245 14.2972 179.338 13.7618 175.787 13.9091C172.598 14.0386 169.447 14.6566 166.445 15.7417C165.726 16.0076 165.013 16.27 164.307 16.5287C164.812 18.5386 165.316 20.5544 165.819 22.5763C165.341 22.7598 164.874 22.9722 164.422 23.2123C164.53 22.5507 164.583 21.8812 164.58 21.2108C164.58 17.6786 163.275 14.9404 160.591 12.9066C157.558 10.6176 153.045 9.6438 147.206 9.86299C143.656 9.99236 140.105 10.1037 136.555 10.1972C135.944 11.9148 135.333 13.6276 134.722 15.3357C130.928 15.398 127.133 15.4447 123.339 15.4758C121.829 17.5001 120.32 19.5148 118.811 21.5199L118.25 15.5118C111.157 15.5501 104.065 15.5393 96.9742 15.4794L94.0995 17.2581C95.0434 14.6781 95.9884 12.1065 96.9347 9.54319C92.8622 9.48569 88.8017 9.40304 84.7532 9.29524C83.6895 12.2202 82.6283 15.1608 81.5695 18.1169C79.1403 16.0148 75.6763 14.8398 71.4829 14.7284C67.7278 14.6278 64.1668 15.5154 61.3065 17.3264C61.5975 16.4748 61.885 15.6267 62.1761 14.7823C58.1228 14.6529 54.0694 14.5092 50.0161 14.3511C48.7058 18.2894 47.3954 22.2852 46.085 26.3386C45.528 28.0921 44.6476 28.3077 44.0008 28.3149H43.7565C43.7847 27.9809 43.8485 27.6508 43.9469 27.3303C45.3388 22.9009 46.7426 18.5458 48.1584 14.2649C44.1027 14.102 40.0481 13.9211 35.9948 13.7223C34.7396 17.7229 33.4855 21.7858 32.2326 25.9109C32.0601 26.4967 31.8481 27.2441 31.6828 28.0095L20.5434 28.1424C22.6132 20.927 24.6853 13.9151 26.7599 7.10689C22.6874 6.76911 18.6149 6.40977 14.5425 6.02888C11.4378 16.7778 8.33433 28.043 5.23206 39.8244C14.1196 39.1657 23.0144 38.5943 31.9164 38.1104C32.2362 37.0504 32.556 35.9975 32.8758 34.9447C34.5036 37.1007 37.3244 38.1787 40.7812 38.0062C41.7362 37.955 42.6819 37.7909 43.5984 37.5175C47.2996 37.345 51.0031 37.1869 54.7091 37.0432C55.3271 35.1459 55.9452 33.2606 56.5632 31.3872C58.5396 35.0812 63.0708 37.1366 68.716 36.9569C70.9865 36.9151 73.2305 36.461 75.3386 35.6166L75.0619 36.4C79.1224 36.3018 83.1829 36.2203 87.2434 36.1556L89.0077 31.2112L91.2212 36.0981C94.7715 36.0526 98.3217 36.0191 101.872 35.9975L99.6081 38.2685L101.994 39.4651C103.999 40.4748 106.166 40.9384 108.822 40.9348C113.665 40.9348 116.921 39.4004 120.435 35.4046C124.632 30.338 128.829 25.2462 133.012 20.0466C131.084 25.4342 129.148 30.7776 127.205 36.0766C132.037 36.1341 136.87 36.2167 141.704 36.3245C149.046 36.4898 154.852 35.0884 158.952 31.9191C159.215 31.7178 159.474 31.5022 159.729 31.2794C160.379 34.7362 164.091 37.3055 168.928 37.5247C169.961 37.5716 170.997 37.5017 172.014 37.3163C174.769 37.4385 177.524 37.5666 180.279 37.7008C179.426 38.6422 178.575 39.5765 177.724 40.5036C178.515 41.0174 179.309 41.5349 180.099 42.0595C182.131 43.3979 184.477 44.1809 186.905 44.3305C191.738 44.7186 194.983 43.1555 198.49 38.3296C203.938 30.3236 209.385 21.7103 214.829 12.3137C210.362 12.6155 205.883 12.897 201.394 13.1581ZM186.948 34.6141L186.794 34.5206L184.681 33.0546C185.16 31.5382 185.632 30.011 186.097 28.473C186.389 30.514 186.673 32.5611 186.948 34.6141ZM150.185 25.6307C148.449 26.9674 145.733 27.6825 142.531 27.6753C143.602 24.6784 144.671 21.6612 145.74 18.6236H146.692C148.949 18.5877 150.53 18.8931 151.388 19.5471C151.688 19.7849 151.924 20.0923 152.077 20.4424C152.23 20.7926 152.294 21.1748 152.265 21.5558C152.26 22.3506 152.069 23.1331 151.707 23.8411C151.346 24.5491 150.825 25.1631 150.185 25.6343V25.6307ZM106.403 31.4843L103.528 34.3302C101.952 31.1081 100.375 27.8741 98.796 24.6281C101.431 23.0686 104.06 21.5115 106.683 19.9567C107.402 24.2328 108.121 28.5078 108.839 32.7815L108.681 32.7096L106.403 31.4843ZM70.9726 23.2195C71.95 23.2195 72.4495 23.3417 73.4269 24.4808L75.0331 26.3493C76.5064 25.5516 77.9809 24.7623 79.4566 23.9813C78.8672 25.6367 78.2767 27.3004 77.685 28.9725C76.6214 27.8945 75.5578 26.8165 74.4941 25.7385C73.7084 26.2415 72.9214 26.7482 72.1333 27.2585C70.7534 28.1676 70.006 28.4515 68.9352 28.4586C67.9578 28.4586 67.3972 27.9412 67.3972 27.0213C67.3864 25.106 69.1903 23.1944 70.9618 23.2087L70.9726 23.2195Z" fill="#0093D0"/>
<path d="M6.36401 38.8758C9.30698 27.7364 12.2535 17.1072 15.2001 6.89488C18.6761 7.2087 22.1497 7.50456 25.6208 7.78244C23.5487 14.653 21.4777 21.7151 19.4079 28.9689C24.2302 28.8899 29.0573 28.8156 33.8892 28.7461C33.01 31.5921 32.1308 34.4667 31.2516 37.3702C22.9486 37.8062 14.6527 38.3081 6.36401 38.8758Z" fill="white"/>
<path d="M40.7775 37.266C35.6857 37.5283 32.2684 34.7506 32.2684 30.2697C32.2684 28.9905 32.6565 27.5064 33.0733 26.1014C34.2711 22.1775 35.4689 18.3122 36.6667 14.5056C40.1211 14.6637 43.5743 14.8087 47.0264 14.9404C45.7112 18.9482 44.3936 23.0123 43.0737 27.1327C42.948 27.5387 42.8732 27.9588 42.8509 28.3832C42.8509 28.7964 42.8509 29.048 43.9684 29.03C45.3842 29.03 46.3688 28.1604 46.8934 26.5146C48.1439 22.653 49.3968 18.8416 50.6521 15.0806C54.1017 15.2075 57.5549 15.3273 61.0117 15.4399C58.6928 22.2649 56.3679 29.2408 54.037 36.3676C50.5802 36.4922 47.1234 36.6312 43.6666 36.7845L43.6881 36.7234C42.7466 37.0339 41.7677 37.2164 40.7775 37.266Z" fill="white"/>
<path d="M68.7125 36.2814C61.4431 36.5222 56.3693 32.7599 56.3693 27.0465C56.3693 20.3089 63.1356 15.1273 71.4614 15.386C76.3268 15.5082 80.0855 17.1216 82.3062 20.0286L83.2009 21.1965C80.5538 22.5763 77.9067 23.9777 75.2596 25.4007L74.1456 24.1071C73.1143 22.9033 72.3993 22.5476 70.9655 22.5404C68.6729 22.5152 66.5169 24.682 66.5169 26.9997C66.5169 28.2934 67.462 29.1198 68.9245 29.1055C70.2073 29.1055 71.1559 28.7461 72.6867 27.74L74.2355 26.7266C76.116 28.5449 77.9965 30.3416 79.877 32.1167L78.4972 33.0618C75.6488 35.1245 72.2291 36.2497 68.7125 36.2814Z" fill="white"/>
<path d="M108.811 40.2952C106.626 40.3607 104.458 39.8946 102.494 38.9369L100.841 38.1068C102.757 36.1904 104.674 34.2811 106.59 32.379L108.171 33.245C108.567 33.4557 109.003 33.5783 109.451 33.6043C109.586 33.6184 109.723 33.5999 109.849 33.5504C108.891 27.7579 107.923 21.963 106.946 16.1658C110.441 16.1658 113.937 16.1658 117.435 16.1658L118.154 23.737C120.041 21.1977 121.936 18.6524 123.838 16.1011C127.654 16.0675 131.471 16.022 135.287 15.9645C130.084 22.4721 124.884 28.7892 119.699 35.0704C116.353 38.8506 113.313 40.2916 108.811 40.2952Z" fill="white"/>
<path d="M128.341 35.4441C131.298 27.3375 134.252 19.1482 137.205 10.8188C140.535 10.7374 143.864 10.6368 147.191 10.517C152.801 10.3158 157.095 11.2357 159.966 13.4096C162.481 15.3105 163.696 17.8834 163.696 21.2144C163.696 25.1671 161.849 28.7246 158.345 31.4232C154.392 34.4632 148.808 35.8143 141.704 35.6669C137.253 35.5735 132.799 35.4992 128.341 35.4441ZM142.455 28.3401C145.923 28.3616 148.887 27.5819 150.799 26.1086C151.518 25.5815 152.103 24.8937 152.509 24.1001C152.914 23.3065 153.129 22.429 153.135 21.5378C153.164 21.0618 153.076 20.5859 152.879 20.1517C152.682 19.7175 152.381 19.3384 152.003 19.0476C150.979 18.2679 149.189 17.9049 146.692 17.9481L145.075 17.9768C143.848 21.4552 142.621 24.9072 141.392 28.3329L142.455 28.3401Z" fill="white"/>
<path d="M130.328 34.341C133.008 26.9602 135.694 19.4908 138.384 11.9328C141.323 11.8609 144.262 11.7771 147.199 11.6812C152.391 11.5123 156.326 12.3568 158.895 14.3008C161.105 15.9753 162.183 18.2535 162.183 21.2324C162.183 24.8258 160.487 28.0813 157.278 30.5572C153.631 33.3708 148.395 34.6392 141.712 34.5099C137.917 34.4452 134.122 34.3889 130.328 34.341ZM142.455 29.4935C146.333 29.5259 149.674 28.6383 151.874 26.9458C152.728 26.3207 153.425 25.5047 153.909 24.5626C154.392 23.6206 154.649 22.5787 154.658 21.5199C154.685 20.8785 154.555 20.2404 154.279 19.6607C154.004 19.0809 153.591 18.577 153.077 18.1924C151.755 17.1899 149.61 16.7227 146.692 16.7838L143.911 16.8377C142.409 21.0875 140.905 25.2977 139.401 29.4684L142.455 29.4935Z" fill="#0093D0"/>
<path d="M168.928 36.8168C164.037 36.6048 160.49 33.8379 160.49 30.2014C160.49 26.874 162.92 24.2652 166.79 22.9824C166.299 20.9461 165.798 18.9243 165.288 16.9168L166.772 16.3706C169.672 15.329 172.715 14.74 175.795 14.6242C182.762 14.308 186.754 16.9132 186.754 21.8469C186.737 22.9942 186.549 24.1325 186.197 25.2246C184.976 29.2324 183.752 33.1851 182.525 37.0827C179.152 36.9198 175.775 36.7689 172.395 36.63C172.395 36.5868 172.424 36.5401 172.442 36.4934C171.292 36.7665 170.109 36.8753 168.928 36.8168Z" fill="white"/>
<path d="M168.928 35.5735C164.856 35.4154 162.01 33.2234 162.01 30.2194C162.01 26.2056 166.046 23.4711 172.043 23.392C174.054 23.3723 176.06 23.6077 178.012 24.0927C178.137 23.7096 178.204 23.3099 178.209 22.9069C178.209 22.447 178.209 21.0563 174.451 21.1102C172.484 21.1666 170.538 21.5191 168.676 22.1559L168.187 22.3248C167.799 20.7389 167.409 19.1602 167.016 17.5887L167.347 17.4701C170.058 16.5045 172.903 15.9662 175.78 15.8747C181.889 15.6303 185.22 17.7361 185.22 21.8433C185.204 22.8718 185.032 23.8919 184.71 24.8689C183.589 28.5221 182.466 32.1263 181.343 35.6813C179.009 35.5831 176.677 35.4897 174.347 35.401L174.778 34.0212C173.033 35.1268 170.991 35.6687 168.928 35.5735ZM173.24 27.2872C170.793 27.2872 169.151 28.2682 169.151 29.7594C169.151 30.7045 170.142 31.3585 171.619 31.3944C173.879 31.4447 176.111 30.0002 176.812 27.9987L176.865 27.8406C175.687 27.4962 174.468 27.3101 173.24 27.2872Z" fill="#0093D0"/>
<path d="M186.923 43.5651C184.675 43.4413 182.499 42.7247 180.617 41.4882L178.989 40.4102C180.906 38.3236 182.814 36.1916 184.713 34.014L186.291 35.092C186.669 35.3524 187.106 35.5142 187.563 35.5627C187.699 35.5872 187.838 35.5722 187.965 35.5196C187.007 28.5149 186.041 21.5977 185.066 14.7679C188.544 14.6146 192.028 14.4529 195.519 14.2828C195.758 17.3971 195.998 20.5257 196.237 23.6687C198.135 20.5137 200.031 17.2725 201.926 13.9451C205.727 13.7366 209.529 13.515 213.331 13.2803C208.153 22.1235 202.971 30.2661 197.786 37.8697C194.441 42.4296 191.415 43.9137 186.923 43.5651Z" fill="white"/>
<path d="M186.923 42.232C184.992 42.1427 183.121 41.5358 181.504 40.4748L181.145 40.2341C182.444 38.7967 183.74 37.3462 185.033 35.8825L185.392 36.1269C186.039 36.5759 186.793 36.8472 187.577 36.9138C188.35 36.9533 188.839 36.842 189.575 36.073C188.648 29.3127 187.722 22.635 186.797 16.04C189.241 15.9394 191.682 15.8364 194.121 15.731C194.444 19.9544 194.765 24.1945 195.084 28.4515C197.666 24.2328 200.249 19.8585 202.831 15.3285C205.44 15.2015 208.046 15.0698 210.65 14.9332C205.936 22.8386 201.218 30.1799 196.496 37.0755C193.449 41.2007 190.865 42.5159 186.923 42.232Z" fill="#0093D0"/>
<path d="M91.8501 35.4441C90.9446 33.4558 90.0391 31.4615 89.1335 29.4612L88.6233 29.7702C87.9382 31.6867 87.2542 33.6031 86.5715 35.5196C83.1123 35.5747 79.6531 35.6406 76.1938 35.7172C79.259 26.971 82.3277 18.408 85.3929 9.95643C88.8521 10.0427 92.3125 10.1097 95.7741 10.1577C94.6841 13.1186 93.5953 16.0867 92.5077 19.062C94.096 18.0774 95.6866 17.0952 97.2797 16.1155C102.112 16.1514 106.946 16.167 111.783 16.1622C107.111 18.9255 102.44 21.6636 97.7684 24.4269C99.5459 28.0825 101.325 31.7238 103.105 35.3507C99.3531 35.3699 95.6016 35.401 91.8501 35.4441Z" fill="white"/>
<path d="M92.946 34.3015C91.9254 32.0616 90.9049 29.8133 89.8844 27.5567L87.2792 29.1234C86.654 30.877 86.0275 32.6341 85.3999 34.3949L78.1772 34.5135C80.9729 26.5913 83.7685 18.7913 86.5642 11.1135C88.9597 11.1638 91.3661 11.2081 93.7832 11.2464C92.4417 14.8973 91.1014 18.5625 89.7622 22.2421C92.4549 20.5652 95.1475 18.8955 97.8401 17.233C101.05 17.2545 104.26 17.2665 107.47 17.2689C103.645 19.5208 99.8153 21.781 95.9824 24.0496C97.6401 27.4633 99.2966 30.8614 100.952 34.244C98.2833 34.2583 95.6146 34.2775 92.946 34.3015Z" fill="#0093D0"/>
<path d="M108.811 39.1812C106.927 39.2467 105.056 38.8468 103.363 38.017L103.004 37.8301L106.892 33.9421L107.251 34.1326C107.927 34.4926 108.678 34.6894 109.443 34.7075C109.811 34.7314 110.179 34.6753 110.523 34.5431C110.866 34.411 111.177 34.206 111.434 33.9421L108.653 17.2869C111.103 17.2869 113.552 17.2869 115.998 17.2869C116.321 20.7221 116.643 24.1574 116.964 27.5926C119.556 24.1478 122.145 20.6898 124.729 17.2186C127.345 17.197 129.961 17.1707 132.577 17.1396C127.841 23.0219 123.105 28.7641 118.369 34.4847C115.354 37.9164 112.763 39.1776 108.811 39.1812Z" fill="#0093D0"/>
<path d="M68.7123 35.1064C62.3413 35.2896 57.8927 31.9981 57.8927 27.0393C57.8927 21.006 63.9763 16.3346 71.4576 16.5538C75.8128 16.6509 79.0037 18.0163 80.9837 20.5892L81.1813 20.8479C79.3415 21.8061 77.5029 22.7775 75.6655 23.7621L75.4175 23.4746C74.2856 22.1631 73.1968 21.3905 70.9618 21.3689C67.8355 21.3258 64.9932 24.0101 64.9932 27.0033C64.9932 28.9689 66.6102 30.3164 68.9243 30.2841C70.818 30.2589 72.1584 29.6229 73.6712 28.6203L74.0305 28.3976C75.2882 29.6097 76.547 30.8075 77.8071 31.9909L77.5017 32.1993C74.954 34.0753 71.8762 35.0933 68.7123 35.1064Z" fill="#0093D0"/>
<path d="M8.34033 37.2444C11.0138 27.2597 13.6885 17.663 16.3643 8.45441C18.791 8.65564 21.2189 8.84728 23.6481 9.02934C21.5639 15.9621 19.4905 23.0974 17.4279 30.435C22.2502 30.32 27.0749 30.2134 31.902 30.1152C31.2983 32.0915 30.6994 34.0823 30.1053 36.0874C22.8419 36.4251 15.5869 36.8108 8.34033 37.2444Z" fill="#0093D0"/>
<path d="M40.7777 35.9724C36.5303 36.1664 33.7886 33.9242 33.7886 30.223C33.7886 29.1055 34.1479 27.7292 34.5468 26.4212C35.6392 22.8494 36.7339 19.3267 37.8311 15.8531C40.2267 15.9466 42.6294 16.0352 45.0394 16.119C43.8967 19.631 42.754 23.1896 41.6113 26.7949C41.452 27.3115 41.3602 27.8466 41.3382 28.3868C41.3382 29.6876 42.2258 30.3272 43.9758 30.2949C46.8504 30.2338 47.9644 28.0814 48.3704 26.8129C49.5227 23.2794 50.6738 19.7903 51.8237 16.3454C54.2192 16.4221 56.6232 16.4928 59.0355 16.5574C56.9801 22.6374 54.9223 28.8431 52.8621 35.1746C50.4666 35.2537 48.0614 35.3387 45.6467 35.4298C45.7868 34.9914 45.9234 34.5566 46.0635 34.1218C44.5049 35.2122 42.6761 35.8525 40.7777 35.9724Z" fill="#0093D0"/>
<path d="M194.541 50.6225C194.543 51.2571 194.356 51.8778 194.004 52.406C193.652 52.9342 193.152 53.3461 192.566 53.5896C191.98 53.8331 191.335 53.8972 190.712 53.7737C190.09 53.6503 189.518 53.3449 189.069 52.8962C188.621 52.4475 188.315 51.8757 188.192 51.2532C188.068 50.6308 188.132 49.9857 188.376 49.3998C188.619 48.8138 189.031 48.3133 189.56 47.9616C190.088 47.6099 190.709 47.423 191.343 47.4244C191.763 47.4235 192.18 47.5055 192.568 47.6659C192.956 47.8263 193.309 48.0618 193.607 48.359C193.904 48.6562 194.139 49.0091 194.3 49.3975C194.46 49.786 194.542 50.2023 194.541 50.6225ZM193.941 50.6225C193.943 50.1065 193.792 49.6015 193.507 49.1715C193.221 48.7415 192.815 48.4059 192.339 48.2073C191.862 48.0086 191.338 47.9559 190.832 48.0558C190.325 48.1557 189.86 48.4037 189.495 48.7683C189.13 49.1329 188.881 49.5978 188.781 50.1039C188.68 50.61 188.732 51.1346 188.93 51.6112C189.128 52.0877 189.463 52.4947 189.893 52.7806C190.322 53.0665 190.827 53.2183 191.343 53.2169C191.684 53.2188 192.023 53.153 192.339 53.0234C192.655 52.8937 192.942 52.7027 193.183 52.4615C193.425 52.2202 193.616 51.9335 193.746 51.6179C193.876 51.3022 193.942 50.9639 193.941 50.6225ZM192.026 50.9818L192.773 52.2539H192.123L191.429 51.0537H190.847V52.2539H190.236V48.9372H191.598C191.884 48.9372 192.158 49.0508 192.36 49.253C192.563 49.4551 192.676 49.7293 192.676 50.0152C192.686 50.224 192.628 50.4303 192.511 50.6032C192.393 50.7762 192.223 50.9065 192.026 50.9747V50.9818ZM190.847 50.4896H191.566C191.634 50.4978 191.703 50.4913 191.769 50.4706C191.834 50.4498 191.894 50.4153 191.946 50.3694C191.997 50.3234 192.037 50.2671 192.065 50.2042C192.092 50.1412 192.106 50.0731 192.105 50.0044C192.106 49.9348 192.093 49.8656 192.066 49.8015C192.039 49.7373 191.998 49.6795 191.948 49.6318C191.897 49.584 191.837 49.5475 191.771 49.5244C191.705 49.5013 191.635 49.4923 191.566 49.4978H190.847V50.4896Z" fill="#0093D0"/>
</g>
<defs>
<clipPath id="clip0">
<rect width="220" height="85.8382" fill="white" transform="translate(0.0396729 0.883179)"/>
</clipPath>
</defs>
</svg>
