<svg width="221" height="119" viewBox="0 0 221 119" fill="none" xmlns="http://www.w3.org/2000/svg">
<path d="M220.037 30.2158C220.035 28.547 219.534 26.9168 218.6 25.5342C217.665 24.1516 216.339 23.0795 214.791 22.4552C213.244 21.831 211.545 21.683 209.912 22.0303C208.28 22.3776 206.789 23.2043 205.629 24.4046L197.152 23.468H196.576C195.397 23.4714 194.254 23.8747 193.333 24.6118C192.413 25.3489 191.77 26.3764 191.509 27.5263L190.741 30.8162C188.994 27.9428 186.642 25.4844 183.849 23.6121C180.808 21.9636 177.39 21.136 173.931 21.2108C171.393 21.1644 168.871 21.6215 166.511 22.5555C164.909 23.2911 163.421 24.2535 162.093 25.4131V24.4526C162.094 23.1716 161.621 21.9355 160.766 20.9822C159.91 20.029 158.732 19.4261 157.458 19.2897L134.669 16.8884H134.141C132.844 16.8759 131.591 17.3566 130.635 18.2331C130.394 18.4583 130.177 18.7078 129.987 18.9775C129.608 18.1756 129.029 17.4847 128.305 16.9716C127.582 16.4584 126.738 16.1403 125.856 16.0479L110.296 14.3669H109.743C108.59 14.3649 107.469 14.7492 106.559 15.4587C105.649 16.1681 105.003 17.1618 104.724 18.2811L103.404 23.4921L101.339 16.5762C101.052 15.5933 100.478 14.7184 99.6908 14.0638C98.9036 13.4092 97.9388 13.0047 96.9201 12.9021L77.7093 10.909H77.181C75.9818 10.8938 74.8143 11.2947 73.8774 12.0434C72.9404 12.792 72.2919 13.8423 72.0421 15.0153C66.502 11.9719 60.1045 10.8648 53.8639 11.8695C53.5751 11.481 53.2266 11.1406 52.8313 10.861C52.3751 10.5008 40.4404 2 26.5846 2C25.552 2 24.5194 2 23.5109 2.14408C17.5214 2.25867 11.7939 4.62124 7.46556 8.76278C3.13718 12.9043 0.524348 18.522 0.145758 24.5006C-0.400274 32.6781 1.11916 40.8616 4.56424 48.298C8.20511 55.8948 13.073 62.8397 18.9723 68.8535C23.0834 73.2393 27.684 77.139 32.684 80.4761C31.974 80.8568 31.3712 81.4101 30.931 82.0849C30.2649 83.0799 29.9654 84.2756 30.0836 85.4671C30.2019 86.6586 30.7307 87.772 31.5794 88.6166C39.9841 97.0213 55.3527 99.3987 62.3887 100.047C62.4062 101.361 62.9311 102.617 63.8535 103.553C64.3381 104.04 64.9143 104.427 65.549 104.691C66.1837 104.955 66.8643 105.09 67.5516 105.09H68.1519L78.7899 103.817C80.0459 103.653 81.203 103.049 82.0557 102.112C82.6606 102.497 83.3396 102.751 84.0488 102.857C83.7979 103.632 83.7483 104.458 83.9048 105.258L85.3216 112.462C85.55 113.638 86.1805 114.698 87.105 115.461C88.0294 116.223 89.1902 116.64 90.3884 116.64C90.6766 116.64 112.001 113.134 112.001 113.134C111.901 113.864 111.959 114.607 112.171 115.313C112.382 116.019 112.742 116.671 113.227 117.226C113.711 117.781 114.309 118.226 114.98 118.531C115.65 118.836 116.379 118.994 117.115 118.994C117.452 118.994 198.041 103.409 198.041 103.409C199.179 103.206 200.213 102.618 200.969 101.744C201.725 100.869 202.158 99.7617 202.195 98.6062C203.468 98.5176 204.702 98.1355 205.802 97.4898C206.902 96.8442 207.838 95.9527 208.536 94.885C209.233 93.8173 209.675 92.6025 209.824 91.3359C209.974 90.0692 209.829 88.785 209.399 87.584C211.65 86.6996 213.571 85.1391 214.898 83.1175C215.478 82.2074 215.907 81.2102 216.171 80.1639C216.917 77.8005 216.806 75.2498 215.859 72.9598C215.718 72.6381 215.558 72.3253 215.379 72.0233C215.643 71.423 215.955 70.6305 216.387 69.622C216.667 68.9735 216.811 68.2749 216.811 67.5688C216.811 66.8627 216.667 66.1641 216.387 65.5157C216.297 65.3315 216.193 65.1548 216.075 64.9874C216.834 63.8608 217.119 62.4803 216.867 61.1452L212.425 38.5245C214.499 38.3335 216.429 37.3766 217.836 35.8405C219.243 34.3044 220.028 32.2992 220.037 30.2158ZM22.8145 32.7373C22.8145 33.0014 22.8145 33.2896 22.8145 33.5537C22.7903 33.258 22.7903 32.9609 22.8145 32.6652V32.7373Z" fill="white"/>
<path d="M134.139 22.0513L156.904 24.4526V35.0906H147.131V39.365H156.04V49.6908H147.491V54.6856H157.096V65.0114L134.668 66.116L134.139 22.0513Z" fill="#ED282A"/>
<path d="M174.722 42.6308H188.89C188.89 42.6308 189.395 52.5484 184.952 58.6958C183.443 60.6343 181.458 62.1487 179.189 63.0914C176.921 64.0341 174.447 64.3729 172.009 64.0748C169.626 63.7839 167.365 62.8628 165.457 61.4065C163.549 59.9503 162.064 58.0115 161.155 55.7902C158.791 49.7979 158.504 43.1865 160.338 37.0116C161.019 34.9443 162.102 33.0318 163.523 31.3835C164.945 29.7352 166.678 28.3837 168.623 27.4063C170.675 26.676 172.855 26.3759 175.028 26.5246C177.201 26.6734 179.321 27.2677 181.254 28.2707C184.029 30.294 186.257 32.9761 187.738 36.0751L179.357 40.2535C179.357 40.2535 177.58 36.7475 174.554 37.4439C174.554 37.4439 170.184 38.2123 169.559 44.9601C169.559 44.9601 168.695 52.3082 173.426 54.1573C174.023 54.3733 174.664 54.4451 175.294 54.3667C175.925 54.2883 176.529 54.062 177.055 53.7062C177.582 53.3503 178.017 52.8751 178.325 52.3192C178.633 51.7633 178.806 51.1424 178.829 50.5072H174.914L174.722 42.6308Z" fill="#ED282A"/>
<path d="M186.032 68.6134V85.807L190.139 85.3988V76.3217L195.47 84.6544L199.384 84.1501V67.845L195.638 68.1331V77.3063L190.835 68.3733L186.032 68.6134Z" fill="#33357C"/>
<path d="M77.1554 16.0719L96.3662 18.065L103.858 42.919L109.742 19.5058L125.302 21.1868L132.53 66.2841L118.771 66.9805L116.513 41.5022L109.526 67.5088L100.136 67.917L90.675 40.7818L89.6664 68.5413L71.5122 69.4539L77.1554 16.0719Z" fill="#ED282A"/>
<path d="M196.55 28.6309L205.171 29.5915L211.559 62.1778L203.658 62.4659V58.3356H197.175L196.55 62.8982L188.746 63.2824L196.55 28.6309ZM202.218 50.4592L200.873 39.6051L198.808 50.5072L202.218 50.4592Z" fill="#ED282A"/>
<path d="M211.319 67.6288L209.686 71.447C209.686 71.2309 208.749 70.5825 208.605 70.5105C207.861 70.1983 206.468 69.9101 205.964 70.7986C205.459 71.6871 205.603 72.5036 206.396 72.8398C208.005 73.5602 209.95 73.0799 210.838 75.073C211.11 75.9269 211.198 76.8289 211.094 77.7191C210.99 78.6093 210.699 79.4672 210.238 80.2359C209.709 81.0495 209.002 81.7319 208.169 82.2312C207.337 82.7305 206.402 83.0336 205.435 83.1175C204.006 83.169 202.58 82.949 201.233 82.4692L203.034 78.0987C203.439 78.4889 203.932 78.7772 204.47 78.94C205.009 79.1028 205.578 79.1355 206.132 79.0352C206.294 79.0021 206.448 78.9355 206.584 78.8397C206.72 78.744 206.834 78.6211 206.92 78.479C207.006 78.3368 207.061 78.1784 207.082 78.0137C207.104 77.8491 207.091 77.6818 207.044 77.5224C206.95 77.1315 206.743 76.7771 206.448 76.5037C206.153 76.2303 205.784 76.05 205.387 75.9855C204.355 75.7454 202.77 75.1451 202.386 74.1125C202.09 73.5238 201.936 72.8742 201.936 72.2154C201.936 71.5567 202.09 70.907 202.386 70.3184C202.653 69.6291 203.043 68.9943 203.538 68.4453C204.019 67.974 204.591 67.6062 205.219 67.3647C207.232 66.7025 209.418 66.7964 211.367 67.6288" fill="#33357C"/>
<path d="M70.8399 75.2411L82.6545 74.5207L87.7934 86.7916L91.3954 74.0404L102.346 73.32L107.364 95.1723L97.9511 96.2049L95.934 83.7179L92.0438 97.0453L85.0799 97.8138L78.9804 85.8551L78.236 98.6302L67.6221 99.9029L70.8399 75.2411Z" fill="#32357C"/>
<path d="M110.894 72.9598L119.371 72.4555V93.7075L110.894 94.74V72.9598Z" fill="#32357C"/>
<path d="M156.664 70.2703L163.604 69.9341V88.5206L156.568 89.265L156.664 70.2703Z" fill="#32357C"/>
<path d="M124.342 72.1194L132.266 71.6631V85.759L138.942 85.3268V91.4502L124.294 93.1312L124.342 72.1194Z" fill="#32357C"/>
<path d="M141.487 71.2309L149.196 70.7746V83.8379L155.679 83.4057V89.3851L141.439 91.066L141.487 71.2309Z" fill="#32357C"/>
<path d="M183.511 80.2119C182.927 81.8103 181.889 83.2033 180.524 84.2201C179.159 85.2369 177.527 85.8332 175.829 85.9359C174.13 86.0386 172.438 85.6432 170.961 84.7981C169.484 83.9531 168.286 82.6952 167.513 81.1789C166.74 79.6625 166.427 77.9537 166.612 76.2619C166.797 74.5702 167.472 72.9691 168.553 71.6553C169.635 70.3415 171.077 69.3719 172.701 68.8657C174.326 68.3595 176.063 68.3385 177.7 68.8055C179.975 69.5585 181.862 71.1787 182.95 73.3143C184.038 75.4499 184.239 77.9285 183.511 80.2119ZM174.65 75.5293L169.295 76.4418L173.401 78.8431L172.609 84.3662L176.523 80.5241L180.245 82.9254L178.732 78.1227L181.59 75.2651H178.204L176.067 70.8226L174.65 75.5293Z" fill="#32357C"/>
<path d="M34.3154 40.6137C34.3154 45.3631 35.7237 50.0059 38.3624 53.9549C41.001 57.9039 44.7514 60.9817 49.1393 62.7992C53.5272 64.6168 58.3555 65.0923 63.0136 64.1658C67.6718 63.2392 71.9506 60.9521 75.3089 57.5938C78.6673 54.2354 80.9543 49.9566 81.8809 45.2985C82.8075 40.6403 82.3319 35.812 80.5144 31.4241C78.6969 27.0362 75.619 23.2858 71.67 20.6472C67.721 18.0086 63.0783 16.6002 58.3288 16.6002C51.9601 16.6002 45.8522 19.1302 41.3488 23.6336C36.8454 28.137 34.3154 34.2449 34.3154 40.6137Z" fill="url(#paint0_radial)"/>
<path d="M70.0475 42.967C69.9384 41.888 69.6116 40.8424 69.0869 39.8933C68.5914 38.9845 67.8399 38.2414 66.9257 37.7561C66.6581 37.6086 66.3766 37.4879 66.0852 37.3959C66.0964 37.2761 66.0964 37.1555 66.0852 37.0357C66.0868 36.6965 65.9578 36.3698 65.725 36.1232C65.1936 35.7295 64.5338 35.5496 63.876 35.6189C61.2101 35.8 58.5703 36.2587 55.9996 36.9876C52.7677 37.5875 49.7184 38.9271 47.0906 40.9018C46.8774 41.1534 46.7603 41.4725 46.7603 41.8023C46.7603 42.1321 46.8774 42.4513 47.0906 42.7028L47.2587 42.8709C46.742 43.5088 46.3582 44.2436 46.13 45.0322C45.7844 46.1916 45.7844 47.4267 46.13 48.5861C46.5284 49.8654 47.2574 51.0168 48.2432 51.924C49.921 53.3132 51.9325 54.2403 54.0785 54.6135C54.5405 55.3598 55.2069 55.9578 55.9986 56.3366C56.7903 56.7155 57.6741 56.8592 58.545 56.7507C59.4705 56.7442 60.391 56.615 61.2826 56.3665C63.6868 55.8365 65.8089 54.4332 67.2379 52.4283C67.8183 51.5783 68.0582 50.5413 67.9103 49.5227C68.5227 48.6697 69.023 47.7416 69.3991 46.7611C69.9463 45.5758 70.17 44.2668 70.0475 42.967Z" fill="#F79721"/>
<path d="M51.3889 51.0836C51.3859 51.6363 51.2278 52.1771 50.9327 52.6444L51.6291 52.9566V50.5553H51.3169C51.367 50.7268 51.3913 50.9049 51.3889 51.0836Z" fill="#FDD106"/>
<path d="M66.6135 50.6753C66.2391 51.8013 65.4831 52.761 64.4763 53.3888C63.1548 54.2958 61.5578 54.7121 59.9618 54.5655C61.0928 54.3539 62.1856 53.9734 63.2036 53.4369C64.0101 53.029 64.7283 52.4659 65.3168 51.7799C64.0087 52.8748 62.3847 53.5227 60.6822 53.629C62.6037 53.1425 64.3506 52.1276 65.725 50.6993C66.2773 50.123 66.7336 49.6187 67.0938 49.1625C67.5838 48.5301 68.0025 47.8456 68.3425 47.1213L67.6461 47.6016C67.5614 47.6478 67.4664 47.6721 67.3699 47.6721C67.2734 47.6721 67.1785 47.6478 67.0938 47.6016L66.3974 47.3855V47.8417C66.4245 47.9664 66.4111 48.0965 66.3593 48.213C66.3075 48.3296 66.2199 48.4267 66.1092 48.4901C65.5809 48.8023 65.0526 49.1385 64.5003 49.4266C64.4168 49.4623 64.327 49.4807 64.2362 49.4807C64.1454 49.4807 64.0555 49.4623 63.972 49.4266C63.9189 49.6082 63.7987 49.7627 63.6358 49.8589C62.4832 50.4592 61.2345 50.9875 60.1539 51.4678C60.0606 51.5143 59.9579 51.5385 59.8537 51.5385C59.7495 51.5385 59.6468 51.5143 59.5535 51.4678C59.4708 51.4069 59.4037 51.3273 59.3578 51.2354C59.3119 51.1436 59.2884 51.0422 59.2894 50.9395V48.6822L58.665 48.8983V51.7079C58.6628 51.8401 58.6202 51.9685 58.5429 52.0758C58.4657 52.1831 58.3575 52.2642 58.2328 52.3082L56.7439 52.7645C56.6581 52.8069 56.5636 52.8289 56.4678 52.8289C56.372 52.8289 56.2775 52.8069 56.1916 52.7645C56.1108 52.7074 56.0447 52.6319 55.9987 52.5442C55.9528 52.4565 55.9284 52.3592 55.9275 52.2602V49.8589L55.2311 50.027L54.3186 50.2191V52.8846C54.3213 53.0313 54.2723 53.1743 54.1801 53.2885C54.0878 53.4027 53.9583 53.4807 53.8143 53.5089H53.286C53.7843 53.6463 54.2893 53.7585 54.7989 53.8451L56.0235 53.9892C56.1565 54.1188 56.3108 54.2244 56.4798 54.3014C56.9235 54.4861 57.3935 54.5995 57.8726 54.6375C57.018 54.7175 56.1578 54.7175 55.3031 54.6375C56.1446 55.2496 57.1253 55.6426 58.1566 55.7809C59.1879 55.9193 60.2374 55.7987 61.2105 55.43C63.3747 54.8933 65.2747 53.5982 66.5655 51.7799C66.9293 51.2593 67.1602 50.6574 67.2378 50.027C66.9977 50.2911 66.8296 50.4832 66.6135 50.6753Z" fill="#FDD106"/>
<path d="M46.8744 32.377C46.6721 32.2692 46.5178 32.0892 46.4422 31.8728C46.3025 31.2867 46.3882 30.6696 46.6823 30.1438C47.1386 29.1592 47.907 28.6309 48.5074 28.8711L48.6755 28.9911L49.1077 29.2793C49.2887 29.3775 49.426 29.5405 49.4919 29.7356C49.6146 30.2883 49.5381 30.8667 49.2758 31.3685C48.8436 32.281 48.1231 32.7853 47.5468 32.5691L47.0666 32.4251H46.8985L46.8744 32.377Z" fill="#F79721"/>
<path d="M47.0665 31.9208C47.3547 31.9208 47.8589 31.5846 48.1951 30.8642C48.4172 30.4533 48.4933 29.9792 48.4112 29.5194C48.3915 29.4514 48.3491 29.3921 48.2912 29.3513C48.003 29.2313 47.4507 29.6155 47.0905 30.3839C46.8627 30.7931 46.7943 31.2721 46.8984 31.7287C46.904 31.7766 46.9226 31.8221 46.9523 31.8602C46.9819 31.8983 47.0214 31.9276 47.0665 31.9448V31.9208Z" fill="#FDD106"/>
<path d="M49.0117 29.9037C49.0117 29.9037 49.0117 29.7356 48.8436 29.7116H48.7236C48.7728 30.1839 48.6809 30.6602 48.4594 31.0803C48.2771 31.5207 47.9678 31.8969 47.5709 32.1609H47.691C47.9311 32.1609 48.4594 31.8968 48.7716 31.2004C49.0105 30.8132 49.0961 30.3507 49.0117 29.9037Z" fill="#FDD106"/>
<path d="M68.7507 35.0185L68.9428 34.7544L69.0629 34.6103C69.0629 34.4182 69.231 33.986 68.5346 33.4336C68.3426 33.2811 68.133 33.1521 67.9103 33.0494C67.592 32.8695 67.2409 32.7552 66.8777 32.7132C66.2774 32.7132 66.0612 32.8813 65.9892 33.0254C65.9813 33.0812 65.9813 33.1378 65.9892 33.1935V33.5297C65.9892 33.7218 65.9892 34.106 66.5175 34.6103C66.6884 34.7495 66.8735 34.8703 67.0698 34.9705C67.3887 35.1291 67.7281 35.2422 68.0784 35.3067C68.2053 35.3162 68.3327 35.295 68.4498 35.2448C68.5668 35.1947 68.6701 35.1171 68.7507 35.0185Z" fill="#F79721"/>
<path d="M68.3664 34.7544H68.1983C67.8618 34.7097 67.5363 34.6039 67.2378 34.4422C67.0332 34.3339 66.8402 34.2052 66.6615 34.058C66.5624 33.991 66.4734 33.9101 66.3973 33.8179V33.6738C66.3973 33.6738 66.3973 33.986 66.7816 34.2261C66.9286 34.3489 67.0899 34.4537 67.2618 34.5383C67.5286 34.6696 67.8111 34.7664 68.1023 34.8264C68.3424 34.8264 68.4385 34.8264 68.4625 34.8264L68.3664 34.7544Z" fill="#FDD106"/>
<path d="M66.3974 33.2175C66.4166 33.3499 66.4853 33.47 66.5895 33.5537C66.8045 33.7788 67.0562 33.9656 67.334 34.106C67.6157 34.2623 67.926 34.3603 68.2465 34.3942C68.3056 34.4257 68.3716 34.4422 68.4386 34.4422C68.5056 34.4422 68.5716 34.4257 68.6307 34.3942C68.6307 34.3942 68.6307 34.058 68.2225 33.7938C68.0556 33.6679 67.8789 33.5555 67.6942 33.4577C67.4124 33.3014 67.1021 33.2033 66.7816 33.1695C66.5415 33.1695 66.4214 33.1695 66.3734 33.1695L66.3974 33.2175Z" fill="#FDD106"/>
<path d="M42.0958 43.1831C41.9015 43.1448 41.7294 43.033 41.6155 42.8709L41.2313 42.4387C41.1644 42.4022 41.1131 42.3424 41.0872 42.2706C40.9672 42.1025 40.8471 41.6943 41.3514 41.0459C41.7236 40.6126 42.1611 40.2399 42.6481 39.9413C43.3453 39.445 44.1972 39.2149 45.0495 39.2929C45.1534 39.3074 45.2528 39.3451 45.3401 39.4033C45.4274 39.4615 45.5005 39.5387 45.5537 39.6291C45.5628 39.7009 45.5628 39.7735 45.5537 39.8452L45.7459 40.3735C45.7459 40.5657 45.9139 40.9499 45.4577 41.5262C45.1203 41.9466 44.7044 42.2973 44.233 42.5588C43.6074 42.9936 42.8571 43.2128 42.0958 43.1831Z" fill="#F79721"/>
<path d="M41.4715 42.0545C41.5816 42.1014 41.7 42.1256 41.8197 42.1256C41.9393 42.1256 42.0578 42.1014 42.1679 42.0545C42.6804 41.9557 43.1694 41.7601 43.6087 41.4782C44.5932 40.8778 45.1215 40.1574 45.0495 39.8452C44.9979 39.772 44.9208 39.7206 44.8334 39.7012C44.129 39.6803 43.4372 39.8912 42.8642 40.3015C42.4171 40.5677 42.0191 40.9089 41.6876 41.3101C41.4475 41.5982 41.3514 41.8864 41.4475 42.0305L41.4715 42.0545Z" fill="#FDD106"/>
<path d="M45.3376 40.5896V40.3735C44.9887 40.9713 44.4819 41.4615 43.8728 41.7903C43.4047 42.0772 42.8941 42.2879 42.3599 42.4147C42.2088 42.4381 42.0549 42.4381 41.9037 42.4147L42.0958 42.6068C42.118 42.6387 42.1465 42.6658 42.1796 42.6865C42.2126 42.7071 42.2494 42.7208 42.2879 42.7268C42.9376 42.7284 43.5731 42.5361 44.1129 42.1745C44.5232 41.9253 44.8885 41.6086 45.1935 41.238C45.3136 40.9498 45.4097 40.7097 45.3376 40.5896Z" fill="#FDD106"/>
<path d="M71.8005 36.4113C71.6663 36.4917 71.5128 36.5342 71.3563 36.5342C71.1998 36.5342 71.0463 36.4917 70.912 36.4113L70.3597 36.2192H70.1676C69.4712 35.811 69.8554 34.4902 70.5038 33.4577C70.8458 32.8662 71.3231 32.3642 71.8966 31.9928C72.0399 31.9008 72.2066 31.8519 72.3769 31.8519C72.5471 31.8519 72.7139 31.9008 72.8571 31.9928L73.0252 32.1369L73.4334 32.5211C73.6015 32.6652 73.8417 32.9534 73.6976 33.6738C73.5804 34.196 73.3688 34.6924 73.0732 35.1386C72.7578 35.6851 72.3227 36.1531 71.8005 36.5074V36.4113Z" fill="#F79721"/>
<path d="M70.4077 35.811C70.7199 35.811 71.4403 35.3787 72.0406 34.4182C72.6409 33.4577 72.809 32.5692 72.5929 32.305C72.5929 32.305 72.3048 32.305 72.0886 32.305C71.5882 32.6398 71.1697 33.083 70.8639 33.6017C70.2156 34.6343 70.0955 35.5708 70.3837 35.7389L70.4077 35.811Z" fill="#FDD106"/>
<path d="M73.1452 32.7853L72.9771 32.6412C72.9333 33.3311 72.7007 33.9957 72.3047 34.5623C71.9882 35.1157 71.5435 35.5851 71.008 35.9311H70.8879H71.1041C71.1041 35.9311 71.3682 35.9311 71.5603 35.9311C72.0284 35.6284 72.4158 35.2163 72.689 34.7304C72.9464 34.3216 73.1407 33.8764 73.2653 33.4096C73.2653 33.0734 73.2653 32.8093 73.2653 32.7373L73.1452 32.7853Z" fill="#FDD106"/>
<path d="M44.8573 36.9156C44.281 36.3873 44.0649 35.787 44.305 35.3307L44.5211 34.7544C44.5125 34.6906 44.5125 34.626 44.5211 34.5623C44.8573 33.9619 45.8659 33.9379 46.9225 34.5623L47.4508 34.9465C48.0751 35.4988 48.3152 36.1712 48.0511 36.6274L47.931 36.7955L47.5468 37.2998C47.1866 37.8521 46.2501 37.8761 45.3376 37.2998L44.8093 36.9396L44.8573 36.9156Z" fill="#F79721"/>
<path d="M45.0013 34.8024C44.8812 35.1866 45.3135 35.787 45.9859 36.1712C46.3212 36.3714 46.7004 36.4868 47.0905 36.5074C47.2972 36.5291 47.5042 36.4687 47.6668 36.3393C47.8349 36.0751 47.6668 35.6189 47.1865 35.2347L46.7063 34.8985C45.9859 34.4662 45.1934 34.4422 44.9773 34.8985L45.0013 34.8024Z" fill="#FDD106"/>
<path d="M47.2107 36.9636L47.3307 36.7955H47.0666C46.634 36.7645 46.2146 36.633 45.8419 36.4113C45.6643 36.3051 45.4957 36.1846 45.3376 36.0511C45.1013 35.8464 44.9127 35.5923 44.7853 35.3067V35.5228C44.6412 35.763 44.7853 36.1712 45.2415 36.5554C45.3721 36.6703 45.5175 36.7673 45.6738 36.8436C46.3462 37.2278 47.0906 37.2758 47.2827 36.8436L47.2107 36.9636Z" fill="#FDD106"/>
<path d="M73.2893 26.3977C70.6958 31.2004 47.4988 23.396 48.8436 41.4301C50.1844 41.4373 51.5217 41.2923 52.8298 40.9979C51.5331 25.4132 71.5363 31.7047 73.2893 26.3977Z" fill="url(#paint1_radial)"/>
<path d="M73.2893 26.3977C71.5363 31.7047 51.533 25.4132 52.8058 40.9979C53.9344 40.8058 55.2071 40.4936 56.6479 40.1094C55.2311 26.6619 72.3527 32.329 73.2893 26.3977Z" fill="url(#paint2_radial)"/>
<path d="M73.2893 26.3977C72.3527 32.329 55.2071 26.6619 56.6479 40.1094L57.2483 39.9413C58.497 39.5811 59.6496 39.2209 60.4421 38.9087C59.1453 28.0066 73.1692 32.9054 73.2893 26.3977Z" fill="url(#paint3_radial)"/>
<path d="M73.2892 26.3977C73.1692 32.9054 59.1453 28.0066 60.442 38.9087C61.7377 38.4883 62.979 37.916 64.1401 37.2038C62.7473 28.5589 74.0097 33.5057 73.2892 26.3977Z" fill="url(#paint4_radial)"/>
<path d="M73.2652 38.0202C73.3223 37.8785 73.3293 37.7216 73.2853 37.5753C73.2413 37.429 73.1487 37.3021 73.0229 37.2154C72.8971 37.1287 72.7455 37.0875 72.5931 37.0985C72.4408 37.1095 72.2967 37.172 72.1846 37.2758C71.7283 37.7321 71.2481 38.1643 70.7678 38.5725C70.6905 38.6501 70.6256 38.7392 70.5757 38.8367C70.4076 39.2929 70.2155 39.7252 70.0474 40.1814L69.8553 40.0374C69.7343 39.9458 69.5868 39.8963 69.435 39.8963C69.2833 39.8963 69.1358 39.9458 69.0148 40.0374L67.526 41.166C67.4388 41.2242 67.3671 41.3027 67.3169 41.3947C67.2667 41.4867 67.2396 41.5895 67.2378 41.6943C66.6864 41.8023 66.1632 42.0231 65.7009 42.3426L63.4437 43.6874C63.3431 43.7368 63.2571 43.8115 63.1939 43.9041C63.1308 43.9967 63.0927 44.104 63.0835 44.2157C62.9922 44.163 62.8887 44.1353 62.7833 44.1353C62.6779 44.1353 62.5744 44.163 62.4831 44.2157C61.4356 44.7502 60.3616 45.231 59.2653 45.6565L59.0732 45.7766H58.8331C57.4449 46.3214 56.0156 46.755 54.5587 47.0733C53.2055 47.4483 51.8243 47.7133 50.4284 47.8658C50.3339 47.872 50.2419 47.8989 50.159 47.9446C50.076 47.9902 50.004 48.0535 49.9481 48.1299V48.25C49.4969 47.981 48.9843 47.8322 48.4593 47.8177C48.0953 47.798 47.7311 47.8531 47.3893 47.9798C47.0474 48.1064 46.7352 48.3018 46.4718 48.5538C46.2085 48.8059 45.9997 49.1093 45.8583 49.4453C45.7169 49.7813 45.6459 50.1427 45.6497 50.5072C45.6386 50.619 45.6386 50.7316 45.6497 50.8434V48.2019C45.6533 48.046 45.6026 47.8936 45.5062 47.771C45.4098 47.6483 45.2738 47.5629 45.1214 47.5296C44.6439 47.451 44.1709 47.3468 43.7046 47.2174C43.6006 47.1873 43.4906 47.1848 43.3854 47.21C43.2801 47.2353 43.1833 47.2875 43.1043 47.3615C43.0133 47.4301 42.9428 47.5223 42.9004 47.6281C42.8581 47.734 42.8455 47.8493 42.8641 47.9618L42.9842 48.8263V52.0441C42.9848 52.1927 43.0346 52.3369 43.1258 52.4542C43.2171 52.5715 43.3446 52.6553 43.4885 52.6925C44.4654 52.9582 45.4607 53.1509 46.4662 53.2688C46.569 53.2837 46.674 53.2716 46.7709 53.2337C46.8677 53.1958 46.953 53.1334 47.0185 53.0527C47.4305 53.351 47.9266 53.5107 48.4353 53.5089C48.7974 53.5082 49.1557 53.4357 49.4896 53.2956C49.8235 53.1554 50.1262 52.9504 50.3803 52.6925C50.9096 52.1435 51.2101 51.4138 51.2208 50.6513C51.2334 50.4915 51.2334 50.3309 51.2208 50.171H51.4129V52.5724C51.4099 52.6671 51.4277 52.7614 51.465 52.8485C51.5024 52.9357 51.5584 53.0135 51.629 53.0767C51.6982 53.1435 51.7819 53.1934 51.8735 53.2226C51.9652 53.2517 52.0623 53.2593 52.1573 53.2448C52.6616 53.2448 53.1659 53.1007 53.6462 53.0286C53.8053 53.0008 53.9498 52.9185 54.055 52.7959C54.1601 52.6732 54.2193 52.5178 54.2225 52.3563V49.7148L55.087 49.5227L55.6633 49.4026V51.804C55.6637 51.9064 55.6875 52.0073 55.7329 52.0991C55.7782 52.1909 55.8439 52.2711 55.925 52.3337C56.0061 52.3962 56.1004 52.4394 56.2007 52.46C56.301 52.4805 56.4046 52.4779 56.5038 52.4523L58.0166 51.9961C58.1516 51.9503 58.2685 51.8628 58.3505 51.7463C58.4325 51.6298 58.4754 51.4902 58.4729 51.3477V48.5141L59.0252 48.322V50.5312C59.0233 50.6434 59.0484 50.7544 59.0986 50.8547C59.1488 50.9551 59.2225 51.0418 59.3134 51.1076C59.409 51.1601 59.5164 51.1877 59.6255 51.1877C59.7347 51.1877 59.8421 51.1601 59.9377 51.1076C61.129 50.6403 62.2917 50.103 63.4197 49.4987C63.5022 49.4594 63.575 49.4024 63.6331 49.3319C63.6912 49.2614 63.7331 49.1789 63.7559 49.0904C63.8393 49.1261 63.9292 49.1445 64.02 49.1445C64.1108 49.1445 64.2007 49.1261 64.2842 49.0904L65.9171 48.1299C66.0249 48.0576 66.1095 47.9556 66.1606 47.8363C66.2117 47.717 66.2272 47.5855 66.2052 47.4575V47.0253L66.9016 47.2414C66.9921 47.2825 67.0904 47.3038 67.1898 47.3038C67.2892 47.3038 67.3874 47.2825 67.4779 47.2414C68.0783 46.8332 68.7026 46.3769 69.279 45.9447C69.3637 45.8475 69.4198 45.7287 69.441 45.6015C69.4622 45.4743 69.4477 45.3437 69.399 45.2243C69.4967 45.2836 69.6089 45.315 69.7232 45.315C69.8375 45.315 69.9497 45.2836 70.0474 45.2243L71.5842 43.9756C71.6644 43.8941 71.7254 43.7958 71.7628 43.6878C71.8002 43.5798 71.813 43.4648 71.8004 43.3512V42.6308V42.1505C72.2086 40.7578 72.7609 39.413 73.2652 38.0202Z" fill="#2C3588"/>
<path d="M44.7133 51.3717L46.1301 51.6118L46.2741 52.5964C45.3009 52.486 44.3376 52.3014 43.3925 52.0441V48.7783C43.3925 48.4661 43.3925 48.1779 43.2725 47.8657L44.7133 48.2019V51.3717ZM50.4285 50.6273C50.4317 50.9152 50.3774 51.2008 50.2687 51.4673C50.16 51.7339 49.9992 51.9761 49.7956 52.1797C49.592 52.3832 49.3499 52.5441 49.0833 52.6527C48.8167 52.7614 48.5311 52.8157 48.2432 52.8125C47.6575 52.7417 47.1184 52.4578 46.7286 52.0149C46.3389 51.572 46.1258 51.0011 46.1301 50.4112C46.126 50.1348 46.1795 49.8607 46.287 49.6061C46.3946 49.3516 46.5539 49.1221 46.7549 48.9325C46.9559 48.7428 47.1941 48.5969 47.4545 48.5043C47.7148 48.4116 47.9916 48.374 48.2673 48.394C48.5582 48.3905 48.8468 48.4464 49.1154 48.5583C49.384 48.6702 49.6269 48.8357 49.8292 49.0448C50.0316 49.2539 50.1891 49.5021 50.2921 49.7742C50.3952 50.0463 50.4416 50.3366 50.4285 50.6273ZM48.2673 49.5227C47.883 49.5227 47.5709 50.0029 47.5709 50.6273C47.5709 51.2516 47.883 51.7799 48.2673 51.804C48.6515 51.828 48.9396 51.2997 48.9637 50.6753C48.9877 50.051 48.6515 49.5227 48.2673 49.5227ZM59.0493 46.593C57.636 47.1426 56.183 47.5841 54.7029 47.9138C53.2886 48.2297 51.8511 48.4304 50.4045 48.5141L50.5485 49.4747L51.9894 49.3546V52.5244L53.4542 52.3082V49.1385L54.847 48.8743C55.3032 48.8743 55.7835 48.6582 56.2397 48.5141V51.7079L57.6325 51.2276V48.0338C58.1368 47.8898 58.6171 47.6977 59.1214 47.5055C59.1694 47.2174 59.0973 46.9052 59.0493 46.593ZM59.6256 47.2654L59.4816 46.4249C60.5985 45.9933 61.689 45.4961 62.7474 44.9361C62.7474 45.2483 62.8675 45.5364 62.9155 45.8486C62.3151 46.1608 61.6908 46.449 61.0905 46.7131V47.3374L62.7954 46.497C62.7954 46.7851 62.9155 47.0973 62.9635 47.3855C62.3392 47.7217 61.7148 48.0098 61.0905 48.298V48.9464L62.8915 48.0579L63.0356 48.9464C61.9273 49.5337 60.7891 50.0627 59.6256 50.5312V47.2654ZM68.7267 45.3443C68.1504 45.7766 67.5501 46.2088 66.9738 46.593L65.9892 46.2809L65.3408 46.6891L65.4849 47.4815C64.9566 47.8177 64.4283 48.1299 63.9 48.4181V45.2243L63.756 44.4078C64.5244 43.9916 65.3248 43.5353 66.1573 43.039C67.334 42.2946 68.2705 42.3186 68.2705 43.1831C68.1875 43.8362 67.921 44.4523 67.5021 44.9601L68.7267 45.3443ZM66.7576 44.1677C66.7576 43.8315 66.3734 43.8075 65.8691 44.1677C65.6992 44.2891 65.5228 44.4013 65.3408 44.5039V45.7526C65.5256 45.6547 65.7022 45.5423 65.8691 45.4164C66.0989 45.2851 66.2974 45.1054 66.4508 44.8898C66.6042 44.6742 66.7089 44.4278 66.7576 44.1677ZM71.008 41.9584V42.6068C71.008 42.8709 71.008 43.1351 71.1281 43.3752C70.6478 43.8075 70.1435 44.2397 69.6393 44.6239V43.0871L67.9103 41.7903L69.4231 40.6377L70.3356 41.3341L71.2001 39.1489C71.7044 38.7406 72.1847 38.2844 72.6409 37.8521C72.0406 39.2209 71.5603 40.5897 71.008 41.9584Z" fill="white"/>
<path d="M52.8298 46.593V44.4558H53.3581V46.617L52.8298 46.593ZM54.3667 46.3289C53.8864 46.3289 53.8864 46.1848 53.8864 45.8486V44.792C53.9012 44.6002 53.9012 44.4075 53.8864 44.2157L54.4387 44.0236C54.4387 44.0236 54.4387 44.2637 54.4387 44.4078V45.5845C54.4387 45.8726 54.4387 45.9447 54.5588 45.9207V46.2328C54.5063 46.2707 54.45 46.3029 54.3907 46.3289H54.3667ZM55.4953 46.0888C55.0151 46.0888 55.0151 45.9687 55.0151 45.6565V44.5759C55.0299 44.3841 55.0299 44.1914 55.0151 43.9996L55.5674 43.7835C55.5809 43.9112 55.5809 44.04 55.5674 44.1677V45.3443C55.5674 45.6325 55.5674 45.7045 55.6874 45.6565C55.6771 45.7523 55.6771 45.8489 55.6874 45.9447C55.6358 45.9976 55.5795 46.0458 55.5193 46.0888H55.4953ZM56.4559 44.1196C56.4209 44.1307 56.3839 44.1336 56.3477 44.1281C56.3114 44.1227 56.2769 44.109 56.2468 44.0881C56.2167 44.0673 56.1917 44.0398 56.1738 44.0078C56.156 43.9758 56.1457 43.9401 56.1437 43.9035C56.1487 43.812 56.1812 43.7241 56.2368 43.6513C56.2925 43.5785 56.3688 43.5241 56.4559 43.4953C56.648 43.4953 56.768 43.4953 56.768 43.7114C56.7596 43.7986 56.7286 43.8822 56.6781 43.9537C56.6276 44.0253 56.5592 44.0825 56.4799 44.1196H56.4559ZM56.1677 45.8726V44.3118L56.72 44.1196V45.7285L56.1677 45.8726ZM58.1368 45.2723V44.2637C58.1368 44.0956 58.1368 44.1196 57.9927 44.1437L57.8246 44.2877V45.3924L57.2723 45.5605V44.5519C57.2865 44.3841 57.2865 44.2154 57.2723 44.0476L57.7766 43.8075C57.7789 43.8475 57.7789 43.8875 57.7766 43.9275C57.9214 43.8017 58.0831 43.6966 58.2569 43.6154C58.6411 43.6154 58.7131 43.6154 58.7131 43.9035V45.0802L58.1368 45.2723ZM59.8898 44.6479C59.4335 44.8401 59.1454 44.6479 59.1454 44.1196C59.1542 43.8752 59.2307 43.638 59.3663 43.4345C59.502 43.231 59.6916 43.0691 59.9138 42.967C60.322 42.7989 60.6822 42.967 60.6822 43.4233C60.6955 43.667 60.6422 43.9098 60.528 44.1255C60.4137 44.3413 60.2429 44.5219 60.0339 44.6479H59.8898ZM59.8898 43.3512C59.7697 43.3512 59.6977 43.4953 59.6977 43.9035C59.6977 44.3118 59.6977 44.3358 59.8898 44.2637C60.0819 44.1917 60.0579 44.0476 60.0579 43.6874C60.0579 43.3272 60.0339 43.3032 60.0339 43.3512H59.8898ZM61.3546 42.2226C61.1865 42.2226 61.0424 42.2226 61.0424 42.0785C61.0541 41.983 61.0886 41.8917 61.1429 41.8123C61.1972 41.7329 61.2698 41.6677 61.3546 41.6222C61.5467 41.6222 61.6668 41.6222 61.6668 41.7663C61.6643 41.8584 61.6388 41.9483 61.5927 42.028C61.5465 42.1077 61.4812 42.1746 61.4026 42.2226H61.3546ZM61.0905 44.0476V42.4867L61.6428 42.1746V43.7835L61.0905 44.0476ZM62.7474 43.2552C62.5249 43.3699 62.2773 43.4277 62.027 43.4233L62.2191 42.943C62.3925 42.9867 62.574 42.9867 62.7474 42.943C62.7911 42.9237 62.8294 42.8939 62.8588 42.8562C62.8881 42.8184 62.9076 42.774 62.9155 42.7269C62.9155 42.7269 62.9155 42.7269 62.7234 42.7269H62.5073C62.2431 42.7269 62.1231 42.7269 62.1231 42.5107C62.1492 42.3143 62.2246 42.1277 62.3421 41.9682C62.4597 41.8087 62.6156 41.6814 62.7954 41.5982C62.9874 41.4902 63.2003 41.4247 63.4198 41.4061C63.3742 41.5541 63.318 41.6985 63.2517 41.8384C63.1251 41.8111 62.9941 41.8111 62.8675 41.8384C62.8317 41.8528 62.8 41.8756 62.7749 41.9048C62.7498 41.9341 62.7322 41.9689 62.7234 42.0065C62.7234 42.0065 62.7234 42.0065 62.8915 42.0065H63.0836C63.3718 42.0065 63.4918 42.0065 63.4918 42.2226C63.4676 42.4381 63.3916 42.6446 63.2704 42.8244C63.1491 43.0042 62.9862 43.152 62.7954 43.2552H62.7474Z" fill="#2C3588"/>
<path d="M132.915 97.9819L129.361 98.4621L126.335 105.906L123.381 99.2786L119.563 99.8069L116.97 113.831L120.908 113.062L122.157 105.138H122.205L125.543 112.174L127.031 111.886L130.393 103.793H130.441L131.45 111.021L134.956 110.349L132.915 97.9819Z" fill="#221F1F"/>
<path d="M143.625 96.493L136.397 97.5016V110.061L143.625 108.668V105.978L139.759 106.675V104.538L143.433 103.913V101.248L139.759 101.824V99.7589L143.625 99.1825V96.493Z" fill="#221F1F"/>
<path d="M152.125 95.0042H151.285H151.021C150.126 95.1223 149.257 95.3902 148.451 95.7966C146.892 96.615 145.694 97.9847 145.089 99.6388C144.769 100.524 144.606 101.459 144.609 102.4C144.593 103.178 144.724 103.952 144.993 104.682C145.215 105.321 145.576 105.904 146.05 106.387C146.51 106.843 147.069 107.188 147.683 107.395C148.353 107.628 149.063 107.726 149.772 107.683H150.348H150.613H150.901C151.376 107.587 151.842 107.451 152.293 107.275C152.729 107.098 153.147 106.881 153.542 106.627C154.339 106.061 155.017 105.342 155.535 104.514C155.759 104.134 155.959 103.741 156.136 103.337C156.273 102.962 156.378 102.577 156.448 102.184C156.537 101.798 156.594 101.404 156.616 101.008C156.616 100.599 156.616 100.215 156.616 99.7829L150.853 100.719V103.121L153.254 102.713C153.228 103.028 153.147 103.337 153.014 103.625C152.903 103.901 152.73 104.147 152.51 104.345C152.296 104.555 152.054 104.733 151.789 104.874C151.499 105.009 151.192 105.106 150.877 105.162H150.42C150.037 105.185 149.655 105.102 149.316 104.922C148.99 104.751 148.703 104.514 148.475 104.225C148.255 103.9 148.085 103.544 147.971 103.169C147.853 102.771 147.797 102.358 147.803 101.944C147.808 101.474 147.872 101.006 147.995 100.551C148.137 100.099 148.331 99.6636 148.571 99.2546C148.827 98.8627 149.153 98.5209 149.532 98.246C149.923 97.9827 150.365 97.8029 150.829 97.7177H151.285C151.508 97.6814 151.735 97.6814 151.957 97.7177C152.168 97.783 152.364 97.889 152.534 98.0299C152.703 98.1635 152.856 98.3166 152.99 98.4862C153.116 98.6863 153.228 98.8949 153.326 99.1105L156.088 97.5977C155.91 97.198 155.675 96.8259 155.391 96.493C155.135 96.1714 154.827 95.8954 154.479 95.6766C154.136 95.4637 153.764 95.3019 153.374 95.1963C152.962 95.0684 152.533 95.0036 152.101 95.0042" fill="#221F1F"/>
<path d="M160.602 101.176L161.731 97.4296L162.811 100.791L160.578 101.176H160.602ZM163.292 93.7795L160.338 94.1877L156.088 106.218L159.065 105.666L159.786 103.553L163.556 102.857L164.228 104.634L166.966 104.105L163.292 93.7795Z" fill="#221F1F"/>
<path d="M170.256 97.7177V95.0522H170.688H171.504H171.889C171.995 95.0992 172.093 95.1642 172.177 95.2443C172.26 95.3533 172.325 95.4749 172.369 95.6045C172.385 95.7963 172.385 95.9891 172.369 96.1809C172.38 96.4369 172.331 96.6919 172.225 96.9253C172.151 97.1161 172.016 97.2768 171.841 97.3815C171.673 97.4956 171.486 97.5771 171.288 97.6217H170.64H170.208L170.256 97.7177ZM172.345 92.4828H171.504L167.758 93.2512V104.081L170.16 103.601V99.951L171.552 99.7108C172.038 99.6356 172.509 99.4815 172.945 99.2546C173.339 99.0511 173.689 98.7739 173.978 98.4381C174.256 98.0786 174.468 97.6719 174.602 97.2375C174.732 96.703 174.797 96.1546 174.794 95.6045C174.809 95.1582 174.752 94.7123 174.626 94.2838C174.53 93.9379 174.358 93.6178 174.122 93.3473C173.905 93.1031 173.634 92.9138 173.329 92.795C172.998 92.6702 172.65 92.5973 172.297 92.5788" fill="#221F1F"/>
<path d="M178.228 91.7144L175.947 92.0265V102.4L180.894 101.44V99.2066L178.228 99.6868V91.7144Z" fill="#221F1F"/>
<path d="M183.775 90.9459L181.614 91.2341V101.296L183.775 100.888V90.9459Z" fill="#221F1F"/>
<path d="M189.635 90.1295L185.144 90.7538V100.599L189.635 99.7348V97.6217L187.233 98.0539V96.373L189.514 95.9887V93.8756L187.233 94.2358V92.6028L189.635 92.2426V90.1295Z" fill="#221F1F"/>
<path d="M192.804 93.9236V91.5222H193.453H193.765C193.866 91.5549 193.957 91.6128 194.029 91.6903C194.125 91.7707 194.193 91.8803 194.221 92.0025C194.25 92.1532 194.25 92.3081 194.221 92.4588C194.264 92.6646 194.264 92.8773 194.221 93.0831C194.165 93.2501 194.055 93.3937 193.909 93.4913C193.794 93.6027 193.654 93.685 193.501 93.7315L193.02 93.8516H192.852L192.804 93.9236ZM194.389 89.4571H193.789L190.907 89.8653V99.4707L192.852 99.1105V95.5085L194.509 98.7743L196.911 98.3181L194.677 94.9322C194.928 94.8344 195.157 94.6874 195.35 94.4999C195.544 94.3024 195.706 94.0755 195.83 93.8275C195.973 93.5635 196.078 93.2805 196.142 92.9871C196.167 92.6834 196.167 92.3782 196.142 92.0746C196.149 91.7012 196.101 91.3289 195.998 90.9699C195.925 90.6899 195.794 90.4283 195.614 90.2015C195.449 90.0021 195.244 89.8387 195.014 89.7212C194.769 89.6179 194.51 89.5531 194.245 89.5291" fill="#221F1F"/>
<path d="M91.5635 103.889L91.8036 108.164C91.9142 107.708 92.0505 107.259 92.2119 106.819L93.3885 103.601L95.3096 103.337L95.6698 107.659C95.7644 107.228 95.8847 106.803 96.03 106.387L97.1826 103.145L99.7761 102.761L96.3182 110.589L94.1329 110.949L93.8928 106.963C93.8171 107.331 93.7127 107.692 93.5806 108.044L92.5 111.213L90.3868 111.574L88.97 104.369L91.5635 103.889Z" fill="#EE3E34"/>
<path d="M100.401 102.592L102.922 102.208L101.865 109.556L99.3679 109.989L100.401 102.592Z" fill="#EE3E34"/>
<path d="M103.618 102.136L108.901 101.344L108.541 103.697L107.172 103.841L106.452 108.812L103.93 109.22L104.675 104.225L103.282 104.514L103.618 102.136Z" fill="#EE3E34"/>
<path d="M109.55 101.248L111.975 100.888L111.615 103.313L113.152 103.073L113.512 100.671L115.937 100.311L114.857 107.395L112.431 107.803L112.815 105.306L111.279 105.546L110.894 108.044L108.493 108.452L109.55 101.248Z" fill="#EE3E34"/>
<path d="M44.1369 16.1199C39.0118 19.0109 35.1182 23.6731 33.1867 29.2313C33.1867 29.2313 25.1662 21.7391 18.7786 21.7391C18.7786 21.7391 8.69298 20.1782 11.4305 32.1129L11.5746 32.6892L12.8713 38.0202C11.657 36.9685 10.7799 35.5819 10.3499 34.034C9.02917 29.0872 9.19726 20.0341 12.343 16.4321C18.1783 9.73234 27.5436 9.51622 35.3239 12.2297C36.7307 12.7315 38.1095 13.3087 39.4542 13.9587C40.1026 14.2469 43.6566 16.5041 44.1369 16.3601" fill="#F79721"/>
<path d="M14.8885 24.8128C14.4987 25.1422 14.1372 25.5036 13.8079 25.8934C12.9293 27.2985 12.2276 28.8068 11.7187 30.3839C8.69302 39.0528 15.1526 49.2585 19.9794 56.0784C22.1131 59.4539 24.6093 62.5863 27.4235 65.4196C23.5888 60.0144 20.0535 54.4028 16.8336 48.6102C13.4699 41.1369 12.7831 32.7331 14.8885 24.8128Z" fill="#D2272F"/>
<path d="M83.735 53.605C83.735 53.605 73.6014 69.2377 50.8126 66.6203C50.8126 66.6203 52.9498 69.8141 63.8039 69.8141C63.8039 69.8141 81.2376 67.6769 83.735 53.605Z" fill="#F79721"/>
<path d="M35.3239 84.9666C35.3239 84.9666 55.0869 93.2512 66.1091 93.2512V95.1963C66.1091 95.1963 44.6651 94.4039 35.3239 85.0626" fill="#F79721"/>
<path d="M60.6822 84.8705C55.1092 84.7997 49.6126 83.5647 44.5451 81.2445C36.3849 77.4178 29.0451 72.0434 22.933 65.4196C17.3915 59.8107 12.8225 53.3184 9.41338 46.2088C6.29601 39.5688 4.88462 32.256 5.30707 24.9329C6.81992 7.66717 23.8215 7.33098 23.8215 7.33098C37.269 5.98623 49.8281 15.0633 49.8281 15.0633C48.9209 15.0726 48.0211 15.2266 47.1626 15.5196C47.1626 15.5196 34.9637 7.85928 22.933 9.01193C18.8272 9.4562 14.9898 11.2674 12.0371 14.1548C9.08446 17.0421 7.18783 20.838 6.65183 24.9329C6.65183 24.9329 4.61068 41.0459 19.0188 58.5517C19.0188 58.5517 31.938 73.6082 43.0322 78.2188C43.0322 78.2188 47.4507 80.3319 45.4336 78.2188L41.6875 75.8174C41.6875 75.8174 29.0804 66.8364 22.6688 54.6856C19.5503 49.2781 17.4198 43.3584 16.3773 37.2037C16.3773 37.2037 14.8884 26.0135 17.1457 22.9878C17.1457 22.9878 18.1303 22.4595 21.6122 24.1404C21.6122 24.1404 31.2176 29.3033 33.3548 32.5932C33.3548 32.5932 32.9946 34.4662 33.3548 34.8264C31.3861 32.6278 29.1794 30.6546 26.7751 28.9431L20.3635 25.221L18.2984 24.7648C17.7083 26.7898 17.5046 28.9079 17.698 31.0083C17.698 31.0083 16.3533 40.8778 24.0136 53.5089C29.9312 63.4585 38.0672 71.9067 47.7869 78.1947C51.0313 80.6759 54.7133 82.5251 58.641 83.6458C58.641 83.6458 61.8348 84.8945 60.6822 84.8945" fill="#F79721"/>
<path d="M33.1868 20.4183C28.9476 26.4808 27.0923 33.8934 27.9759 41.238C27.9759 41.238 28.8404 47.7217 31.5779 49.3786C31.5779 49.3786 26.2229 39.365 33.1868 20.4183Z" fill="#D2272F"/>
<path d="M72.0405 43.015C72.0405 42.931 72.0574 42.8478 72.0903 42.7704C72.1231 42.6931 72.1713 42.6231 72.2318 42.5648C72.2924 42.5065 72.3641 42.4611 72.4426 42.4311C72.5211 42.4012 72.6049 42.3874 72.6889 42.3907C72.7718 42.3873 72.8545 42.4011 72.9318 42.4313C73.0091 42.4615 73.0793 42.5073 73.1379 42.566C73.1966 42.6247 73.2425 42.6949 73.2726 42.7721C73.3028 42.8494 73.3166 42.9321 73.3133 43.015C73.3166 43.0979 73.3028 43.1806 73.2726 43.2579C73.2425 43.3352 73.1966 43.4054 73.1379 43.464C73.0793 43.5227 73.0091 43.5686 72.9318 43.5988C72.8545 43.6289 72.7718 43.6428 72.6889 43.6394C72.6041 43.6463 72.5187 43.635 72.4386 43.6064C72.3584 43.5778 72.2852 43.5325 72.2239 43.4734C72.1626 43.4144 72.1145 43.343 72.0829 43.264C72.0513 43.1849 72.0369 43.1001 72.0405 43.015ZM72.6889 42.5107C72.6238 42.5107 72.5593 42.5238 72.4994 42.5495C72.4395 42.5751 72.3854 42.6126 72.3405 42.6598C72.2956 42.707 72.2607 42.7628 72.2381 42.8239C72.2154 42.8849 72.2054 42.95 72.2086 43.015C72.2086 43.1424 72.2592 43.2646 72.3493 43.3546C72.4394 43.4447 72.5615 43.4953 72.6889 43.4953C72.8163 43.4953 72.9384 43.4447 73.0285 43.3546C73.1186 43.2646 73.1692 43.1424 73.1692 43.015C73.1773 42.8986 73.1428 42.7833 73.0721 42.6905C73.0014 42.5977 72.8993 42.5338 72.785 42.5107H72.6889ZM72.6889 43.3512H72.5208V42.6788H72.785C72.9531 42.6788 73.0491 42.6788 73.0491 42.895C73.0534 42.918 73.052 42.9417 73.0451 42.964C73.0382 42.9864 73.0259 43.0067 73.0094 43.0233C72.9928 43.0399 72.9725 43.0521 72.9501 43.0591C72.9277 43.066 72.904 43.0674 72.881 43.0631L73.0491 43.3512H72.905L72.7369 43.0631L72.6889 43.3512ZM72.6889 42.967H72.833C72.833 42.967 72.833 42.967 72.7129 42.967H72.6889Z" fill="#2C3588"/>
<path d="M214.849 30.2158C214.854 30.8543 214.668 31.4797 214.317 32.0125C213.965 32.5454 213.462 32.9615 212.874 33.208C212.285 33.4545 211.636 33.5203 211.009 33.3969C210.383 33.2735 209.807 32.9665 209.356 32.5151C208.904 32.0636 208.597 31.4881 208.474 30.8617C208.351 30.2352 208.416 29.5863 208.663 28.9973C208.909 28.4084 209.325 27.9061 209.858 27.5543C210.391 27.2026 211.017 27.0173 211.655 27.022C212.075 27.0188 212.492 27.0993 212.881 27.2586C213.27 27.418 213.623 27.6531 213.92 27.9504C214.218 28.2476 214.453 28.6009 214.612 28.9898C214.772 29.3788 214.852 29.7955 214.849 30.2158ZM214.248 30.2158C214.253 29.6961 214.103 29.1868 213.817 28.7527C213.532 28.3186 213.123 27.9794 212.644 27.7783C212.165 27.5772 211.636 27.5234 211.126 27.6236C210.616 27.7238 210.148 27.9736 209.78 28.3411C209.413 28.7086 209.163 29.1772 209.063 29.6871C208.963 30.1971 209.016 30.7254 209.217 31.2046C209.419 31.6839 209.758 32.0924 210.192 32.3782C210.626 32.664 211.135 32.814 211.655 32.8093C212.343 32.8093 213.002 32.536 213.489 32.0497C213.975 31.5633 214.248 30.9037 214.248 30.2158ZM212.327 30.552L213.072 31.8247H212.423L211.727 30.6241H211.151V31.8247H210.55V28.4148H211.895C212.041 28.4115 212.186 28.4379 212.322 28.4922C212.457 28.5466 212.58 28.6278 212.684 28.731C212.787 28.8343 212.868 28.9574 212.922 29.0929C212.977 29.2284 213.003 29.3735 213 29.5194C213.032 29.7438 212.981 29.972 212.857 30.1619C212.734 30.3517 212.545 30.4904 212.327 30.552ZM211.151 30.0717H211.847C211.916 30.0822 211.986 30.0776 212.053 30.0581C212.12 30.0387 212.182 30.005 212.234 29.9593C212.287 29.9136 212.329 29.8571 212.357 29.7936C212.386 29.7301 212.4 29.6611 212.399 29.5915C212.4 29.521 212.385 29.4513 212.357 29.3867C212.329 29.3222 212.287 29.2643 212.235 29.2168C212.183 29.1693 212.122 29.1332 212.055 29.1109C211.988 29.0885 211.917 29.0805 211.847 29.0872H211.151V30.0717Z" fill="#ED282A"/>
<path d="M204.499 90.2015C204.502 90.6229 204.422 91.0408 204.263 91.4311C204.104 91.8214 203.869 92.1763 203.572 92.4754C203.275 92.7745 202.922 93.0119 202.533 93.1739C202.144 93.3359 201.727 93.4193 201.305 93.4193C200.454 93.413 199.639 93.072 199.037 92.4699C198.435 91.8678 198.094 91.053 198.087 90.2015C198.157 89.3992 198.525 88.6521 199.118 88.1077C199.712 87.5634 200.488 87.2614 201.293 87.2614C202.098 87.2614 202.874 87.5634 203.468 88.1077C204.062 88.6521 204.429 89.3992 204.499 90.2015ZM203.899 90.2015C203.836 89.5536 203.535 88.9522 203.053 88.5146C202.571 88.0769 201.944 87.8345 201.293 87.8345C200.642 87.8345 200.015 88.0769 199.533 88.5146C199.051 88.9522 198.75 89.5536 198.688 90.2015C198.75 90.8494 199.051 91.4508 199.533 91.8884C200.015 92.3261 200.642 92.5686 201.293 92.5686C201.944 92.5686 202.571 92.3261 203.053 91.8884C203.535 91.4508 203.836 90.8494 203.899 90.2015ZM201.977 90.5617L202.722 91.8344H202.074L201.401 90.6337H200.825V91.8344H200.2V88.4485H201.569C201.712 88.4452 201.854 88.4709 201.987 88.5241C202.119 88.5772 202.24 88.6567 202.341 88.7577C202.442 88.8587 202.521 88.9792 202.574 89.1117C202.627 89.2443 202.653 89.3863 202.65 89.5291C202.677 89.7528 202.624 89.9787 202.501 90.1674C202.378 90.3562 202.193 90.4957 201.977 90.5617ZM200.825 90.0814H201.521C201.59 90.0885 201.66 90.0805 201.726 90.058C201.791 90.0355 201.851 89.999 201.902 89.9511C201.952 89.9031 201.991 89.8449 202.017 89.7803C202.042 89.7158 202.053 89.6465 202.05 89.5772C202.05 89.5089 202.036 89.4413 202.009 89.3785C201.982 89.3157 201.943 89.259 201.893 89.2118C201.844 89.1646 201.786 89.128 201.722 89.1041C201.658 89.0803 201.589 89.0696 201.521 89.0729H200.825V90.0814Z" fill="#231F20"/>
<defs>
<radialGradient id="paint0_radial" cx="0" cy="0" r="1" gradientUnits="userSpaceOnUse" gradientTransform="translate(55.3032 37.8281) scale(32.9465)">
<stop offset="0.49" stop-color="white"/>
<stop offset="0.62" stop-color="#E2E2E2"/>
<stop offset="0.88" stop-color="#999999"/>
<stop offset="1" stop-color="#777777"/>
</radialGradient>
<radialGradient id="paint1_radial" cx="0" cy="0" r="1" gradientUnits="userSpaceOnUse" gradientTransform="translate(69.3463 16.9453) rotate(2.2605) scale(41.5516 31.7042)">
<stop offset="0.56" stop-color="#F69521"/>
<stop offset="0.62" stop-color="#E87225"/>
<stop offset="0.68" stop-color="#DC5628"/>
<stop offset="0.74" stop-color="#D3402A"/>
<stop offset="0.81" stop-color="#CD312C"/>
<stop offset="0.89" stop-color="#C9282D"/>
<stop offset="1" stop-color="#C8252D"/>
</radialGradient>
<radialGradient id="paint2_radial" cx="0" cy="0" r="1" gradientUnits="userSpaceOnUse" gradientTransform="translate(69.3462 16.9453) rotate(2.2605) scale(41.5516 31.7042)">
<stop offset="0.56" stop-color="#FDD106"/>
<stop offset="0.59" stop-color="#FCC80A"/>
<stop offset="0.67" stop-color="#FAB214"/>
<stop offset="0.75" stop-color="#F8A31B"/>
<stop offset="0.85" stop-color="#F79A20"/>
<stop offset="1" stop-color="#F79721"/>
</radialGradient>
<radialGradient id="paint3_radial" cx="0" cy="0" r="1" gradientUnits="userSpaceOnUse" gradientTransform="translate(69.3463 16.9453) rotate(2.2605) scale(41.5516 31.7042)">
<stop offset="0.56" stop-color="#BDD631"/>
<stop offset="0.59" stop-color="#A1CF36"/>
<stop offset="0.63" stop-color="#78C53C"/>
<stop offset="0.68" stop-color="#56BC42"/>
<stop offset="0.73" stop-color="#39B546"/>
<stop offset="0.78" stop-color="#23AF4A"/>
<stop offset="0.84" stop-color="#14AB4C"/>
<stop offset="0.9" stop-color="#0BA94E"/>
<stop offset="1" stop-color="#08A84E"/>
</radialGradient>
<radialGradient id="paint4_radial" cx="0" cy="0" r="1" gradientUnits="userSpaceOnUse" gradientTransform="translate(69.3462 16.9453) rotate(2.2605) scale(41.5516 31.7042)">
<stop offset="0.56" stop-color="#29AAE1"/>
<stop offset="0.57" stop-color="#29A5DD"/>
<stop offset="0.62" stop-color="#2A82C3"/>
<stop offset="0.68" stop-color="#2B66AD"/>
<stop offset="0.74" stop-color="#2B509D"/>
<stop offset="0.81" stop-color="#2C4191"/>
<stop offset="0.89" stop-color="#2C388A"/>
<stop offset="1" stop-color="#2C3588"/>
</radialGradient>
</defs>
</svg>
