<svg width="220" height="107" viewBox="0 0 220 107" fill="none" xmlns="http://www.w3.org/2000/svg">
<path d="M199.76 16.6287C198.865 14.9277 197.81 13.3161 196.608 11.8159C187.729 0.578086 170.884 0.000554156 167.707 0.000554156C166.573 -0.00671745 165.44 0.0575806 164.314 0.193065C163.19 0.355828 162.149 0.880916 161.35 1.68867C160.551 2.49642 160.037 3.54276 159.887 4.66894C159.757 5.73073 159.954 6.80687 160.453 7.7531C160.952 8.69932 161.729 9.47042 162.678 9.963C151.747 12.7302 142.205 19.397 135.847 28.7087C135.542 28.6853 135.237 28.6853 134.932 28.7087H134.499L115.248 30.3451C114.129 30.4493 113.073 30.9137 112.24 31.6686C111.405 31.1382 110.438 30.8546 109.449 30.8504H108.992L94.4089 32.0777C93.5549 32.1455 92.7314 32.4253 92.0129 32.8917C91.2944 33.3582 90.7036 33.9964 90.2939 34.7488C86.9926 33.1058 83.3447 32.2805 79.6577 32.3424C78.8877 32.3424 78.0936 32.3424 77.2513 32.3424C72.7597 32.6894 68.4062 34.0556 64.5215 36.337C64.0404 35.841 63.4643 35.4468 62.8277 35.1781C62.191 34.9094 61.5068 34.7716 60.8157 34.7728H60.3826L45.7517 36.0964C44.6964 36.188 43.6938 36.5985 42.8772 37.2732C42.0606 37.948 41.4685 38.8552 41.1796 39.8744C37.8367 38.2641 34.156 37.4801 30.4471 37.5883C29.3642 37.5883 28.1851 37.5883 26.9338 37.7327L13.843 38.8396C12.7064 38.9419 11.6345 39.4137 10.7914 40.1829C9.94831 40.9521 9.38043 41.9764 9.17465 43.0989L0.0303845 98.6624C-0.0545187 99.4903 0.0390132 100.327 0.304678 101.115C0.570343 101.904 1.00197 102.627 1.57047 103.235C2.11893 103.712 2.75614 104.077 3.44569 104.308C4.13524 104.539 4.8636 104.633 5.58914 104.582L8.26023 104.39C9.17548 104.308 10.0525 103.984 10.8011 103.451C11.5496 102.918 12.1428 102.196 12.5195 101.358C12.712 101.358 25.9231 100.491 26.0675 100.491V100.78C25.9694 101.549 26.0437 102.33 26.2851 103.067C26.5265 103.804 26.929 104.478 27.4632 105.039C27.9467 105.549 28.5289 105.955 29.1743 106.232C29.8197 106.509 30.5148 106.652 31.2172 106.652L133.609 98.6624C134.798 98.5914 135.927 98.1121 136.804 97.3054C137.68 96.4987 138.252 95.414 138.422 94.2347C138.422 94.2347 138.927 90.4566 138.927 90.2882C140.053 89.6706 141.017 88.7968 141.742 87.7374C150.332 96.1421 161.875 100.842 173.892 100.828C183.753 100.839 193.358 97.684 201.293 91.8278C209.227 85.9716 215.073 77.7233 217.969 68.2965C220.865 58.8697 220.659 48.7622 217.381 39.4612C214.104 30.1602 207.927 22.1568 199.76 16.6287ZM132.382 74.8633H132.237V74.7189C132.249 74.6069 132.249 74.494 132.237 74.382L132.382 74.8633Z" fill="white"/>
<path d="M173.892 13.8132C163.042 13.8132 152.637 18.1232 144.965 25.795C137.293 33.4669 132.983 43.8721 132.983 54.7218C132.983 65.5714 137.293 75.9767 144.965 83.6485C152.637 91.3204 163.042 95.6303 173.892 95.6303H174.036C184.886 95.6303 195.291 91.3204 202.963 83.6485C210.635 75.9767 214.945 65.5714 214.945 54.7218C214.945 43.8721 210.635 33.4669 202.963 25.795C195.291 18.1232 184.886 13.8132 174.036 13.8132H173.892Z" fill="white" stroke="#EC1C24" stroke-width="1.51624" stroke-miterlimit="10"/>
<path d="M133.705 34.4119L115.922 35.9038L106.994 46.131L108.751 36.5054L95.203 37.6605L93.8795 45.7219L93.5185 45.1684C91.8348 42.6281 89.4636 40.6187 86.6814 39.3746C83.8992 38.1305 80.8207 37.7029 77.8048 38.1418C74.6192 38.3702 71.5144 39.2505 68.683 40.7283C65.8517 42.2061 63.3541 44.2497 61.3451 46.7326C60.5222 47.7805 59.782 48.8907 59.1312 50.0534L58.3853 51.401L60.3104 40.6444L46.8105 41.7995L44.8373 52.7726L44.5485 51.786C43.9115 49.6821 42.6533 47.8199 40.939 46.4438C37.9671 44.1581 34.2587 43.0447 30.5193 43.3155C29.5808 43.3155 28.5701 43.3155 27.4873 43.4358L14.7815 44.5187L7.75488 83.4781L21.3028 82.3471L23.1076 72.1922L27.2947 71.8312C32.1602 71.6178 36.8093 69.7599 40.4817 66.5612C41.0388 66.0327 41.5537 65.4614 42.0218 64.8527L42.6475 64.0586L39.6636 80.6626L53.1634 79.5316L56.1954 62.6869L56.4361 64.1308C57.8559 72.6975 64.4975 78.0156 73.7861 78.0156C74.4599 78.0156 75.1578 78.0156 75.8316 78.0156C80.5443 77.7066 85.0026 75.7668 88.441 72.529L89.0186 72.0237L88.1763 76.6921L101.724 75.5611L103.288 66.6815L106.441 63.2404L111.855 74.6948L126.293 73.4675L116.331 53.4705L133.705 34.4119ZM26.2359 60.6656H25.1531L26.0915 55.3474L28.161 55.179C28.6344 55.0799 29.1227 55.0757 29.5977 55.1666C30.0727 55.2574 30.525 55.4416 30.9284 55.7084C31.0796 55.8313 31.2028 55.985 31.29 56.1593C31.3771 56.3336 31.4261 56.5244 31.4337 56.7191C31.6984 59.8474 27.8963 60.5212 26.2359 60.6656ZM90.0292 66.4409L82.3047 60.6896L81.1256 62.0613C80.4722 63.016 79.6198 63.818 78.627 64.412C77.6342 65.006 76.5246 65.378 75.3743 65.5024H74.8209C74.1825 65.526 73.5461 65.4177 72.9515 65.1842C72.3569 64.9506 71.8169 64.597 71.3652 64.1453C70.9135 63.6936 70.5599 63.1535 70.3264 62.559C70.0928 61.9644 69.9845 61.328 70.0081 60.6896C69.7023 58.3535 70.3173 55.99 71.723 54.0993C73.1287 52.2085 75.2149 50.9388 77.5401 50.5587C78.6451 50.4004 79.7719 50.5971 80.7579 51.1204C81.744 51.6437 82.5384 52.4666 83.0267 53.4705L84.0614 55.179L93.1094 49.3074L90.0292 66.4409Z" fill="white"/>
<path d="M96.8394 39.4653L106.465 38.6471L103.842 52.7004L116.86 37.7568L128.892 36.7461L113.973 53.1817L123.261 71.8071L113.131 72.6975L107.042 59.8474L101.58 65.8152L100.184 73.7804L90.5587 74.5985L96.8394 39.4653Z" fill="#008ED4"/>
<path d="M16.4179 46.2272L27.6557 45.2647C33.2626 44.8075 37.0165 45.6256 39.6876 47.9117C40.6658 48.7625 41.462 49.8022 42.0285 50.9683C42.595 52.1344 42.9202 53.4029 42.9844 54.6977C43.7063 63.2404 37.2331 69.136 27.0781 69.9783L21.4231 70.4596L19.6183 80.5423L9.9928 81.3605L16.4179 46.2272ZM26.5006 62.5666C31.3134 62.1575 33.7198 59.8233 33.4551 56.5747C33.435 56.114 33.3199 55.6624 33.117 55.2483C32.9141 54.8342 32.6277 54.4665 32.2759 54.1683C31.6798 53.7315 31.002 53.4191 30.2826 53.2496C29.5633 53.0801 28.8172 53.057 28.0888 53.1817L24.5514 53.4705L22.9151 62.7591L26.5006 62.5666Z" fill="#008ED4"/>
<path d="M48.3265 43.484L57.9521 42.6658L51.527 77.7991L42.0218 78.6172L48.3265 43.484Z" fill="#008ED4"/>
<path d="M58.1687 62.5666C57.9726 59.7932 58.3271 57.0084 59.2118 54.3725C60.0965 51.7367 61.4939 49.3018 63.3235 47.2083C65.1531 45.1148 67.3788 43.4039 69.8724 42.1741C72.366 40.9443 75.0782 40.22 77.8529 40.0428C80.7796 39.5771 83.7785 40.0533 86.4169 41.4028C89.0553 42.7522 91.1967 44.9051 92.5319 47.5508L84.663 52.6523C83.987 51.36 82.9355 50.3027 81.6468 49.6197C80.3581 48.9367 78.8928 48.66 77.4439 48.8262C74.6173 49.2616 72.0699 50.7764 70.3375 53.0519C68.6051 55.3273 67.8228 58.186 68.1552 61.0265C68.1646 61.9611 68.3718 62.883 68.7632 63.7317C69.1547 64.5803 69.7214 65.3364 70.4261 65.9502C71.1309 66.5641 71.9577 67.0216 72.852 67.2928C73.7464 67.5641 74.688 67.6428 75.615 67.5238C77.0188 67.3795 78.3758 66.9379 79.5956 66.2284C80.8155 65.5189 81.8703 64.5577 82.6898 63.4089L89.5961 68.5585C88.0117 70.7905 85.9453 72.6372 83.55 73.9619C81.1548 75.2866 78.4921 76.0552 75.7594 76.2108C66.1579 77.0049 58.9387 71.6387 58.1687 62.5666Z" fill="#008ED4"/>
<path d="M30.9284 55.7565C30.0966 55.2589 29.1013 55.1118 28.1611 55.3475L26.0916 55.5159L25.1531 60.8581H26.236C27.8964 60.7137 31.6985 60.0399 31.4338 56.9597C31.4561 56.733 31.4216 56.5043 31.3334 56.2942C31.2451 56.0841 31.106 55.8993 30.9284 55.7565ZM26.1157 60.1602H25.6825L26.5007 55.8769L28.1611 55.7325C28.9863 55.5702 29.8423 55.7157 30.5675 56.1416C30.6627 56.2267 30.7396 56.3303 30.7934 56.4462C30.8472 56.5621 30.8768 56.6877 30.8803 56.8154C31.1691 59.4383 27.7039 60.1602 26.1879 60.1602H26.1157Z" fill="#008ED4"/>
<path d="M83.0027 53.5667C82.5144 52.5629 81.72 51.7399 80.7339 51.2166C79.7479 50.6933 78.6211 50.4967 77.5161 50.655C75.1909 51.035 73.1047 52.3048 71.699 54.1955C70.2933 56.0863 69.6783 58.4498 69.9841 60.7859C69.9605 61.4242 70.0688 62.0606 70.3023 62.6552C70.5359 63.2498 70.8895 63.7898 71.3412 64.2415C71.7929 64.6932 72.333 65.0469 72.9275 65.2804C73.5221 65.5139 74.1585 65.6223 74.7969 65.5987H75.3503C76.5006 65.4742 77.6102 65.1023 78.603 64.5082C79.5958 63.9142 80.4482 63.1123 81.1016 62.1575L82.2807 60.7859L90.0052 66.5371L93.0614 49.4999L84.0374 55.3474L83.0027 53.5667ZM89.6924 65.5987L82.2086 60.0399L80.7407 61.7966C80.1208 62.6854 79.316 63.4295 78.3814 63.9778C77.4468 64.5261 76.4045 64.8656 75.3263 64.973H74.8209C74.2509 64.9928 73.6827 64.896 73.1514 64.6883C72.6201 64.4807 72.1368 64.1667 71.7312 63.7656C71.3256 63.3645 71.0063 62.8848 70.7927 62.3559C70.5792 61.8269 70.476 61.2599 70.4894 60.6896C70.1833 58.4799 70.7511 56.2378 72.0723 54.4403C73.3935 52.6428 75.3638 51.4315 77.5642 51.0641C78.5739 50.9217 79.6027 51.1036 80.5023 51.5837C81.4019 52.0637 82.1257 52.8171 82.5695 53.7352L83.869 55.8769L92.3876 50.5347L89.6924 65.5987Z" fill="#008ED4"/>
<path d="M134.932 33.69L115.681 35.3263H115.561L107.716 44.3262L109.28 35.8557L94.6736 37.083L93.3982 44.1577C91.6063 41.7111 89.187 39.7937 86.3959 38.6078C83.6047 37.4218 80.5452 37.0114 77.5401 37.4199C74.2791 37.6459 71.0999 38.5427 68.2014 40.054C65.3029 41.5654 62.7476 43.6588 60.6954 46.2032C60.142 46.901 59.6125 47.6229 59.1313 48.3689L60.6714 39.8744L46.1127 41.1016L44.5726 50.5347C43.8842 48.7661 42.7581 47.2013 41.2999 45.9866C38.2425 43.579 34.4026 42.3876 30.5193 42.6417C29.5568 42.6417 28.522 42.6417 27.4392 42.7861L14.4687 43.9652L7.24957 84.0556L21.6879 82.8043L23.4927 72.7216L27.2707 72.4087C32.3097 72.2097 37.1306 70.3001 40.939 66.9944C41.2759 66.6575 41.5887 66.3446 41.9015 65.9837L39.1583 81.3124L53.5966 80.061L56.1955 65.6227C58.0965 73.6841 64.7141 78.6172 73.7862 78.6172H75.8797C80.4465 78.3015 84.7871 76.5112 88.2486 73.5157L87.5507 77.3659L102.157 76.1146L103.746 66.9944L106.296 64.227L111.566 75.3205L127.112 74.021L116.981 53.5667L134.932 33.69ZM111.855 74.5985L106.441 63.1441L103.288 66.5853L101.724 75.4648L88.1764 76.5958L89.0667 72.0478L88.4892 72.5531C85.0508 75.7908 80.5925 77.7307 75.8797 78.0397C75.2059 78.0397 74.5081 78.0397 73.8343 78.0397C64.5456 78.0397 57.904 72.7216 56.4842 64.1548L56.2436 62.711L53.2116 79.5557L39.7117 80.6867L42.6956 64.0826L42.07 64.8767C41.6019 65.4855 41.087 66.0567 40.5299 66.5853C36.8575 69.7839 32.2084 71.6419 27.3429 71.8553L23.1077 72.1922L21.3029 82.2749L7.75491 83.4059L14.7816 44.4224L27.4873 43.3155C28.5702 43.3155 29.5808 43.1952 30.5193 43.1952C34.274 42.9585 37.9841 44.1152 40.939 46.4438C42.5714 47.811 43.7677 49.6263 44.3801 51.6657L44.6689 52.6523L46.6421 41.6792L60.1901 40.5241L58.265 51.2807L59.011 49.9331C59.6617 48.7704 60.4019 47.6601 61.2248 46.6123C63.2338 44.1294 65.7314 42.0858 68.5628 40.608C71.3941 39.1302 74.4989 38.2498 77.6845 38.0215C80.7004 37.5826 83.779 38.0101 86.5611 39.2542C89.3433 40.4983 91.7145 42.5077 93.3982 45.0481L93.8795 45.7219L95.3233 37.7808L108.871 36.6258L107.115 46.2513L116.042 36.0242L133.826 34.5322L116.5 53.6148L126.462 73.6119L111.855 74.5985Z" fill="#008ED4"/>
<path d="M6.69611 91.1064L9.1025 90.6491V91.347C9.27186 91.1054 9.49448 90.906 9.75317 90.7641C10.0119 90.6223 10.2997 90.5417 10.5945 90.5288C10.8785 90.4964 11.1661 90.5268 11.437 90.618C11.7079 90.7091 11.9555 90.8587 12.1622 91.0562C12.3688 91.2537 12.5295 91.4942 12.6329 91.7607C12.7362 92.0272 12.7797 92.3131 12.7602 92.5983C12.8458 93.0675 12.8322 93.5494 12.7203 94.013C12.6085 94.4766 12.4008 94.9117 12.1107 95.2902C11.8205 95.6688 11.4544 95.9824 11.0358 96.2109C10.6172 96.4394 10.1553 96.5777 9.68003 96.617C9.42747 96.6584 9.1691 96.6478 8.92081 96.5857C8.67251 96.5236 8.43954 96.4114 8.2362 96.256L7.82711 99.0956L5.58917 99.2881L6.69611 91.1064ZM8.66935 93.0315L8.42871 94.8122C8.42871 95.0047 8.69341 95.0769 9.05437 95.0528C9.41533 95.0288 10.3538 94.3068 10.2335 92.9111C10.2335 92.4539 9.9688 92.2133 9.58377 92.2374C9.37379 92.2747 9.17785 92.3682 9.01682 92.508C8.85579 92.6479 8.7357 92.8288 8.66935 93.0315Z" fill="#F05A28"/>
<path d="M14.3003 87.593L16.7067 87.1358L15.4554 96.0394L13.1212 96.256L14.3003 87.593Z" fill="#F05A28"/>
<path d="M16.8751 94.355C16.8168 94.0044 16.8168 93.6467 16.8751 93.2962L17.3083 90.2641L19.7147 89.8069L19.1852 93.0796C19.1852 93.2962 19.1852 93.5368 19.1852 93.6571C19.1852 93.7774 19.3778 94.1143 19.6906 94.0903C19.8917 94.0572 20.0811 93.9736 20.241 93.8474C20.4009 93.7211 20.5262 93.5563 20.605 93.3684L21.1344 89.8791L23.4205 89.5181L22.6504 93.7052C22.6126 93.9928 22.6126 94.284 22.6504 94.5715C22.6812 94.8893 22.7885 95.1948 22.9633 95.4619L20.5569 95.6304C20.4544 95.4185 20.3893 95.1906 20.3644 94.9566C20.1779 95.2352 19.928 95.4655 19.6352 95.6287C19.3423 95.7918 19.0149 95.8831 18.6799 95.8951C18.4579 95.9257 18.232 95.9089 18.0169 95.846C17.8018 95.7831 17.6025 95.6753 17.432 95.5299C17.2616 95.3844 17.1238 95.2045 17.0278 95.002C16.9319 94.7995 16.8798 94.579 16.8751 94.355Z" fill="#F05A28"/>
<path d="M24.0943 94.9566L23.8777 93.4646C24.5605 93.722 25.2928 93.8207 26.0194 93.7534C26.7413 93.7534 27.006 93.6331 26.982 93.4165C26.9579 93.1999 26.982 93.1999 26.4044 93.0796H25.9472C24.9365 92.8389 24.1424 92.5261 24.0702 91.6358C24.0702 90.3363 24.9847 89.4459 26.982 89.2294C27.7406 89.1419 28.5061 89.3205 29.1477 89.7347V91.1545C28.4652 90.8607 27.7239 90.7289 26.982 90.7695C26.4285 90.7695 26.26 90.962 26.2841 91.1545C26.3082 91.347 26.5729 91.3711 27.0782 91.4914H27.5595C28.6183 91.732 29.1958 92.1892 29.244 92.9593C29.3643 94.3068 28.0648 95.0528 26.1638 95.1972C25.465 95.31 24.7486 95.2267 24.0943 94.9566Z" fill="#F05A28"/>
<path d="M33.2145 85.8123L44.0914 84.946L43.6582 88.4112L37.1369 89.0369L36.6797 92.3577L42.0459 91.9245L41.6609 94.7159L36.3428 95.125L35.5487 101.069L31.1691 101.406L33.2145 85.8123Z" fill="#F05A28"/>
<path d="M45.7518 84.8016L50.1073 84.4647L48.1581 100.13L43.8026 100.467L45.7518 84.8016Z" fill="#F05A28"/>
<path d="M53.2115 84.2241L60.19 83.6706C60.811 83.5391 61.4526 83.539 62.0736 83.6704C62.6946 83.8018 63.2813 84.0617 63.7958 84.4334C64.3103 84.8051 64.7413 85.2804 65.0611 85.8287C65.3809 86.3771 65.5823 86.9862 65.6525 87.6171C65.7125 88.7754 65.3955 89.922 64.7491 90.8851C64.1028 91.8482 63.1617 92.5759 62.067 92.9593C62.9574 93.1037 63.3424 94.1865 63.4146 95.3657L63.5349 96.9057C63.5081 97.2988 63.5879 97.6918 63.7657 98.0433C63.9436 98.3948 64.213 98.6918 64.5456 98.903L59.7328 99.264C59.26 98.7081 59.0112 97.9961 59.0349 97.2667V95.7266C59.0349 94.4994 58.7221 93.8496 57.7596 93.9218H56.2676L55.5457 99.4806L51.1901 99.8415L53.2115 84.2241ZM57.1098 87.3524L56.6045 91.4432L58.7462 91.2748C59.0813 91.2762 59.413 91.2075 59.72 91.0733C60.027 90.939 60.3026 90.7421 60.5291 90.4952C60.7557 90.2483 60.9281 89.9568 61.0355 89.6394C61.1429 89.3219 61.1827 88.9856 61.1526 88.6518C61.1526 87.7134 60.3585 87.1599 58.9868 87.2802L57.1098 87.3524Z" fill="#F05A28"/>
<path d="M68.5643 82.9968L79.4412 82.1546L79.008 85.6198L72.4867 86.1251L72.0776 89.0369L77.4439 88.6037L77.0348 91.4432L71.6926 91.8523L71.3076 94.8122L77.853 94.3068L77.3717 97.772L66.5189 98.6624L68.5643 82.9968Z" fill="#F05A28"/>
<path d="M81.6791 81.9621L88.441 81.4327C91.8581 81.168 93.5185 82.5637 93.687 84.7294C93.7572 85.6108 93.5331 86.4905 93.0497 87.2308C92.5664 87.9711 91.8511 88.5301 91.0159 88.8203C91.6673 88.9006 92.2684 89.2119 92.7099 89.6976C93.1514 90.1833 93.4042 90.8112 93.4223 91.4673C93.6388 94.2106 91.4972 96.6892 87.2138 97.0261L79.5855 97.6277L81.6791 81.9621ZM84.8315 90.8416L84.4464 93.8496L87.1657 93.6331C88.6576 93.6331 89.2352 92.6224 89.163 91.7561C89.0908 90.8898 88.6095 90.601 87.5266 90.6732L84.8315 90.8416ZM85.6015 85.0904L85.1924 88.0743L87.5988 87.8818C87.8565 87.8922 88.1134 87.8487 88.3533 87.7541C88.5932 87.6595 88.8107 87.5159 88.9919 87.3324C89.1731 87.149 89.314 86.9297 89.4056 86.6887C89.4972 86.4476 89.5375 86.1901 89.5239 85.9326C89.5239 85.1626 88.9223 84.8497 87.9598 84.9219L85.6015 85.0904Z" fill="#F05A28"/>
<path d="M100.954 80.4461L105.31 80.1092L108.51 95.3416L104.395 95.6785L103.794 92.7908L98.3794 93.224L96.9596 96.256L93.1094 96.5689L100.954 80.4461ZM99.751 90.2641L103.216 89.9994L102.181 85.1866L99.751 90.2641Z" fill="#F05A28"/>
<path d="M111.711 79.6038L116.066 79.2429L114.478 91.4433L121.36 90.8898L120.879 94.355L109.665 95.2453L111.711 79.6038Z" fill="#F05A28"/>
<path d="M124.031 78.6172L128.387 78.2803L126.799 90.4566L133.705 89.9032L133.2 93.3924L121.986 94.2828L124.031 78.6172Z" fill="#F05A28"/>
<path d="M133.609 81.3605C133.419 81.5569 133.191 81.7117 132.938 81.8153C132.685 81.9188 132.414 81.9688 132.141 81.9621C131.869 81.9633 131.599 81.9107 131.347 81.8075C131.095 81.7043 130.866 81.5524 130.673 81.3605C130.475 81.1671 130.319 80.9346 130.215 80.6777C130.112 80.4209 130.063 80.1453 130.072 79.8685C130.064 79.5875 130.119 79.3083 130.231 79.0505C130.343 78.7927 130.511 78.5627 130.721 78.3766C131.112 77.9987 131.634 77.7875 132.177 77.7875C132.72 77.7875 133.243 77.9987 133.633 78.3766C134.016 78.7694 134.232 79.2957 134.235 79.8444C134.245 80.1272 134.195 80.409 134.087 80.6705C133.979 80.9321 133.816 81.1674 133.609 81.3605ZM130.938 78.6653C130.744 78.8659 130.601 79.111 130.524 79.3792C130.446 79.6474 130.436 79.9305 130.493 80.2038C130.55 80.4771 130.673 80.7322 130.852 80.9468C131.03 81.1614 131.259 81.329 131.517 81.4348C131.776 81.5407 132.056 81.5817 132.334 81.5541C132.612 81.5266 132.878 81.4313 133.111 81.2768C133.343 81.1222 133.535 80.9131 133.667 80.6676C133.8 80.422 133.871 80.1477 133.874 79.8685C133.874 79.6444 133.829 79.4226 133.742 79.216C133.655 79.0094 133.528 78.8222 133.368 78.6653C133.048 78.3479 132.616 78.1698 132.165 78.1698C131.714 78.1698 131.282 78.3479 130.962 78.6653H130.938ZM131.251 81.0717V78.6653H132.382C132.541 78.6735 132.696 78.7144 132.839 78.7856C132.937 78.8395 133.019 78.9199 133.074 79.0177C133.13 79.1155 133.156 79.2268 133.152 79.3391C133.156 79.4156 133.144 79.4922 133.115 79.5631C133.085 79.6339 133.041 79.6972 132.983 79.7482C132.866 79.842 132.724 79.9004 132.574 79.9166C132.685 79.8958 132.8 79.8958 132.911 79.9166C132.982 79.9837 133.037 80.0665 133.07 80.1584C133.104 80.2504 133.115 80.3489 133.104 80.446V80.8311H132.526C132.511 80.7273 132.511 80.622 132.526 80.5182C132.535 80.4302 132.535 80.3415 132.526 80.2535C132.497 80.1697 132.437 80.1006 132.358 80.061H131.9V80.8551L131.251 81.0717ZM132.334 79.2429C132.223 79.2143 132.107 79.2143 131.997 79.2429H131.852V79.8926H132.069C132.179 79.9234 132.296 79.9234 132.406 79.8926C132.446 79.8615 132.478 79.8212 132.498 79.7751C132.519 79.7289 132.529 79.6784 132.526 79.6279C132.556 79.5931 132.577 79.5511 132.586 79.5058C132.595 79.4606 132.592 79.4137 132.578 79.37C132.563 79.3262 132.537 79.287 132.503 79.2562C132.469 79.2255 132.427 79.2043 132.382 79.1947L132.334 79.2429Z" fill="#F05A28"/>
<path d="M173.916 13.717H173.796C162.92 13.7329 152.497 18.0683 144.818 25.7695C137.14 33.4707 132.835 43.9068 132.851 54.7819C132.867 65.6571 137.202 76.0805 144.904 83.7591C152.605 91.4377 163.041 95.7426 173.916 95.7266H174.06C179.445 95.7171 184.775 94.6471 189.747 92.5777C194.718 90.5082 199.233 87.4799 203.034 83.6655C206.835 79.8512 209.847 75.3255 211.899 70.347C213.951 65.3684 215.002 60.0344 214.993 54.6496C214.983 49.2648 213.913 43.9345 211.844 38.9632C209.775 33.9919 206.746 29.4769 202.932 25.6759C199.118 21.875 194.592 18.8626 189.613 16.8106C184.635 14.7587 179.301 13.7075 173.916 13.717Z" fill="white" stroke="#EC1C24" stroke-width="1.51624" stroke-miterlimit="10"/>
<path d="M209.218 48.2727C208.848 46.6448 208.39 45.0381 207.846 43.4599C206.6 40.1969 204.783 37.1819 202.48 34.5562C201.565 37.6409 200.472 40.67 199.207 43.6283C198.546 45.1853 197.559 46.5832 196.314 47.7285C195.069 48.8739 193.594 49.7403 191.988 50.27C191.29 50.4317 190.557 50.3262 189.934 49.9743C189.31 49.6224 188.841 49.0496 188.619 48.3689C187.849 46.2754 193.672 43.893 196.608 37.5642C197.821 34.8378 198.333 31.8519 198.1 28.8772C197.727 23.8025 195.822 18.9606 192.638 14.9923C184.985 5.36678 169.175 4.66893 165.06 5.24646C166.674 6.03754 167.987 7.33079 168.803 8.93194C169.619 10.5331 169.893 12.3557 169.584 14.126C169.247 18.9388 168.67 19.6848 161.788 24.3772C160.085 25.5238 158.476 26.8031 156.975 28.2034V28.3959C154.41 30.6917 152.42 33.5582 151.166 36.7641C149.912 39.9701 149.429 43.4259 149.756 46.8529C149.756 48.3689 150.718 52.6282 150.815 53.0132C150.911 53.3983 150.069 54.7699 148.408 51.4491C143.595 41.8235 150.454 30.0322 150.55 29.6472C148.421 30.4936 146.5 31.7906 144.919 33.4493C140.978 38.7922 138.597 45.1236 138.041 51.7392C137.485 58.3547 138.775 64.9948 141.768 70.9208C144.761 76.8467 149.339 81.8261 154.993 85.3049C160.648 88.7836 167.157 90.6253 173.796 90.6251C183.326 90.5805 192.449 86.7533 199.159 79.9846C205.869 73.216 209.617 64.06 209.579 54.5293C209.647 52.4371 209.526 50.343 209.218 48.2727Z" fill="url(#paint0_linear)"/>
<path d="M182.627 60.1602L187.849 30.0804L177.598 30.9948L147.277 64.0345L148.986 71.7349L171.149 69.7858L169.344 80.3498L179.258 79.4113L181.063 68.8473L187.488 68.2697L189.052 59.5105L182.627 60.1602ZM172.713 61.0506L160.536 62.1335L175.432 45.2887L172.713 61.0506Z" fill="white"/>
<defs>
<linearGradient id="paint0_linear" x1="173.94" y1="90.6251" x2="173.94" y2="5.10208" gradientUnits="userSpaceOnUse">
<stop stop-color="#FFCD00"/>
<stop offset="0.03" stop-color="#FEC402"/>
<stop offset="0.21" stop-color="#F9920C"/>
<stop offset="0.38" stop-color="#F46715"/>
<stop offset="0.55" stop-color="#F1461B"/>
<stop offset="0.72" stop-color="#EE2F20"/>
<stop offset="0.87" stop-color="#ED2123"/>
<stop offset="1" stop-color="#EC1C24"/>
</linearGradient>
</defs>
</svg>
