<svg width="271" height="71" viewBox="0 0 271 71" fill="none" xmlns="http://www.w3.org/2000/svg">
<path d="M270.859 26.4782C270.863 22.1659 269.733 17.9284 267.58 14.1914C268.465 13.6691 269.217 12.9514 269.781 12.0934C270.345 11.2353 270.706 10.2595 270.835 9.24081C270.964 8.22207 270.858 7.18734 270.525 6.21581C270.193 5.24427 269.642 4.36168 268.916 3.63558C268.19 2.90948 267.308 2.35911 266.336 2.0266C265.365 1.69409 264.33 1.58825 263.311 1.71718C262.292 1.8461 261.317 2.20638 260.459 2.77043C259.6 3.33449 258.883 4.08737 258.36 4.97147C252.783 1.7705 246.177 0.870374 239.946 2.46231C233.715 4.05426 228.35 8.01281 224.991 13.497C222.766 9.72234 219.602 6.58748 215.807 4.39702C212.012 2.20656 207.715 1.035 203.333 0.99617C198.951 0.957342 194.634 2.05257 190.801 4.17543C186.968 6.29829 183.749 9.3766 181.457 13.1113C179.124 9.31504 175.834 6.19867 171.917 4.07444C168.001 1.95021 163.594 0.892742 159.14 1.00801C154.686 1.12327 150.34 2.40722 146.538 4.73118C142.737 7.05514 139.612 10.3375 137.479 14.2493C135.29 10.2362 132.061 6.88692 128.131 4.55342C124.2 2.21993 119.714 0.988448 115.143 0.988448C110.572 0.988448 106.085 2.21993 102.155 4.55342C98.2242 6.88692 94.995 10.2362 92.8065 14.2493C90.6463 10.2817 87.4686 6.96084 83.5999 4.62803C79.7313 2.29522 75.3112 1.03457 70.794 0.975655C66.2768 0.916735 61.8254 2.06166 57.8972 4.29278C53.9691 6.52389 50.7058 9.76072 48.4428 13.6706C45.6279 8.81962 41.2922 5.03196 36.1071 2.89416C30.922 0.756359 25.1767 0.38767 19.7608 1.84519C14.345 3.3027 9.56072 6.50511 6.14888 10.9565C2.73705 15.408 0.88797 20.86 0.88797 26.4686C0.88797 32.0771 2.73705 37.5292 6.14888 41.9807C9.56072 46.4321 14.345 49.6345 19.7608 51.092C25.1767 52.5495 30.922 52.1808 36.1071 50.043C41.2922 47.9052 45.6279 44.1176 48.4428 39.2666C50.7041 43.1774 53.966 46.4156 57.8931 48.6484C61.8203 50.8811 66.2712 52.028 70.7884 51.971C75.3056 51.9141 79.7261 50.6554 83.5957 48.3243C87.4654 45.9932 90.6446 42.6738 92.8065 38.7072C94.995 42.7202 98.2242 46.0696 102.155 48.4031C106.085 50.7366 110.572 51.968 115.143 51.968C119.714 51.968 124.2 50.7366 128.131 48.4031C132.061 46.0696 135.29 42.7202 137.479 38.7072C139.262 41.9574 141.738 44.7758 144.731 46.9627H144.133C142.979 47.0499 141.899 47.5686 141.109 48.4157C140.319 49.2627 139.877 50.376 139.871 51.5341V65.6726C139.871 66.8953 140.356 68.0678 141.221 68.9324C142.085 69.7969 143.258 70.2826 144.481 70.2826H263.916C264.52 70.2826 265.119 70.1632 265.677 69.9313C266.235 69.6994 266.742 69.3596 267.169 68.9312C267.595 68.5029 267.933 67.9945 268.162 67.4353C268.392 66.8762 268.509 66.2771 268.506 65.6726V51.5341C268.506 50.3166 268.023 49.1489 267.162 48.288C266.301 47.4271 265.133 46.9434 263.916 46.9434H260.058C263.386 44.6671 266.109 41.6136 267.991 38.0476C269.874 34.4816 270.858 30.5105 270.859 26.4782ZM181.457 39.8452C183.201 42.6144 185.452 45.0293 188.092 46.9627H174.899C177.512 45.0226 179.737 42.6081 181.457 39.8452ZM218.105 46.9434C220.852 44.9286 223.167 42.3839 224.914 39.4595C226.775 42.4326 229.239 44.9821 232.147 46.9434H218.105Z" fill="white"/>
<path d="M263.222 51.5343H144.443V64.9978H263.222V51.5343Z" fill="white"/>
<path d="M26.4739 47.098C37.8618 47.098 47.0934 37.8663 47.0934 26.4785C47.0934 15.0906 37.8618 5.85897 26.4739 5.85897C15.0861 5.85897 5.85443 15.0906 5.85443 26.4785C5.85443 37.8663 15.0861 47.098 26.4739 47.098Z" fill="white"/>
<path d="M26.4739 47.7924C22.2503 47.8114 18.1162 46.5752 14.5964 44.2405C11.0766 41.9059 8.32983 38.5781 6.70469 34.6796C5.07955 30.7811 4.64934 26.4876 5.46867 22.3441C6.28799 18.2007 8.3199 14.3941 11.3065 11.4075C14.2931 8.42089 18.0997 6.38898 22.2432 5.56966C26.3866 4.75033 30.6801 5.18054 34.5786 6.80568C38.4771 8.43082 41.8049 11.1776 44.1395 14.6974C46.4742 18.2172 47.7104 22.3513 47.6914 26.5749C47.656 32.1912 45.4092 37.5674 41.4378 41.5388C37.4664 45.5102 32.0902 47.7569 26.4739 47.7924ZM26.4739 6.53407C22.5285 6.53025 18.6705 7.69673 15.3882 9.88593C12.1058 12.0751 9.54645 15.1887 8.03395 18.8327C6.52145 22.4767 6.12373 26.4875 6.89111 30.3576C7.65849 34.2277 9.55649 37.7832 12.345 40.5744C15.1335 43.3657 18.6872 45.2671 22.5566 46.0382C26.4259 46.8093 30.4371 46.4155 34.0826 44.9065C37.728 43.3975 40.8441 40.8412 43.0364 37.561C45.2288 34.2807 46.399 30.4239 46.399 26.4785C46.3939 21.1938 44.2937 16.1267 40.5586 12.3881C36.8236 8.64945 31.7586 6.54428 26.4739 6.53407Z" fill="#231F20"/>
<path d="M91.0714 26.4785C91.0714 30.5558 89.8626 34.5416 87.5977 37.932C85.3329 41.3225 82.1137 43.9653 78.3471 45.5265C74.5805 47.0877 70.4356 47.4972 66.4363 46.7032C62.4371 45.9091 58.763 43.9472 55.8785 41.0655C52.9941 38.1837 51.0287 34.5115 50.231 30.5129C49.4332 26.5144 49.8388 22.3691 51.3964 18.6011C52.9541 14.833 55.594 11.6114 58.9823 9.34335C62.3706 7.07533 66.3553 5.86278 70.4326 5.85896C73.142 5.85643 75.8254 6.3879 78.3293 7.42299C80.8332 8.45808 83.1085 9.9765 85.0253 11.8915C86.942 13.8064 88.4626 16.0803 89.5 18.5833C90.5374 21.0862 91.0714 23.769 91.0714 26.4785Z" fill="white"/>
<path d="M70.4326 47.7924C66.213 47.7923 62.0884 46.5398 58.5813 44.1935C55.0742 41.8472 52.3424 38.5127 50.7321 34.6125C49.1218 30.7123 48.7054 26.4218 49.5356 22.2847C50.3659 18.1476 52.4054 14.3501 55.3959 11.3731C58.3863 8.39621 62.1931 6.37391 66.3339 5.56243C70.4748 4.75096 74.7633 5.18683 78.6562 6.81482C82.549 8.44282 85.8711 11.1897 88.2015 14.7074C90.5318 18.2251 91.7656 22.3554 91.7465 26.5749C91.716 32.2094 89.4575 37.603 85.4642 41.5782C81.471 45.5534 76.0672 47.7873 70.4326 47.7924ZM70.4326 6.53407C66.4888 6.53789 62.6347 7.71085 59.3574 9.90468C56.0801 12.0985 53.5268 15.2147 52.0202 18.8594C50.5136 22.5041 50.1214 26.5137 50.8931 30.3812C51.6648 34.2488 53.5659 37.8007 56.3559 40.5881C59.146 43.3754 62.6997 45.273 66.5681 46.041C70.4364 46.809 74.4455 46.4129 78.0888 44.9028C81.732 43.3927 84.8458 40.8364 87.0364 37.557C89.2271 34.2776 90.3963 30.4223 90.3963 26.4785C90.3912 21.1871 88.2856 16.1142 84.5423 12.3745C80.7989 8.63473 75.724 6.53407 70.4326 6.53407Z" fill="#231F20"/>
<path d="M115.144 47.098C126.531 47.098 135.763 37.8663 135.763 26.4785C135.763 15.0906 126.531 5.85897 115.144 5.85897C103.756 5.85897 94.524 15.0906 94.524 26.4785C94.524 37.8663 103.756 47.098 115.144 47.098Z" fill="white"/>
<path d="M115.144 47.7924C110.92 47.8114 106.786 46.5752 103.266 44.2405C99.7462 41.9059 96.9994 38.5781 95.3743 34.6796C93.7492 30.7811 93.3189 26.4876 94.1383 22.3441C94.9576 18.2007 96.9895 14.3941 99.9761 11.4075C102.963 8.42089 106.769 6.38898 110.913 5.56966C115.056 4.75033 119.35 5.18054 123.248 6.80568C127.147 8.43082 130.474 11.1776 132.809 14.6974C135.144 18.2172 136.38 22.3513 136.361 26.5749C136.326 32.1912 134.079 37.5674 130.107 41.5388C126.136 45.5102 120.76 47.7569 115.144 47.7924ZM115.144 6.53407C111.198 6.53025 107.34 7.69673 104.058 9.88593C100.775 12.0751 98.2161 15.1887 96.7035 18.8327C95.191 22.4767 94.7933 26.4875 95.5607 30.3576C96.3281 34.2277 98.2261 37.7832 101.015 40.5744C103.803 43.3657 107.357 45.2671 111.226 46.0382C115.096 46.8093 119.107 46.4155 122.752 44.9065C126.398 43.3975 129.514 40.8412 131.706 37.561C133.898 34.2807 135.069 30.4239 135.069 26.4785C135.064 21.1938 132.963 16.1267 129.228 12.3881C125.493 8.64945 120.428 6.54428 115.144 6.53407Z" fill="#231F20"/>
<path d="M180.377 26.4785C180.377 30.5591 179.167 34.5479 176.898 37.9401C174.63 41.3322 171.406 43.975 167.635 45.5339C163.864 47.0928 159.715 47.4978 155.714 46.6974C151.713 45.8971 148.039 43.9276 145.157 41.0381C142.276 38.1486 140.317 34.4692 139.528 30.4656C138.739 26.462 139.155 22.3143 140.725 18.5476C142.294 14.7809 144.946 11.5646 148.345 9.30583C151.743 7.0471 155.735 5.84753 159.816 5.85898C165.273 5.87938 170.5 8.06017 174.353 11.9243C178.206 15.7885 180.372 21.0214 180.377 26.4785Z" fill="white"/>
<path d="M159.816 47.7924C155.592 47.8114 151.458 46.5752 147.938 44.2405C144.419 41.9059 141.672 38.5781 140.047 34.6796C138.422 30.7811 137.991 26.4876 138.811 22.3441C139.63 18.2007 141.662 14.3941 144.648 11.4075C147.635 8.42089 151.442 6.38898 155.585 5.56966C159.729 4.75033 164.022 5.18054 167.921 6.80568C171.819 8.43082 175.147 11.1776 177.481 14.6974C179.816 18.2172 181.052 22.3513 181.033 26.5749C180.998 32.1912 178.751 37.5674 174.78 41.5388C170.808 45.5102 165.432 47.7569 159.816 47.7924ZM159.816 6.53407C155.87 6.53025 152.012 7.69673 148.73 9.88593C145.448 12.0751 142.888 15.1887 141.376 18.8327C139.863 22.4767 139.466 26.4875 140.233 30.3576C141 34.2277 142.898 37.7832 145.687 40.5744C148.475 43.3657 152.029 45.2671 155.899 46.0382C159.768 46.8093 163.779 46.4155 167.425 44.9065C171.07 43.3975 174.186 40.8412 176.378 37.561C178.571 34.2807 179.741 30.4239 179.741 26.4785C179.736 21.1938 177.636 16.1267 173.901 12.3881C170.166 8.64945 165.101 6.54428 159.816 6.53407Z" fill="#231F20"/>
<path d="M223.738 26.4785C223.738 30.5566 222.529 34.5432 220.263 37.934C217.998 41.3249 214.777 43.9678 211.009 45.5284C207.242 47.089 203.096 47.4974 199.096 46.7018C195.096 45.9062 191.422 43.9423 188.539 41.0587C185.655 38.175 183.691 34.5009 182.895 30.5011C182.1 26.5013 182.508 22.3554 184.069 18.5877C185.629 14.82 188.272 11.5997 191.663 9.33398C195.054 7.06828 199.041 5.85897 203.119 5.85897C208.586 5.86408 213.827 8.03812 217.693 11.9039C221.559 15.7697 223.733 21.0114 223.738 26.4785Z" fill="white"/>
<path d="M203.119 47.7924C198.895 47.8114 194.761 46.5752 191.241 44.2405C187.722 41.9059 184.975 38.5781 183.35 34.6796C181.724 30.7811 181.294 26.4876 182.114 22.3441C182.933 18.2007 184.965 14.3941 187.951 11.4075C190.938 8.42089 194.745 6.38898 198.888 5.56966C203.031 4.75033 207.325 5.18054 211.223 6.80568C215.122 8.43082 218.45 11.1776 220.784 14.6974C223.119 18.2172 224.355 22.3513 224.336 26.5749C224.301 32.1912 222.054 37.5674 218.083 41.5388C214.111 45.5102 208.735 47.7569 203.119 47.7924ZM203.119 6.53407C199.173 6.53025 195.315 7.69673 192.033 9.88593C188.751 12.0751 186.191 15.1887 184.679 18.8327C183.166 22.4767 182.769 26.4875 183.536 30.3576C184.303 34.2277 186.201 37.7832 188.99 40.5744C191.778 43.3657 195.332 45.2671 199.201 46.0382C203.071 46.8093 207.082 46.4155 210.727 44.9065C214.373 43.3975 217.489 40.8412 219.681 37.561C221.874 34.2807 223.044 30.4239 223.044 26.4785C223.039 21.1938 220.939 16.1267 217.204 12.3881C213.468 8.64945 208.403 6.54428 203.119 6.53407Z" fill="#231F20"/>
<path d="M266.694 26.4785C266.694 30.5566 265.485 34.5432 263.219 37.934C260.953 41.3249 257.733 43.9678 253.965 45.5284C250.197 47.089 246.052 47.4974 242.052 46.7018C238.052 45.9062 234.378 43.9423 231.494 41.0587C228.611 38.175 226.647 34.5009 225.851 30.5011C225.056 26.5013 225.464 22.3554 227.025 18.5877C228.585 14.82 231.228 11.5997 234.619 9.33398C238.01 7.06828 241.996 5.85897 246.074 5.85897C251.542 5.86408 256.783 8.03812 260.649 11.9039C264.515 15.7697 266.689 21.0114 266.694 26.4785Z" fill="#E31837"/>
<path d="M22.2111 38.6303C21.0345 38.6303 19.8965 38.6303 18.662 38.6303H18.1412V38.3602C16.5596 26.0155 17.524 19.5732 18.797 14.4424V14.2302H19.0285C21.3653 13.9655 23.7182 13.8688 26.0688 13.9409H28.9235C35.1923 14.0566 39.2236 17.355 39.4165 22.505C39.5052 23.55 39.3799 24.6021 39.0482 25.597C38.7166 26.5919 38.1856 27.5088 37.4877 28.2916C36.3788 29.2861 35.0825 30.0492 33.6748 30.5361C32.2671 31.023 30.7764 31.2239 29.29 31.127H25.6638C25.6638 33.4609 25.6638 35.8527 25.7795 38.2059V38.5145H25.4902C24.3329 38.5917 23.2913 38.6303 22.2111 38.6303ZM25.7602 19.9011C25.7602 20.5762 25.7602 21.3091 25.7602 22.0421C25.7602 22.7751 25.7602 23.971 25.7602 24.8968H28.5763C29.0465 24.9141 29.5155 24.8378 29.9559 24.6722C30.3963 24.5066 30.7994 24.2552 31.1417 23.9324C31.3701 23.709 31.5511 23.4418 31.6737 23.1468C31.7964 22.8519 31.8582 22.5351 31.8554 22.2157C31.8554 20.1711 28.885 19.9589 27.6505 19.9782L25.7602 19.9011Z" fill="#231F20"/>
<path d="M70.2976 38.6303C68.6134 38.6439 66.9438 38.318 65.3883 37.6721C63.8328 37.0262 62.4234 36.0736 61.2442 34.871C60.0651 33.6684 59.1403 32.2406 58.5251 30.6727C57.9099 29.1048 57.6169 27.4291 57.6636 25.7455C57.688 23.2075 58.4762 20.7357 59.9256 18.6521C61.375 16.5686 63.4184 14.9699 65.7895 14.0643C68.1605 13.1588 70.7494 12.9884 73.2187 13.5753C75.688 14.1623 77.9233 15.4794 79.6333 17.355C81.7212 19.6792 82.8994 22.6794 82.9509 25.8034C82.9739 27.4796 82.6636 29.1436 82.038 30.6989C81.4124 32.2542 80.484 33.6696 79.3068 34.863C78.1295 36.0565 76.7268 37.0041 75.1802 37.6508C73.6337 38.2975 71.974 38.6304 70.2976 38.6303ZM70.2976 19.6117H70.2397C67.115 19.6117 65.9962 22.8136 65.9962 25.8034C65.9962 27.3079 66.3049 32.2265 70.2976 32.2458C74.2903 32.265 74.5989 28.1952 74.6182 25.8034C74.7157 23.9133 74.0878 22.0574 72.863 20.6147C72.2145 19.9765 71.3425 19.6166 70.4326 19.6117H70.2976Z" fill="#231F20"/>
<path d="M110.128 38.611H106.965H106.792V38.4567C102.027 28.6002 100.581 21.097 102.22 14.9053V14.6739H102.452C104.207 14.6739 104.882 14.6739 105.731 14.6739H107.968V14.9825C107.713 19.19 108.064 23.4123 109.01 27.5201C109.527 25.0138 110.171 22.5352 110.939 20.0939C111.421 18.3965 111.922 16.6606 112.385 14.751V14.5388H112.597C114.524 14.4199 116.457 14.4199 118.384 14.5388H118.596V14.751C118.963 16.2555 119.329 17.6829 119.676 19.0331C120.409 21.8685 121.123 24.5496 121.605 27.5201C122.637 23.425 123.066 19.2013 122.878 14.9825V14.5967H124.363C126.292 14.5967 126.755 14.5967 128.684 14.7124H128.916V14.9439C130.285 21.1741 128.684 29.4489 124.421 38.2638V38.4374H124.248C123.09 38.4374 122.107 38.4374 121.162 38.4374C120.216 38.4374 118.982 38.4374 117.767 38.4374H117.497V38.1481C117.053 33.866 116.185 29.4489 115.336 25.1668C114.488 29.4489 113.639 33.866 113.215 38.1481V38.4181H112.867L110.128 38.611Z" fill="#231F20"/>
<path d="M160.954 38.6303C157.914 38.6183 154.879 38.3992 151.869 37.9745H151.638V37.7623C149.92 30.2141 149.92 22.3764 151.638 14.8282V14.5967H151.869C157.48 13.7544 163.184 13.7219 168.804 14.5003H168.997V14.6931C169.66 16.3902 170.157 18.1472 170.482 19.9396V20.3254H170.097L166.239 20.229C163.674 20.229 161.243 20.094 158.736 20.1325C158.736 21.0584 158.736 22.0614 158.736 22.9101C161.938 22.9101 165.159 22.9101 168.38 22.9101H168.804V23.2187C168.804 24.9933 168.804 26.8257 168.804 28.6774V28.986H168.496C165.313 28.986 162.092 29.0824 158.851 28.986C158.851 30.0276 158.851 31.0692 158.851 32.1107C162.709 32.1107 166.567 32.1107 170.521 31.7828H170.888V32.1493C170.79 34.0094 170.432 35.8466 169.827 37.608V37.7816H169.634C166.763 38.2568 163.863 38.5403 160.954 38.6303Z" fill="#231F20"/>
<path d="M199.435 38.6303C197.631 38.6319 195.83 38.477 194.053 38.1673H193.86V37.9938C191.611 30.291 191.82 22.0786 194.458 14.5003V14.3267H194.651C197.278 13.8472 199.949 13.6531 202.617 13.748H203.929C210.718 13.9023 214.21 16.4484 214.653 21.4634C214.776 22.6264 214.507 23.7971 213.888 24.7896C213.27 25.7821 212.337 26.5394 211.239 26.9414C213.438 27.7901 215.097 28.8702 214.808 33.2295C214.714 34.1568 214.566 35.0779 214.364 35.9877C214.29 36.2661 214.238 36.5499 214.21 36.8364H214.653L214.422 38.2059H214.19C212.597 38.406 210.993 38.5218 209.388 38.5531C208.674 38.5531 207.941 38.5531 207.131 38.6496H206.88V38.3988C206.674 37.0914 206.622 35.7642 206.726 34.4447C206.946 33.2027 206.676 31.9238 205.973 30.8763C205.541 30.5359 205.046 30.284 204.517 30.1351C203.987 29.9861 203.433 29.9431 202.887 30.0083H200.785V30.1047C200.785 32.8051 200.785 35.5827 200.997 38.3217V38.6303H199.396H199.435ZM200.843 20.1518C200.843 21.6563 200.843 23.0644 200.843 24.4146H203.678C204.748 24.5424 205.828 24.2673 206.706 23.643C206.857 23.4767 206.972 23.2815 207.045 23.0693C207.118 22.8571 207.147 22.6323 207.131 22.4086C207.131 20.9619 206.031 20.1132 204.237 20.1132C203.099 20.0939 201.961 20.1132 200.843 20.1518Z" fill="#231F20"/>
<path d="M229.814 33.1909C228.396 28.4993 228.396 23.4932 229.814 18.8016C231.145 18.8016 232.457 18.6473 233.672 18.6087C235.601 18.6087 236.758 19.3031 236.43 22.3314C236.349 23.5574 235.868 24.7229 235.061 25.6491C235.599 26.0646 236.027 26.6049 236.31 27.2233C236.592 27.8417 236.719 28.5195 236.681 29.1982C236.951 32.6315 235.89 33.7503 233.749 33.5767C232.457 33.4609 231.164 33.3452 229.814 33.1909ZM231.743 22.1C231.608 22.9101 231.512 23.7395 231.454 24.5496H232.688C233.267 24.5496 233.71 24.1253 233.788 23.238C233.865 22.3507 233.383 22.0614 232.765 22.0614L231.743 22.1ZM231.434 27.25C231.464 28.1479 231.548 29.0432 231.685 29.9311H232.939C233.653 29.9311 234.135 29.7575 234.038 28.6195C233.942 27.4815 233.267 27.1921 232.322 27.1536L231.434 27.25Z" fill="white"/>
<path d="M237.375 33.3066C237.757 28.1889 239.064 23.1828 241.233 18.5316H244.744C245.669 23.508 247.386 28.5038 248.601 33.4802H245.168L244.647 31.5514H241.079C241.079 32.1879 240.963 32.8437 240.924 33.4802L237.375 33.3066ZM242.525 23.0065C242.062 24.7811 241.657 26.5556 241.349 28.3302H243.702C243.258 26.5556 242.853 24.7811 242.525 23.0065Z" fill="white"/>
<path d="M249.566 33.5188C249.836 28.5524 249.836 23.5751 249.566 18.6087H252.768C253.269 22.3741 253.385 26.1807 253.115 29.9697C254.677 29.9697 256.22 29.9697 257.783 29.9697C257.628 31.1013 257.416 32.2393 257.146 33.3838C254.619 33.4417 252.092 33.4995 249.566 33.5188Z" fill="white"/>
<path d="M258.053 33.2873C259.094 28.502 259.094 23.5484 258.053 18.763C258.863 18.763 259.866 18.9174 260.676 18.9752C261.624 22.4841 261.789 26.1586 261.158 29.7382C262.354 29.7382 263.318 29.7382 264.514 29.7382C264.225 30.8604 263.844 31.957 263.376 33.0173C261.486 33.1716 260.001 33.1909 258.053 33.2873Z" fill="white"/>
<path d="M266.694 8.42435C266.696 8.76286 266.632 9.09853 266.504 9.412C266.376 9.72548 266.188 10.0106 265.949 10.2508C265.711 10.4911 265.427 10.6818 265.115 10.8119C264.802 10.942 264.467 11.009 264.129 11.009C263.445 11.004 262.79 10.73 262.306 10.2464C261.823 9.76278 261.549 9.10829 261.544 8.42435C261.6 7.77988 261.895 7.17978 262.372 6.74255C262.849 6.30532 263.472 6.06275 264.119 6.06275C264.766 6.06275 265.389 6.30532 265.866 6.74255C266.343 7.17978 266.638 7.77988 266.694 8.42435ZM266.212 8.42435C266.162 7.90396 265.92 7.42088 265.533 7.06934C265.146 6.71781 264.642 6.52304 264.119 6.52304C263.596 6.52304 263.092 6.71781 262.705 7.06934C262.318 7.42088 262.076 7.90396 262.026 8.42435C262.076 8.94473 262.318 9.42782 262.705 9.77935C263.092 10.1309 263.596 10.3257 264.119 10.3257C264.642 10.3257 265.146 10.1309 265.533 9.77935C265.92 9.42782 266.162 8.94473 266.212 8.42435ZM264.669 8.71368L265.267 9.73597H264.746L264.186 8.77154H263.743V9.73597H263.318V7.05486H264.399C264.516 7.05222 264.632 7.07337 264.741 7.11703C264.85 7.16069 264.949 7.22594 265.032 7.30887C265.115 7.39179 265.18 7.49065 265.224 7.5995C265.267 7.70834 265.289 7.82489 265.286 7.94213C265.29 8.12263 265.23 8.29869 265.117 8.43967C265.004 8.58064 264.846 8.67761 264.669 8.71368ZM263.743 8.30862H264.283C264.338 8.31701 264.395 8.31328 264.448 8.29769C264.502 8.2821 264.552 8.25501 264.594 8.21832C264.636 8.18162 264.67 8.13619 264.693 8.08517C264.716 8.03415 264.727 7.97876 264.726 7.92285C264.727 7.86624 264.715 7.81022 264.692 7.75838C264.67 7.70654 264.636 7.66004 264.595 7.62187C264.553 7.58371 264.503 7.55473 264.45 7.5368C264.396 7.51887 264.339 7.51239 264.283 7.51779H263.743V8.30862Z" fill="#231F20"/>
<path d="M224.741 55.0063C224.424 54.5337 223.993 54.1488 223.488 53.8876C223.13 53.7135 222.745 53.6026 222.35 53.5597C221.749 53.4801 221.142 53.4478 220.536 53.4632H217.894V64.3034H219.128V59.6548H220.749C221.336 59.6635 221.923 59.6248 222.504 59.5391C222.917 59.4626 223.314 59.3193 223.68 59.1148C224.146 58.8544 224.528 58.4662 224.78 57.996C225.048 57.5402 225.188 57.0204 225.185 56.4915C225.175 55.9653 225.022 55.4518 224.741 55.0063ZM223.14 58.1503C222.466 58.53 221.695 58.7044 220.922 58.6518H219.128V54.4469H220.884C221.688 54.3786 222.494 54.5533 223.198 54.9484C223.432 55.138 223.619 55.3798 223.743 55.6545C223.867 55.9291 223.925 56.229 223.912 56.5301C223.925 56.8359 223.857 57.1397 223.715 57.4107C223.572 57.6817 223.361 57.9102 223.102 58.0732L223.14 58.1503Z" fill="black"/>
<path fill-rule="evenodd" clip-rule="evenodd" d="M233.575 64.0719H227.982V53.2317H229.197V63.0303H233.575V64.0719Z" fill="#231F20"/>
<path d="M242.525 53.0774H241.059L236.314 63.9369H237.588L239.073 60.5228H244.609L246.094 63.9369H247.386L242.525 53.0774ZM239.42 59.5584L241.754 54.0997L244.03 59.5584H239.42Z" fill="black"/>
<path fill-rule="evenodd" clip-rule="evenodd" d="M254.118 60.2721V64.2648H252.903V60.2721L248.948 53.4246H250.337L253.52 59.0569L256.722 53.4246H258.072L254.118 60.2721Z" fill="#231F20"/>
<path d="M262.489 54.2347C262.321 53.9473 262.082 53.708 261.795 53.5404C261.501 53.3711 261.169 53.2819 260.83 53.2819C260.492 53.2819 260.159 53.3711 259.866 53.5404C259.578 53.708 259.339 53.9473 259.171 54.2347C259.002 54.528 258.913 54.8606 258.913 55.1992C258.913 55.5378 259.002 55.8704 259.171 56.1636C259.339 56.4511 259.578 56.6903 259.866 56.858C260.159 57.0273 260.492 57.1164 260.83 57.1164C261.169 57.1164 261.501 57.0273 261.795 56.858C262.082 56.6903 262.321 56.4511 262.489 56.1636C262.658 55.8704 262.747 55.5378 262.747 55.1992C262.747 54.8606 262.658 54.528 262.489 54.2347ZM261.91 56.1636C261.773 56.313 261.606 56.4316 261.42 56.5114C261.234 56.5912 261.033 56.6305 260.83 56.6265C260.424 56.6215 260.037 56.4566 259.752 56.1678C259.466 55.879 259.306 55.4894 259.306 55.0834C259.306 54.6793 259.467 54.2917 259.753 54.006C260.038 53.7202 260.426 53.5596 260.83 53.5596C261.236 53.5596 261.626 53.7195 261.915 54.0048C262.203 54.29 262.368 54.6775 262.373 55.0834C262.392 55.3019 262.359 55.5218 262.279 55.7258C262.199 55.9299 262.073 56.1127 261.91 56.26V56.1636ZM261.409 55.5271C261.366 55.4452 261.307 55.373 261.235 55.3149C261.187 55.2674 261.127 55.234 261.062 55.2185C261.221 55.1917 261.369 55.1178 261.486 55.0063C261.569 54.9094 261.617 54.7869 261.621 54.6591C261.625 54.58 261.611 54.5009 261.581 54.4276C261.551 54.3543 261.506 54.2884 261.447 54.2347C261.284 54.1221 261.087 54.0677 260.888 54.0804H259.981V56.1057H260.483V55.3149C260.525 55.3178 260.565 55.3296 260.602 55.3496C260.638 55.3695 260.67 55.3972 260.695 55.4306C260.839 55.6532 260.968 55.8852 261.081 56.125H261.679C261.505 55.8164 261.39 55.6235 261.39 55.6235L261.409 55.5271ZM260.695 54.9291H260.483V54.4276H260.714C260.814 54.3889 260.924 54.3889 261.023 54.4276C261.044 54.4837 261.044 54.5452 261.023 54.6012C261.047 54.6633 261.047 54.732 261.023 54.7941C260.942 54.9007 260.826 54.9757 260.695 55.0063V54.9291Z" fill="black"/>
<path fill-rule="evenodd" clip-rule="evenodd" d="M151.155 58.0153H151.985C152.468 58.0626 152.952 57.9398 153.354 57.6681C153.48 57.5624 153.581 57.4292 153.648 57.2788C153.714 57.1284 153.746 56.9646 153.74 56.8001C153.748 56.6407 153.723 56.4812 153.667 56.3318C153.61 56.1825 153.524 56.0464 153.412 55.9321C153.044 55.649 152.582 55.5179 152.12 55.5657H151.155V58.0153ZM162.844 58.5361C162.773 59.3742 162.991 60.2114 163.461 60.9086C163.667 61.1505 163.925 61.3423 164.216 61.4694C164.506 61.5964 164.822 61.6553 165.14 61.6416C165.455 61.6548 165.769 61.5977 166.059 61.4742C166.349 61.3507 166.609 61.1641 166.818 60.9279C167.288 60.1664 167.497 59.2729 167.416 58.3818C167.5 57.5899 167.309 56.7931 166.875 56.125C166.66 55.8929 166.397 55.7105 166.103 55.5906C165.81 55.4707 165.494 55.4161 165.178 55.4306C164.869 55.419 164.561 55.4772 164.277 55.6007C163.993 55.7242 163.741 55.91 163.539 56.1443C163.065 56.8474 162.847 57.6917 162.921 58.5361H162.844ZM206.243 57.726H207.671C207.97 57.6986 208.267 57.647 208.558 57.5717C208.772 57.5323 208.965 57.4156 209.098 57.2438C209.241 57.063 209.316 56.8377 209.31 56.6072C209.325 56.4558 209.303 56.303 209.246 56.162C209.189 56.021 209.098 55.8958 208.982 55.7971C208.61 55.56 208.167 55.4579 207.729 55.5078H206.243V57.726ZM144.52 51.5343V65.6729H263.955V51.5343H144.52ZM156.093 59.2498C155.238 59.9323 154.155 60.2633 153.065 60.1756H151.136V64.2262H147.76V53.3475H153.373C154.364 53.2733 155.345 53.5842 156.112 54.2155C156.726 54.9182 157.064 55.8192 157.064 56.7519C157.064 57.6846 156.726 58.5856 156.112 59.2884L156.093 59.2498ZM170.193 61.5258C169.77 62.3562 169.095 63.0313 168.264 63.4547C167.324 63.9404 166.274 64.1731 165.217 64.1298C164.171 64.164 163.13 63.9663 162.169 63.5511C161.346 63.1185 160.673 62.4458 160.24 61.6223C159.708 60.6483 159.448 59.5489 159.488 58.4397C159.543 57.3256 159.91 56.2494 160.548 55.3345C161.186 54.4195 162.069 53.7026 163.096 53.2659C164.122 52.8292 165.251 52.6902 166.352 52.865C167.454 53.0397 168.484 53.5211 169.325 54.254C169.834 54.8184 170.221 55.481 170.463 56.2009C170.705 56.9208 170.797 57.6828 170.733 58.4397C170.797 59.5147 170.591 60.5887 170.135 61.5644L170.193 61.5258ZM185.393 64.1684H182.017L180.088 57.3016L178.159 64.1684H174.9L172.469 53.2896H175.671L176.828 59.4041L178.449 53.2896H181.651L183.329 59.4041L184.486 53.2896H187.669L185.393 64.1684ZM199.917 64.1684H190.658V53.3089H199.666V55.6428H193.995V57.3788H199.242V59.597H193.995V61.738H199.782L199.917 64.1684ZM209.831 64.1684L208.037 60.8314C207.89 60.5101 207.68 60.2215 207.42 59.9827C207.178 59.8116 206.887 59.7236 206.591 59.732H206.301V64.1684H202.907V53.3089H208.539C209.345 53.2732 210.152 53.3643 210.931 53.5789C211.47 53.7521 211.938 54.0977 212.262 54.5627C212.568 55.0611 212.741 55.6308 212.761 56.2158C212.781 56.8008 212.649 57.3811 212.377 57.8996C212.116 58.3402 211.752 58.7109 211.316 58.9797C210.941 59.1803 210.538 59.3234 210.12 59.4041C210.434 59.4974 210.732 59.6337 211.008 59.8091C211.211 59.9713 211.393 60.1593 211.548 60.3685C211.725 60.5841 211.88 60.8167 212.011 61.0629L213.65 64.2262L209.831 64.1684ZM263.28 64.9592H215.097V52.2094H263.318L263.28 64.9592Z" fill="black"/>
<path d="M224.741 55.0063C224.424 54.5337 223.993 54.1488 223.488 53.8876C223.13 53.7135 222.745 53.6026 222.35 53.5597C221.749 53.4801 221.142 53.4478 220.536 53.4632H217.894V64.3034H219.128V59.6548H220.749C221.336 59.6635 221.923 59.6248 222.504 59.5391C222.917 59.4626 223.314 59.3193 223.68 59.1148C224.146 58.8544 224.528 58.4662 224.78 57.996C225.048 57.5402 225.188 57.0204 225.185 56.4915C225.175 55.9653 225.022 55.4518 224.741 55.0063ZM223.14 58.1503C222.466 58.53 221.695 58.7044 220.922 58.6518H219.128V54.4469H220.884C221.688 54.3786 222.494 54.5533 223.198 54.9484C223.432 55.138 223.619 55.3798 223.743 55.6545C223.867 55.9291 223.925 56.229 223.912 56.5301C223.925 56.8359 223.857 57.1397 223.715 57.4107C223.572 57.6817 223.361 57.9102 223.102 58.0732L223.14 58.1503Z" fill="black"/>
<path fill-rule="evenodd" clip-rule="evenodd" d="M233.575 64.0719H227.982V53.2317H229.197V63.0303H233.575V64.0719Z" fill="#231F20"/>
<path d="M242.525 53.0774H241.059L236.314 63.9369H237.588L239.073 60.5228H244.609L246.094 63.9369H247.386L242.525 53.0774ZM239.42 59.5584L241.754 54.0997L244.03 59.5584H239.42Z" fill="black"/>
<path fill-rule="evenodd" clip-rule="evenodd" d="M254.118 60.2721V64.2648H252.903V60.2721L248.948 53.4246H250.337L253.52 59.0569L256.722 53.4246H258.072L254.118 60.2721Z" fill="#231F20"/>
<path d="M262.489 54.2347C262.321 53.9473 262.082 53.708 261.795 53.5404C261.501 53.3711 261.169 53.2819 260.83 53.2819C260.492 53.2819 260.159 53.3711 259.866 53.5404C259.578 53.708 259.339 53.9473 259.171 54.2347C259.002 54.528 258.913 54.8606 258.913 55.1992C258.913 55.5378 259.002 55.8704 259.171 56.1636C259.339 56.4511 259.578 56.6903 259.866 56.858C260.159 57.0273 260.492 57.1164 260.83 57.1164C261.169 57.1164 261.501 57.0273 261.795 56.858C262.082 56.6903 262.321 56.4511 262.489 56.1636C262.658 55.8704 262.747 55.5378 262.747 55.1992C262.747 54.8606 262.658 54.528 262.489 54.2347ZM261.91 56.1636C261.773 56.313 261.606 56.4316 261.42 56.5114C261.234 56.5912 261.033 56.6305 260.83 56.6265C260.424 56.6215 260.037 56.4566 259.752 56.1678C259.466 55.879 259.306 55.4894 259.306 55.0834C259.306 54.6793 259.467 54.2917 259.753 54.006C260.038 53.7202 260.426 53.5596 260.83 53.5596C261.236 53.5596 261.626 53.7195 261.915 54.0048C262.203 54.29 262.368 54.6775 262.373 55.0834C262.392 55.3019 262.359 55.5218 262.279 55.7258C262.199 55.9299 262.073 56.1127 261.91 56.26V56.1636ZM261.409 55.5271C261.366 55.4452 261.307 55.373 261.235 55.3149C261.187 55.2674 261.127 55.234 261.062 55.2185C261.221 55.1917 261.369 55.1178 261.486 55.0063C261.569 54.9094 261.617 54.7869 261.621 54.6591C261.625 54.58 261.611 54.5009 261.581 54.4276C261.551 54.3543 261.506 54.2884 261.447 54.2347C261.284 54.1221 261.087 54.0677 260.888 54.0804H259.981V56.1057H260.483V55.3149C260.525 55.3178 260.565 55.3296 260.602 55.3496C260.638 55.3695 260.67 55.3972 260.695 55.4306C260.839 55.6532 260.968 55.8852 261.081 56.125H261.679C261.505 55.8164 261.39 55.6235 261.39 55.6235L261.409 55.5271ZM260.695 54.9291H260.483V54.4276H260.714C260.814 54.3889 260.924 54.3889 261.023 54.4276C261.044 54.4837 261.044 54.5452 261.023 54.6012C261.047 54.6633 261.047 54.732 261.023 54.7941C260.942 54.9007 260.826 54.9757 260.695 55.0063V54.9291Z" fill="black"/>
<path fill-rule="evenodd" clip-rule="evenodd" d="M151.155 58.0153H151.985C152.468 58.0626 152.952 57.9398 153.354 57.6681C153.48 57.5624 153.581 57.4292 153.648 57.2788C153.714 57.1284 153.746 56.9646 153.74 56.8001C153.748 56.6407 153.723 56.4812 153.667 56.3318C153.61 56.1825 153.524 56.0464 153.412 55.9321C153.044 55.649 152.582 55.5179 152.12 55.5657H151.155V58.0153ZM162.844 58.5361C162.773 59.3742 162.991 60.2114 163.461 60.9086C163.667 61.1505 163.925 61.3423 164.216 61.4694C164.506 61.5964 164.822 61.6553 165.14 61.6416C165.455 61.6548 165.769 61.5977 166.059 61.4742C166.349 61.3507 166.609 61.1641 166.818 60.9279C167.288 60.1664 167.497 59.2729 167.416 58.3818C167.5 57.5899 167.309 56.7931 166.875 56.125C166.66 55.8929 166.397 55.7105 166.103 55.5906C165.81 55.4707 165.494 55.4161 165.178 55.4306C164.869 55.419 164.561 55.4772 164.277 55.6007C163.993 55.7242 163.741 55.91 163.539 56.1443C163.065 56.8474 162.847 57.6917 162.921 58.5361H162.844ZM206.243 57.726H207.671C207.97 57.6986 208.267 57.647 208.558 57.5717C208.772 57.5323 208.965 57.4156 209.098 57.2438C209.241 57.063 209.316 56.8377 209.31 56.6072C209.325 56.4558 209.303 56.303 209.246 56.162C209.189 56.021 209.098 55.8958 208.982 55.7971C208.61 55.56 208.167 55.4579 207.729 55.5078H206.243V57.726ZM144.52 51.5343V65.6729H263.955V51.5343H144.52ZM156.093 59.2498C155.238 59.9323 154.155 60.2633 153.065 60.1756H151.136V64.2262H147.76V53.3475H153.373C154.364 53.2733 155.345 53.5842 156.112 54.2155C156.726 54.9182 157.064 55.8192 157.064 56.7519C157.064 57.6846 156.726 58.5856 156.112 59.2884L156.093 59.2498ZM170.193 61.5258C169.77 62.3562 169.095 63.0313 168.264 63.4547C167.324 63.9404 166.274 64.1731 165.217 64.1298C164.171 64.164 163.13 63.9663 162.169 63.5511C161.346 63.1185 160.673 62.4458 160.24 61.6223C159.708 60.6483 159.448 59.5489 159.488 58.4397C159.543 57.3256 159.91 56.2494 160.548 55.3345C161.186 54.4195 162.069 53.7026 163.096 53.2659C164.122 52.8292 165.251 52.6902 166.352 52.865C167.454 53.0397 168.484 53.5211 169.325 54.254C169.834 54.8184 170.221 55.481 170.463 56.2009C170.705 56.9208 170.797 57.6828 170.733 58.4397C170.797 59.5147 170.591 60.5887 170.135 61.5644L170.193 61.5258ZM185.393 64.1684H182.017L180.088 57.3016L178.159 64.1684H174.9L172.469 53.2896H175.671L176.828 59.4041L178.449 53.2896H181.651L183.329 59.4041L184.486 53.2896H187.669L185.393 64.1684ZM199.917 64.1684H190.658V53.3089H199.666V55.6428H193.995V57.3788H199.242V59.597H193.995V61.738H199.782L199.917 64.1684ZM209.831 64.1684L208.037 60.8314C207.89 60.5101 207.68 60.2215 207.42 59.9827C207.178 59.8116 206.887 59.7236 206.591 59.732H206.301V64.1684H202.907V53.3089H208.539C209.345 53.2732 210.152 53.3643 210.931 53.5789C211.47 53.7521 211.938 54.0977 212.262 54.5627C212.568 55.0611 212.741 55.6308 212.761 56.2158C212.781 56.8008 212.649 57.3811 212.377 57.8996C212.116 58.3402 211.752 58.7109 211.316 58.9797C210.941 59.1803 210.538 59.3234 210.12 59.4041C210.434 59.4974 210.732 59.6337 211.008 59.8091C211.211 59.9713 211.393 60.1593 211.548 60.3685C211.725 60.5841 211.88 60.8167 212.011 61.0629L213.65 64.2262L209.831 64.1684ZM263.28 64.9592H215.097V52.2094H263.318L263.28 64.9592Z" fill="black"/>
<path d="M224.741 55.0063C224.424 54.5337 223.993 54.1488 223.488 53.8876C223.13 53.7135 222.745 53.6026 222.35 53.5597C221.749 53.4801 221.142 53.4478 220.536 53.4632H217.894V64.3034H219.128V59.6548H220.749C221.336 59.6635 221.923 59.6248 222.504 59.5391C222.917 59.4626 223.314 59.3193 223.68 59.1148C224.146 58.8544 224.528 58.4662 224.78 57.996C225.048 57.5402 225.188 57.0204 225.185 56.4915C225.175 55.9653 225.022 55.4518 224.741 55.0063ZM223.14 58.1503C222.466 58.53 221.695 58.7044 220.922 58.6518H219.128V54.4469H220.884C221.688 54.3786 222.494 54.5533 223.198 54.9484C223.432 55.138 223.619 55.3798 223.743 55.6545C223.867 55.9291 223.925 56.229 223.912 56.5301C223.925 56.8359 223.857 57.1397 223.715 57.4107C223.572 57.6817 223.361 57.9102 223.102 58.0732L223.14 58.1503Z" fill="black"/>
<path fill-rule="evenodd" clip-rule="evenodd" d="M233.575 64.0719H227.982V53.2317H229.197V63.0303H233.575V64.0719Z" fill="#231F20"/>
<path d="M242.525 53.0774H241.059L236.314 63.9369H237.588L239.073 60.5228H244.609L246.094 63.9369H247.386L242.525 53.0774ZM239.42 59.5584L241.754 54.0997L244.03 59.5584H239.42Z" fill="black"/>
<path fill-rule="evenodd" clip-rule="evenodd" d="M254.118 60.2721V64.2648H252.903V60.2721L248.948 53.4246H250.337L253.52 59.0569L256.722 53.4246H258.072L254.118 60.2721Z" fill="#231F20"/>
<path d="M262.489 54.2347C262.321 53.9473 262.082 53.708 261.795 53.5404C261.501 53.3711 261.169 53.2819 260.83 53.2819C260.492 53.2819 260.159 53.3711 259.866 53.5404C259.578 53.708 259.339 53.9473 259.171 54.2347C259.002 54.528 258.913 54.8606 258.913 55.1992C258.913 55.5378 259.002 55.8704 259.171 56.1636C259.339 56.4511 259.578 56.6903 259.866 56.858C260.159 57.0273 260.492 57.1164 260.83 57.1164C261.169 57.1164 261.501 57.0273 261.795 56.858C262.082 56.6903 262.321 56.4511 262.489 56.1636C262.658 55.8704 262.747 55.5378 262.747 55.1992C262.747 54.8606 262.658 54.528 262.489 54.2347ZM261.91 56.1636C261.773 56.313 261.606 56.4316 261.42 56.5114C261.234 56.5912 261.033 56.6305 260.83 56.6265C260.424 56.6215 260.037 56.4566 259.752 56.1678C259.466 55.879 259.306 55.4894 259.306 55.0834C259.306 54.6793 259.467 54.2917 259.753 54.006C260.038 53.7202 260.426 53.5596 260.83 53.5596C261.236 53.5596 261.626 53.7195 261.915 54.0048C262.203 54.29 262.368 54.6775 262.373 55.0834C262.392 55.3019 262.359 55.5218 262.279 55.7258C262.199 55.9299 262.073 56.1127 261.91 56.26V56.1636ZM261.409 55.5271C261.366 55.4452 261.307 55.373 261.235 55.3149C261.187 55.2674 261.127 55.234 261.062 55.2185C261.221 55.1917 261.369 55.1178 261.486 55.0063C261.569 54.9094 261.617 54.7869 261.621 54.6591C261.625 54.58 261.611 54.5009 261.581 54.4276C261.551 54.3543 261.506 54.2884 261.447 54.2347C261.284 54.1221 261.087 54.0677 260.888 54.0804H259.981V56.1057H260.483V55.3149C260.525 55.3178 260.565 55.3296 260.602 55.3496C260.638 55.3695 260.67 55.3972 260.695 55.4306C260.839 55.6532 260.968 55.8852 261.081 56.125H261.679C261.505 55.8164 261.39 55.6235 261.39 55.6235L261.409 55.5271ZM260.695 54.9291H260.483V54.4276H260.714C260.814 54.3889 260.924 54.3889 261.023 54.4276C261.044 54.4837 261.044 54.5452 261.023 54.6012C261.047 54.6633 261.047 54.732 261.023 54.7941C260.942 54.9007 260.826 54.9757 260.695 55.0063V54.9291Z" fill="black"/>
<path fill-rule="evenodd" clip-rule="evenodd" d="M151.155 58.0153H151.985C152.468 58.0626 152.952 57.9398 153.354 57.6681C153.48 57.5624 153.581 57.4292 153.648 57.2788C153.714 57.1284 153.746 56.9646 153.74 56.8001C153.748 56.6407 153.723 56.4812 153.667 56.3318C153.61 56.1825 153.524 56.0464 153.412 55.9321C153.044 55.649 152.582 55.5179 152.12 55.5657H151.155V58.0153ZM162.844 58.5361C162.773 59.3742 162.991 60.2114 163.461 60.9086C163.667 61.1505 163.925 61.3423 164.216 61.4694C164.506 61.5964 164.822 61.6553 165.14 61.6416C165.455 61.6548 165.769 61.5977 166.059 61.4742C166.349 61.3507 166.609 61.1641 166.818 60.9279C167.288 60.1664 167.497 59.2729 167.416 58.3818C167.5 57.5899 167.309 56.7931 166.875 56.125C166.66 55.8929 166.397 55.7105 166.103 55.5906C165.81 55.4707 165.494 55.4161 165.178 55.4306C164.869 55.419 164.561 55.4772 164.277 55.6007C163.993 55.7242 163.741 55.91 163.539 56.1443C163.065 56.8474 162.847 57.6917 162.921 58.5361H162.844ZM206.243 57.726H207.671C207.97 57.6986 208.267 57.647 208.558 57.5717C208.772 57.5323 208.965 57.4156 209.098 57.2438C209.241 57.063 209.316 56.8377 209.31 56.6072C209.325 56.4558 209.303 56.303 209.246 56.162C209.189 56.021 209.098 55.8958 208.982 55.7971C208.61 55.56 208.167 55.4579 207.729 55.5078H206.243V57.726ZM144.52 51.5343V65.6729H263.955V51.5343H144.52ZM156.093 59.2498C155.238 59.9323 154.155 60.2633 153.065 60.1756H151.136V64.2262H147.76V53.3475H153.373C154.364 53.2733 155.345 53.5842 156.112 54.2155C156.726 54.9182 157.064 55.8192 157.064 56.7519C157.064 57.6846 156.726 58.5856 156.112 59.2884L156.093 59.2498ZM170.193 61.5258C169.77 62.3562 169.095 63.0313 168.264 63.4547C167.324 63.9404 166.274 64.1731 165.217 64.1298C164.171 64.164 163.13 63.9663 162.169 63.5511C161.346 63.1185 160.673 62.4458 160.24 61.6223C159.708 60.6483 159.448 59.5489 159.488 58.4397C159.543 57.3256 159.91 56.2494 160.548 55.3345C161.186 54.4195 162.069 53.7026 163.096 53.2659C164.122 52.8292 165.251 52.6902 166.352 52.865C167.454 53.0397 168.484 53.5211 169.325 54.254C169.834 54.8184 170.221 55.481 170.463 56.2009C170.705 56.9208 170.797 57.6828 170.733 58.4397C170.797 59.5147 170.591 60.5887 170.135 61.5644L170.193 61.5258ZM185.393 64.1684H182.017L180.088 57.3016L178.159 64.1684H174.9L172.469 53.2896H175.671L176.828 59.4041L178.449 53.2896H181.651L183.329 59.4041L184.486 53.2896H187.669L185.393 64.1684ZM199.917 64.1684H190.658V53.3089H199.666V55.6428H193.995V57.3788H199.242V59.597H193.995V61.738H199.782L199.917 64.1684ZM209.831 64.1684L208.037 60.8314C207.89 60.5101 207.68 60.2215 207.42 59.9827C207.178 59.8116 206.887 59.7236 206.591 59.732H206.301V64.1684H202.907V53.3089H208.539C209.345 53.2732 210.152 53.3643 210.931 53.5789C211.47 53.7521 211.938 54.0977 212.262 54.5627C212.568 55.0611 212.741 55.6308 212.761 56.2158C212.781 56.8008 212.649 57.3811 212.377 57.8996C212.116 58.3402 211.752 58.7109 211.316 58.9797C210.941 59.1803 210.538 59.3234 210.12 59.4041C210.434 59.4974 210.732 59.6337 211.008 59.8091C211.211 59.9713 211.393 60.1593 211.548 60.3685C211.725 60.5841 211.88 60.8167 212.011 61.0629L213.65 64.2262L209.831 64.1684ZM263.28 64.9592H215.097V52.2094H263.318L263.28 64.9592Z" fill="black"/>
</svg>
